<?xml version="1.0" encoding="UTF-8"?>
<svg width="843px" height="671px" viewBox="0 0 843 671" version="1.1" xmlns="http://www.w3.org/2000/svg" xmlns:xlink="http://www.w3.org/1999/xlink">
    <!-- Generator: sketchtool 61 (101010) - https://sketch.com -->
    <title>BCC7C7DD-A8BD-4B09-9FBD-31092D3AD1B2</title>
    <desc>Created with sketchtool.</desc>
    <g id="Landing---Design" stroke="none" stroke-width="1" fill="none" fill-rule="evenodd">
        <g id="00-coming-soon" transform="translate(-597.000000, -90.000000)">
            <g id="About_Confused-Box" transform="translate(597.000000, 90.000000)">
                <path d="M0,646.855 L893.475,646.855 C893.475,646.855 831.524794,347.547797 683.83226,386.303416 C547.112715,422.179944 476.211007,313.052251 389.275889,311.439246 C255.26134,308.951694 221.796234,465.988752 121.284764,461.752105 C20.7732937,457.515457 0,557.503906 0,557.503906 L0,646.855 Z" id="Path" fill="#0086FF" fill-rule="nonzero" opacity="0.13"></path>
                <g id="Group" transform="translate(468.160000, 0.000000)">
                    <path d="M267.852501,110.351917 C261.82599,101.816767 248.466311,98.8206458 239.127289,95.8390365 C215.702543,88.361013 191.258649,84.3981853 166.68834,83.79204 C170.952877,76.2224808 171.327646,65.9838734 168.103513,58.4980359 C167.890957,58.0046359 167.582192,57.6630513 167.223085,57.4397934 C166.924389,56.1225718 166.750988,54.7819081 166.730851,53.2938941 C166.700646,51.1528508 167.214136,49.1133899 166.702884,46.9723466 C166.417612,45.7756842 165.900766,44.5566961 165.136684,43.5844079 C164.460981,42.7237487 162.799691,42.1622551 162.300745,41.3875501 C160.571214,38.7028739 163.516787,31.9515549 163.367998,28.4955225 C163.182292,24.1464586 161.848785,20.1523747 159.79147,16.3502926 C159.495011,15.8021944 159.101224,15.4438655 158.668282,15.226189 C156.232842,11.5290381 153.436058,8.0618429 149.539578,5.88954349 C146.922907,3.51296311 144.02432,1.56727048 140.405281,0.737867371 C134.523084,-0.609494077 128.487624,0.932101747 122.977959,2.98495817 C118.50646,4.65046213 113.607613,6.35168735 110.49647,10.1649323 C107.012796,14.4336235 107.092224,20.253957 104.577356,24.984792 C104.428567,25.2649806 104.345782,25.5407042 104.292084,25.8108462 C101.508724,30.5126577 97.8270376,34.6083239 95.2383341,39.4697648 C92.0768492,45.4073087 88.6580602,52.3003965 87.6254874,58.9981336 C85.6207525,72.0118368 89.1816182,87.0650009 93.0680295,99.8208412 C92.8353371,100.477219 92.8700172,101.240761 93.3264524,102.025513 C94.0413105,103.253431 94.7561685,104.480234 95.4699078,105.708152 C95.6298839,105.983876 95.7909787,106.251785 95.9554296,106.515229 C96.7553099,108.149477 97.7185224,109.67991 98.8506606,111.0909 C101.268201,114.986751 104.406193,118.220641 108.422375,118.729669 C116.680719,119.777865 126.198736,117.934871 132.583235,112.520867 C132.909899,112.242911 133.135879,111.942629 133.285787,111.632301 C133.640419,111.333135 133.98722,111.022807 134.336259,110.714711 C135.415818,110.685687 136.465171,110.096286 136.855602,108.761204 C137.467539,106.664812 154.866893,109.886424 156.534895,110.114147 C162.723619,110.959178 168.893325,111.935931 175.051844,112.974081 C181.575063,114.074742 188.085977,115.252428 194.593535,116.44016 C195.555628,116.615417 196.334253,116.664534 197.074842,116.63551 C196.064643,116.762767 194.886638,116.923513 194.584585,116.993839 C191.467849,117.720544 188.346637,118.43162 185.21312,119.087998 C172.340082,121.783837 158.907687,123.721716 145.785175,121.691185 C141.860727,121.083924 138.283081,119.560189 134.724453,121.955746 C129.948664,125.171776 125.810542,130.389313 121.735068,134.66247 C112.639926,131.472114 104.518064,126.570487 97.4422001,120.024565 C97.2766305,118.797763 96.3973215,117.729474 94.7841363,117.823242 C72.802531,119.10251 55.207402,135.527594 42.67669,152.315472 C35.5068539,161.920027 29.6380819,172.408683 24.1731655,183.048039 C19.189296,192.749711 15.0925664,203.838931 7.70569992,212.078264 C7.30967527,212.215568 6.92260033,212.4645 6.57356166,212.881992 C6.12272004,213.422277 5.7110334,213.972607 5.31612747,214.528519 C5.1964251,214.641265 5.08455373,214.760708 4.96261394,214.872337 C4.4524805,215.338946 4.18846407,215.860253 4.11015411,216.38156 C-3.08653108,228.613861 1.62996585,243.932702 4.19070149,257.218779 C5.95491299,266.371237 7.71800577,275.522579 9.48221726,284.675036 C10.9734626,292.413155 11.7353066,300.747373 15.6284303,307.735345 C15.7559637,307.964185 15.9036339,308.152838 16.0602538,308.321397 C18.6456011,317.257295 18.9979959,326.535893 20.0876231,335.784352 C20.8751975,342.466461 21.482659,353.830288 26.8502473,358.621403 C29.3863713,360.886354 32.2368538,360.110533 35.2584995,359.537877 C38.886488,358.850242 44.1780037,358.811172 47.3148769,356.929108 C49.6149523,355.549374 49.7637412,353.723125 49.5858657,351.29073 C49.2189276,346.270776 48.1964233,341.195007 47.3663378,336.187333 C52.5773061,334.028429 55.4591126,328.112094 53.3369127,322.507204 C51.7516954,318.321119 48.4850515,315.029181 46.7790131,310.853142 C45.763221,308.366049 44.302181,304.695689 43.4810451,301.067748 C43.7853352,300.747373 44.0157902,300.316485 44.1086435,299.738247 C44.2607885,298.790517 44.3782535,297.846136 44.4789377,296.901756 C45.4622871,297.951068 46.4601797,298.988101 47.6035051,299.868853 C50.1138986,301.802267 52.8849524,303.303676 55.6806179,304.780527 C56.7378024,305.339788 57.751357,305.171228 58.5232694,304.646572 C58.4438407,310.465789 40.3374596,505.406777 39.8899741,520.222171 C39.3406857,538.384202 38.792516,556.546232 38.2432276,574.709379 C38.2275656,575.219523 38.3371995,575.649295 38.5195499,576.015438 C38.1000322,579.282817 37.690583,582.551313 37.2990332,585.822041 C36.905246,586.251812 36.6300424,586.818888 36.5763442,587.536662 C36.2373739,592.123495 35.8995224,596.710329 35.5605522,601.297163 C33.9999466,616.285582 32.7738363,631.30749 31.8811028,646.355073 C30.5688517,647.651085 29.0574695,648.796398 27.7250815,650.076782 C25.3892073,652.32164 23.1875787,654.68929 21.0541917,657.125034 C19.5730148,658.815096 20.2923477,660.992977 22.2881329,661.788892 C25.6263746,663.120625 28.5965594,664.958038 31.2009249,667.448479 C32.4046608,668.60049 33.5077125,670.183389 35.2271755,670.63437 C37.436635,671.213724 40.258031,670.100783 42.3891805,669.620779 C45.802376,668.852772 49.2737446,668.196393 52.6086301,667.129221 C56.4066631,665.913581 60.5268856,664.354125 61.9834509,660.353343 C63.5641933,656.008744 63.7801051,650.690741 64.0575461,645.699811 C64.6258526,645.252179 65.0297083,644.572358 65.0744568,643.654768 C65.4425136,636.164466 68.2929961,628.779094 70.3480732,621.618097 L76.4898113,600.207664 C80.2319086,587.161588 84.9886793,574.007233 86.6935989,560.503478 C86.7730276,559.876124 86.6566814,559.365979 86.4206328,558.961883 C88.9701813,543.618483 95.2305031,529.132394 98.4244307,513.918484 C100.125994,505.814222 101.37336,497.588285 104.305509,489.801049 C106.312481,484.469651 108.744565,479.568023 110.00088,474.121647 C116.222047,462.863867 118.308448,449.854629 122.301137,437.737306 C124.563176,430.869893 127.13398,424.118574 129.701428,417.361674 C130.293228,415.802217 130.845872,414.272901 131.323563,412.750282 C134.184114,423.808246 137.709181,434.709929 139.769851,445.966593 C142.326112,459.936956 142.84072,474.176345 148.017009,487.424469 C147.991278,487.721402 147.997991,488.03173 148.078538,488.36885 C152.171911,505.618872 155.505678,523.020709 158.092144,540.553152 C157.672627,541.133623 157.488039,541.896049 157.738631,542.799127 C160.970595,554.448724 162.619579,566.205485 163.121881,578.269226 C163.545873,588.463182 164.106349,598.411554 168.28027,607.873224 C168.478282,608.321973 167.981573,619.666823 168.28027,619.901244 C170.17649,627.792294 166.585419,625.502785 167.223085,633.595884 C167.563174,637.911459 167.031785,642.53496 167.223085,646.855 C167.356212,649.866749 172.546064,654.544173 174.515,657.125034 C176.234463,659.377706 180.227013,658.119648 182.819073,658.48914 C186.931465,659.075192 191.055043,659.58422 195.18869,659.998363 C205.082594,660.989628 215.013416,661.406004 224.955424,661.370283 C227.605657,661.360236 228.346245,658.423279 226.93331,656.605959 C219.922331,647.594154 211.59127,639.935292 202.125834,633.595884 C202.371951,633.189554 202.582269,632.758666 202.743364,632.302104 C204.061209,628.559185 203.609248,623.817187 203.801667,619.901244 C203.835228,619.208028 203.651759,618.652116 203.335163,618.226809 C205.187753,596.976006 205.469669,575.650411 204.17308,554.352723 C204.997572,551.234927 204.116026,547.158237 204.171961,544.320629 C204.319631,536.915165 205.04232,529.535375 205.845557,522.17791 C207.33904,508.489968 209.038366,494.829934 208.291065,481.051572 C208.581931,480.659754 208.79113,480.183099 208.849303,479.602628 C210.234271,465.945942 209.852789,452.306001 207.837986,438.789967 C207.760795,436.565202 207.438605,434.362763 206.841212,432.130184 C206.409389,427.794515 205.79074,423.47894 204.986385,419.178993 C204.638465,411.869529 203.083453,404.965279 201.380771,397.7987 C199.25074,388.832662 198.722707,379.806345 198.517982,370.623748 C198.162231,354.685366 196.929409,339.50048 191.809056,324.40378 C195.864393,323.765263 199.953292,323.488423 204.135044,323.626843 C206.406032,323.701634 207.239474,321.510358 206.645437,319.851552 C209.676033,309.366244 208.018099,298.444468 206.156559,287.834136 C203.979542,275.431043 201.006001,263.179766 198.179012,250.913976 C192.472453,226.153559 186.765895,201.394257 181.059336,176.633839 C205.19894,159.64168 230.966273,145.094195 256.413653,130.171637 C257.209059,129.705028 257.611796,129.039719 257.723667,128.340922 C263.796045,123.988509 273.179815,117.894685 267.852501,110.351917 Z" id="Path" fill="#FFFFFF" fill-rule="nonzero"></path>
                    <path d="M114.410848,74.8654078 C113.432482,77.1387628 111.487537,78.6879442 110.061244,78.3212741 C108.623163,77.9546039 108.245962,75.8095834 109.224328,73.5270616 C110.190907,71.2445399 112.147639,69.6953584 113.573932,70.0711953 C115.012013,70.4378655 115.377427,72.582886 114.410848,74.8654078 Z" id="Path" fill="#0086FF" fill-rule="nonzero" transform="translate(111.815000, 74.195000) rotate(-7.000000) translate(-111.815000, -74.195000) "></path>
                    <path d="M130.088753,79.0390591 C129.109998,81.3197586 127.164281,82.8677032 125.72563,82.5013258 C124.29877,82.1257889 123.921419,79.982481 124.900174,77.7109409 C125.867136,75.4302414 127.812854,73.8822968 129.251505,74.2486742 C130.678364,74.6242111 131.055716,76.767519 130.088753,79.0390591 Z" id="Path" fill="#0086FF" fill-rule="nonzero" transform="translate(127.490000, 78.375000) rotate(-7.000000) translate(-127.490000, -78.375000) "></path>
                    <path d="M147.307744,68.4084542 C147.106376,68.85497 146.960943,69.1563682 146.916194,69.2233456 C146.927382,69.1675311 146.994504,69.0000877 147.12875,68.7098524 C147.173499,68.6093863 147.229434,68.5089203 147.307744,68.4084542 Z" id="Path" fill="#0086FF" fill-rule="nonzero"></path>
                    <path d="M140.987012,95.69057 C145.327621,89.6626066 148.046095,84.6058151 148.046095,84.6058151 C148.046095,84.6058151 161.425911,88.0551497 163.506719,71.6568567 C165.050543,59.5227897 149.66823,64.914468 147.307744,68.3972913 C148.471206,65.7740109 151.81616,57.2567219 148.840382,55.1022832 C144.958445,52.2892336 144.007539,55.2697266 141.557556,58.7078983 C139.062824,62.2242103 109.965081,49.1971116 107.884274,48.7617587 C105.803466,48.3264058 109.920333,40.3560986 107.403227,40.2221439 C103.342296,39.998886 100.098026,56.3748532 99.3037397,62.4028166 C98.5206401,68.43078 98.4423301,49.9115369 94.5715807,55.5153103 C91.3496853,60.1814005 94.996692,65.4949386 94.996692,65.4949386 C94.996692,65.4949386 94.672265,66.6335539 95.0078791,70.5294043 C95.2092476,72.8512865 95.488926,75.6866619 95.8916629,78.7899467 C85.8232397,52.6352833 101.977465,39.6863249 101.977465,39.6863249 C103.498916,34.0044113 107.447975,29.2936695 107.447975,29.2936695 C111.329912,12.0358336 124.620231,4.67948566 137.272882,6.52136336 C149.936721,8.37440396 166.404187,18.1977517 156.693752,43.0351935 C156.693752,43.0351935 170.811919,46.4287136 162.734806,64.7916762 C168.127006,65.5061015 173.899569,86.7714168 140.987012,95.69057 Z" id="Path" fill="#0086FF" fill-rule="nonzero"></path>
                    <path d="M147.307744,68.3972913 C148.471206,65.7740109 151.81616,57.2567219 148.840382,55.1022832 C144.958445,52.2892336 144.007539,55.2697266 141.557556,58.7078983 C139.062824,62.2242103 109.965081,49.1971116 107.884274,48.7617587 C105.803466,48.3264058 109.920333,40.3560986 107.403227,40.2221439 C103.342296,39.998886 100.098026,56.3748532 99.3037397,62.4028166 C98.5206401,68.43078 98.4423301,49.9115369 94.5715807,55.5153103 C91.3496853,60.1814005 94.996692,65.4949386 94.996692,65.4949386 C94.996692,65.4949386 94.672265,66.6335539 95.0078791,70.5294043 C95.2092476,72.8512865 95.488926,75.6866619 95.8916629,78.7899467 C97.7263534,93.1231041 102.044588,113.171664 112.034701,115.326103 C122.807914,117.659148 133.995051,105.402289 140.987012,95.69057 C145.327621,89.6626066 148.046095,84.6058151 148.046095,84.6058151 C148.046095,84.6058151 161.425911,88.0551497 163.506719,71.6568567 C165.050543,59.5227897 149.66823,64.914468 147.307744,68.3972913 Z M146.916194,69.2233456 C146.927382,69.1675311 146.994504,69.0000877 147.12875,68.7098524 C147.173499,68.6093863 147.229434,68.5089203 147.307744,68.4084542 C147.106376,68.85497 146.960943,69.1563682 146.916194,69.2233456 Z" id="Shape" stroke="#0086FF" stroke-width="3.342746" stroke-linecap="round" stroke-linejoin="round"></path>
                    <path d="M147.307744,68.4084542 C147.106376,68.85497 146.960943,69.1563682 146.916194,69.2233456 C146.927382,69.1675311 146.994504,69.0000877 147.12875,68.7098524 C147.173499,68.6093863 147.229434,68.5089203 147.307744,68.4084542 Z" id="Path" stroke="#0086FF" stroke-width="3.342746" stroke-linecap="round" stroke-linejoin="round"></path>
                    <g transform="translate(20.136846, 638.517604)" fill="#FFFFFF" fill-rule="nonzero" id="Path">
                        <path d="M18.7060117,6.8149475 C25.8702541,8.64901118 33.1676236,8.62110394 40.4929608,9.2752496 C39.4145208,7.86202707 38.3349621,6.44880454 37.2565221,5.0366983 C36.4622354,10.0175821 35.6679487,14.9973497 34.873662,19.9782335 C35.6545241,19.1990634 36.436505,18.418777 37.2173671,17.639607 C30.7545581,19.6243697 24.0456321,21.248571 17.7204249,23.6273839 C13.8776434,25.0729789 18.4722005,24.0560391 18.0996688,24.5661834 C18.0392583,24.6487888 14.9538459,22.9017957 14.6573868,22.7443989 C11.6547593,21.1559189 8.6521317,19.5663227 5.64950415,17.9778427 C5.87548432,19.7315335 6.1025832,21.4841081 6.32856336,23.2377989 C11.5428879,17.4766287 16.7572124,11.7154585 21.9715369,5.95540458 C24.8600557,2.76393285 20.1278968,-1.98811163 17.2248347,1.21898815 C12.0105102,6.98015835 6.79618568,12.7413286 1.58186116,18.5013825 C0.195774896,20.0329317 0.262897718,22.7030962 2.26092037,23.7613387 C6.76598041,26.1446168 13.1583105,31.5284811 18.3759911,30.4334011 C25.3232032,28.9744107 32.2100046,26.1848032 39.0017155,24.0995744 C40.0320508,23.7836645 41.164189,22.9006795 41.3454207,21.7609479 C42.1397074,16.780064 42.9339941,11.8002965 43.7282808,6.81941266 C44.0918628,4.54106576 42.8355473,2.7896075 40.4918421,2.57974507 C33.7739664,1.9802976 27.0583281,2.04057724 20.4892413,0.358328935 C16.3041334,-0.715541581 14.5186663,5.74330957 18.7060117,6.8149475 Z"></path>
                    </g>
                    <g transform="translate(174.519336, 629.587288)" fill="#FFFFFF" fill-rule="nonzero" id="Path">
                        <path d="M2.5327678,6.68545792 C6.44379087,7.4333719 10.3503391,8.20137908 14.226682,9.1156202 C16.8769148,9.73962604 21.7131141,10.2430726 23.8420262,11.3292223 C26.1711881,12.5180706 28.3907161,15.5387501 30.3014791,17.3069527 C35.6545241,22.2610456 41.0075691,27.2140221 46.3606141,32.168115 C47.1515447,30.2626088 47.9424753,28.3571026 48.7334059,26.4515964 C33.8567512,24.8686979 18.9789778,23.2857993 4.10232311,21.7029008 C5.2210368,22.8191903 6.3397505,23.9354798 7.45846419,25.0517694 C7.23248402,17.8539345 7.00762257,10.6560997 6.78164241,3.45714864 C6.64739676,-0.842798586 -0.0660041079,-0.861775507 0.069360249,3.45714864 C0.295340415,10.6549834 0.520201867,17.8528183 0.746182033,25.0517694 C0.807711286,27.0063923 2.24525838,28.2030547 4.10232311,28.4006379 C18.9789778,29.9835364 33.8567512,31.566435 48.7334059,33.1493335 C51.6588422,33.4607783 53.1187636,29.2947858 51.1061976,27.4328149 C45.3918081,22.1449514 39.6774185,16.8559717 33.9619103,11.5681083 C32.1059643,9.85125499 30.2421873,7.57960582 28.0987318,6.19429053 C25.065899,4.23408614 20.3628266,3.70496491 16.8601341,2.86216632 C12.7052314,1.8630872 8.51452992,1.03033522 4.31711614,0.228839351 C0.0962093776,-0.57935426 -1.71163195,5.87391544 2.5327678,6.68545792 Z"></path>
                    </g>
                    <path d="M174.515,633.27 C182.05513,634.701083 188.375863,636.008258 197.155528,638.636004 L219.822905,659.6122 L175.191822,654.863504 L174.515,633.27 Z" id="Path" fill="#0086FF" fill-rule="nonzero"></path>
                    <path d="M39.7355917,642.103126 C47.1358827,644.133657 51.3769263,643.544256 60.6298073,644.443985 L58.2469471,659.38552 L36.6345173,666.021861 L24.0926181,659.38552 L39.7355917,642.103126 Z" id="Path" fill="#0086FF" fill-rule="nonzero"></path>
                    <path d="M82.3798389,124.371397 C63.0876213,134.334281 43.6343089,156.291695 9.33566577,220.239457" id="Path" stroke="#0086FF" stroke-width="3.342746" stroke-linecap="round" stroke-linejoin="round"></path>
                    <path d="M6.18089315,228.137205 C7.69563149,251.794729 10.2194496,283.41028 18.1466548,304.293825" id="Path" stroke="#0086FF" stroke-width="3.342746" stroke-linecap="round" stroke-linejoin="round"></path>
                    <path d="M154.589452,127.885476 C174.001372,124.956332 203.362013,120.08038 222.773933,117.151236" id="Path" stroke="#0086FF" stroke-width="3.342746" stroke-linecap="round" stroke-linejoin="round"></path>
                    <path d="M174.13338,174.075304 C196.424869,161.188857 235.319188,141.296578 256.490845,123.295293" id="Path" stroke="#0086FF" stroke-width="3.342746" stroke-linecap="round" stroke-linejoin="round"></path>
                    <path d="M220.287032,115.407592 C187.60493,109.515816 174.13338,106.343321 155.820037,103.772506" id="Path" stroke="#0086FF" stroke-width="3.342746" stroke-linecap="round" stroke-linejoin="round"></path>
                    <path d="M256.490845,103.773622 C236.782465,95.0654479 185.453644,92.694449 160.649524,89.2306026" id="Path" stroke="#0086FF" stroke-width="3.342746" stroke-linecap="round" stroke-linejoin="round"></path>
                    <path d="M23.550042,316.133191 C29.1324233,314.796993 34.8121327,313.910659 40.5332345,313.484236" id="Path" stroke="#0086FF" stroke-width="3.342746" stroke-linecap="round" stroke-linejoin="round"></path>
                    <path d="M22.2545715,323.26963 C21.6124298,341.601337 28.3862412,353.811311 28.9511917,354.322572 C29.6582187,354.96109 42.6330601,352.008504 45.9679456,350.732585 C45.9679456,350.732585 40.7144661,336.805757 40.996382,327.144271 C41.0523177,325.207509 43.3042883,330.260951 44.4588009,331.819292 C48.3452122,330.684025 48.2657836,327.771626 45.1512846,323.963962" id="Path" stroke="#0086FF" stroke-width="3.342746" stroke-linecap="round" stroke-linejoin="round"></path>
                    <path d="M82.3798389,185.755041 C82.3798389,185.755041 62.2597732,202.523942 37.3695122,235.402017" id="Path" stroke="#0086FF" stroke-width="3.342746" stroke-linecap="round" stroke-linejoin="round"></path>
                    <path d="M33.6363646,240.45546 C33.6363646,240.45546 30.9749447,277.205943 37.174856,301.923942" id="Path" stroke="#0086FF" stroke-width="3.342746" stroke-linecap="round" stroke-linejoin="round"></path>
                    <path d="M174.13338,177.330404 C174.13338,177.330404 203.23336,277.8266 203.23336,316.943618 C203.23336,316.943618 101.848813,336.397195 50.0758623,293.767215" id="Path" stroke="#0086FF" stroke-width="3.342746" stroke-linecap="round" stroke-linejoin="round"></path>
                    <path d="M183.416466,324.706295 C183.416466,324.706295 197.184476,372.585069 201.227507,465.737196" id="Path" stroke="#0086FF" stroke-width="3.342746" stroke-linecap="round" stroke-linejoin="round"></path>
                    <polyline id="Path" stroke="#0086FF" stroke-width="3.342746" stroke-linecap="round" stroke-linejoin="round" points="200.090894 477.109954 197.808718 630.930184 178.15963 629.158633 155.184607 488.443641"></polyline>
                    <line x1="152.801747" y1="483.688248" x2="133.16161" y2="389.145224" id="Path" stroke="#0086FF" stroke-width="3.342746" stroke-linecap="round" stroke-linejoin="round"></line>
                    <path d="M143.641719,339.932484 C143.641719,339.932484 124.620231,425.371051 105.55623,467.642702" id="Path" stroke="#0086FF" stroke-width="3.342746" stroke-linecap="round" stroke-linejoin="round"></path>
                    <path d="M101.849932,475.569474 C100.261359,488.779644 60.2975493,636.243722 60.2975493,636.243722 L39.7355917,633.601465 L50.076981,475.304914" id="Path" stroke="#0086FF" stroke-width="3.342746" stroke-linecap="round" stroke-linejoin="round"></path>
                    <path d="M50.076981,467.907263 C50.076981,467.907263 59.8746756,371.891853 64.9581106,340.277417" id="Path" stroke="#0086FF" stroke-width="3.342746" stroke-linecap="round" stroke-linejoin="round"></path>
                    <line x1="97.9456212" y1="127.885476" x2="118.478492" y2="139.276094" id="Path" stroke="#0086FF" stroke-width="3.342746" stroke-linecap="round" stroke-linejoin="round"></line>
                    <line x1="138.891661" y1="125.242102" x2="123.733091" y2="136.431789" id="Path" stroke="#0086FF" stroke-width="3.342746" stroke-linecap="round" stroke-linejoin="round"></line>
                </g>
                <g id="Group-18" transform="translate(165.000000, 493.000000)">
                    <path d="M85.583295,31.894085 C80.816295,28.543535 76.049295,25.192985 71.282295,21.842435 C67.041345,18.861485 63.698145,15.604385 58.297995,16.063235 C45.856545,17.120585 33.432945,18.458285 21.005145,19.655285 C18.626895,19.884185 17.456145,21.904385 17.496045,23.773385 C16.968945,25.843985 18.096645,28.513085 20.891745,28.701035 C41.801445,30.102785 62.447595,33.427085 82.751445,38.610935 C86.944095,39.681935 88.913895,34.234535 85.583295,31.894085" id="Fill-1" fill="#8FFFE9"></path>
                    <path d="M256.470795,24.543035 L216.107745,0.706985 C215.279295,0.208235 214.314345,-0.016465 213.351495,0.066485 L71.468145,12.534185 C67.315395,12.892235 65.764545,18.163235 69.062595,20.713685 L96.049695,41.582435 L98.672595,41.442785 L94.846395,41.794535 C94.189095,41.853335 93.526545,41.809235 92.883945,41.661185 L8.326395,22.150085 C4.437195,21.252335 0.725445,24.205985 0.725445,28.195985 L0.725445,143.319035 L-0.000274345046,146.087885 C-0.029505,146.474285 3.746295,148.398935 29.245545,156.936485 C60.436845,167.378735 72.339645,169.491335 93.854145,176.659685 L93.854145,177.589985 C93.854145,177.589985 136.367595,173.261885 167.836095,169.980635 C232.028895,163.287935 199.868445,169.553285 251.278545,162.356585 C254.344545,161.927135 256.627245,159.306335 256.627245,156.208835 L256.627245,33.505835 C256.627245,33.113135 256.584195,32.733035 256.515945,32.361335 C259.229145,30.704435 259.597695,26.427785 256.470795,24.543035" id="Fill-3" fill="#FFFFFF"></path>
                    <path d="M0.725025,28.19651 C0.725025,28.19651 -1.111425,19.01426 2.738925,17.26391 C6.588225,15.51461 25.838925,8.51426 28.638225,8.51426 C31.438575,8.51426 178.127775,-0.69949 178.127775,1.86461 L178.127775,6.06461 C178.127775,6.06461 17.788575,18.02411 18.488925,21.49331 C19.188225,24.96461 32.138925,37.56461 32.138925,37.56461 L0.725025,28.19651 Z" id="Fill-6" fill="#FFFFFF"></path>
                    <path d="M96.96204,43.10777 L96.96204,170.80457 C105.31059,169.95407 140.17059,166.39667 166.57284,163.64357 C196.44639,160.52927 204.81699,160.31297 210.92904,160.15547 C217.67109,159.98012 221.78499,159.87407 250.74819,155.76227 L250.74819,28.75637 L96.96204,43.10777 Z M95.28204,174.34307 C94.86834,174.34307 94.46724,174.19082 94.15644,173.90942 C93.80364,173.59232 93.60309,173.13872 93.60309,172.66412 L93.60309,41.57792 C93.60309,40.71062 94.26354,39.98612 95.12664,39.90527 L252.27174,25.23992 C252.74109,25.20107 253.20939,25.35227 253.55904,25.67147 C253.90869,25.98962 254.10714,26.44007 254.10714,26.91257 L254.10714,157.21967 C254.10714,158.05547 253.49184,158.76317 252.66444,158.88182 C222.19974,163.22357 217.99029,163.33172 211.01514,163.51232 C204.95874,163.66877 196.66479,163.88297 166.92144,166.98467 C136.86939,170.11787 95.86269,174.29267 95.45319,174.33467 C95.39544,174.33992 95.33874,174.34307 95.28204,174.34307 L95.28204,174.34307 Z" id="Fill-8" fill="#0086FF"></path>
                    <path d="M7.0014,141.694895 C9.303,142.714445 15.69435,145.191395 33.4047,151.121795 C49.7469,156.592295 60.1524,159.787445 69.33255,162.606695 C76.965,164.949245 84.20265,167.173145 93.6033,170.326295 L93.6033,42.914045 L7.0014,22.930445 L7.0014,141.694895 Z M95.28225,174.343595 C95.1006,174.343595 94.91895,174.313145 94.74255,174.254345 C84.28665,170.712695 76.8999,168.444695 68.3466,165.817595 C59.14755,162.992045 48.72,159.790595 32.33895,154.306445 C2.3856,144.277895 2.5137,143.758145 2.99355,141.821945 C3.05655,141.563645 3.22245,141.139445 3.64245,140.834945 L3.64245,20.818895 C3.64245,20.307545 3.87555,19.823495 4.2756,19.504295 C4.6767,19.186145 5.2017,19.068545 5.6994,19.181945 L95.66025,39.941495 C96.4215,40.117895 96.96225,40.795145 96.96225,41.577395 L96.96225,172.663595 C96.96225,173.205395 96.7008,173.712545 96.26085,174.028595 C95.9721,174.235445 95.62875,174.343595 95.28225,174.343595 L95.28225,174.343595 Z" id="Fill-10" fill="#0086FF"></path>
                    <path d="M64.553475,17.867765 L95.746875,39.851615 L246.825075,25.750115 L211.145025,6.142415 L64.553475,17.867765 Z M95.285925,43.262015 C94.939425,43.262015 94.602375,43.154915 94.318875,42.955415 L58.821525,17.937065 C58.242975,17.529665 57.981525,16.803065 58.168425,16.121615 C58.355325,15.439115 58.949625,14.946665 59.654175,14.889965 L211.379175,2.753015 C211.714125,2.730965 212.034375,2.798165 212.322075,2.956715 L253.237425,25.442465 C253.883175,25.797365 254.223375,26.533415 254.073225,27.254765 C253.923075,27.977165 253.319325,28.517915 252.584325,28.586165 L95.441325,43.254665 C95.388825,43.258865 95.337375,43.262015 95.285925,43.262015 L95.285925,43.262015 Z" id="Fill-12" fill="#0086FF"></path>
                    <path d="M5.32182,22.49837 C4.62567,22.49837 3.97572,22.06262 3.73422,21.36857 C3.43077,20.49182 3.89592,19.53527 4.77267,19.23182 L28.43967,11.03552 C28.58667,10.98512 28.74102,10.95467 28.89642,10.94627 L178.03527,2.75102 C178.98342,2.69432 179.75307,3.41042 179.80452,4.33547 C179.85597,5.26157 179.14617,6.05432 178.22007,6.10472 L29.31642,14.28737 L5.87097,22.40597 C5.69037,22.46897 5.50452,22.49837 5.32182,22.49837" id="Fill-14" fill="#0086FF"></path>
                    <path d="M8.24313,23.1731 C7.34328,23.1731 6.59778,22.45805 6.56523,21.5519 C6.53373,20.62475 7.25928,19.8467 8.18538,19.8152 L63.98658,17.8853 C64.00653,17.8853 64.02648,17.88425 64.04643,17.88425 C64.94628,17.88425 65.69178,18.5993 65.72328,19.50545 C65.75478,20.4326 65.03028,21.21065 64.10313,21.24215 L8.30298,23.17205 C8.28198,23.17205 8.26308,23.1731 8.24313,23.1731" id="Fill-16" fill="#0086FF"></path>
                </g>
                <path d="M154.935,545.4675 C142.540655,545.4675 132.4675,555.540655 132.4675,567.935 C132.4675,555.540655 122.413519,545.4675 110,545.4675 C122.413519,545.4675 132.4675,535.413519 132.4675,523 C132.4675,535.413519 142.540655,545.4675 154.935,545.4675 Z" id="Path" fill="#8FFFE9" fill-rule="nonzero"></path>
                <path d="M474.755,493.3775 C463.514078,493.3775 454.3775,502.512969 454.3775,513.755 C454.3775,502.514078 445.25868,493.3775 434,493.3775 C445.25868,493.3775 454.3775,484.25868 454.3775,473 C454.37861,484.25868 463.514078,493.3775 474.755,493.3775 Z" id="Path" fill="#8FFFE9" fill-rule="nonzero"></path>
                <path d="M368.755,452.3775 C357.512889,452.3775 348.3775,461.513995 348.3775,472.755 C348.3775,461.512889 339.25869,452.3775 328,452.3775 C339.25869,452.3775 348.3775,443.25869 348.3775,432 C348.3775,443.25869 357.512889,452.3775 368.755,452.3775 Z" id="Path" fill="#8FFFE9" fill-rule="nonzero"></path>
                <path d="M239.99,443.495 C233.648723,443.495 228.495,448.648723 228.495,454.99 C228.495,448.648723 223.351119,443.495 217,443.495 C223.351119,443.495 228.495,438.351119 228.495,432 C228.495,438.351119 233.648723,443.495 239.99,443.495 Z" id="Path" fill="#8FFFE9" fill-rule="nonzero"></path>
            </g>
        </g>
    </g>
</svg>