<?xml version="1.0" encoding="utf-8"?>
<!-- Generator: Adobe Illustrator 22.0.0, SVG Export Plug-In . SVG Version: 6.00 Build 0)  -->
<svg version="1.1" id="Layer_1" xmlns="http://www.w3.org/2000/svg" xmlns:xlink="http://www.w3.org/1999/xlink" x="0px" y="0px"
	 viewBox="0 0 572 572" style="enable-background:new 0 0 572 572;" xml:space="preserve">
<style type="text/css">
	.st0{filter:url(#Adobe_OpacityMaskFilter);}
	.st1{fill:#FFFFFF;}
	.st2{mask:url(#mask-2_1_);}
	.st3{opacity:0.1204;fill:#0086FF;enable-background:new    ;}
	.st4{fill:none;stroke:#0086FF;stroke-width:2.0474;stroke-linecap:round;stroke-linejoin:round;}
	.st5{fill:#8FFFE9;}
	.st6{fill:#0086FF;}
</style>
<title>68E18E05-8501-40CC-8348-0B9999080D02</title>
<desc>Created with sketchtool.</desc>
<g id="Landing---Design">
	<g id="_x30_6-Items-Download" transform="translate(-134.000000, -220.000000)">
		<g id="Image" transform="translate(135.000000, 221.000000)">
			<defs>
				<filter id="Adobe_OpacityMaskFilter" filterUnits="userSpaceOnUse" x="86" y="72" width="398.8" height="427.6">
					<feColorMatrix  type="matrix" values="1 0 0 0 0  0 1 0 0 0  0 0 1 0 0  0 0 0 1 0"/>
				</filter>
			</defs>
			<mask maskUnits="userSpaceOnUse" x="86" y="72" width="398.8" height="427.6" id="mask-2_1_">
				<g class="st0">
					<rect id="path-1_2_" class="st1" width="570" height="570"/>
				</g>
			</mask>
			<g id="Group-101" class="st2">
				<g transform="translate(86.000000, 72.000000)">
					<path id="Fill-1" class="st3" d="M100.4,225.1h65.5v-45.7h-65.5V225.1z M18.7,225.1h65.5v-45.7H18.7V225.1z M18.7,165.8h65.5
						V15H18.7V165.8z M100.4,165.8h65.5V15h-65.5V165.8z M0,240.1h184.6V0H0V240.1z"/>
					<path id="Fill-3" class="st3" d="M306.8,225.1h65.5v-45.7h-65.5V225.1z M225,225.1h65.5v-45.7H225V225.1z M225,165.8h65.5V15
						H225V165.8z M306.8,165.8h65.5V15h-65.5V165.8z M206.3,240.1h184.6V0H206.3V240.1z"/>
					<path id="Fill-5" class="st1" d="M241.1,154.5c0,0-1.4,31.8,0,44.9c1.4,13.1,0,43.7,0,43.7H104.2c0,0-3.3-64.6-1.9-88.3
						c2-32.7,1.9-98,1.9-98c63.9,3.5,100.9,1.9,136.9,0v51.9"/>
					<path id="Stroke-7" class="st4" d="M237,153.5c0,0-1.3,30,0,42.4s0,41.3,0,41.3H109.5c0,0-3.1-61-1.7-83.3
						c1.9-30.8,1.7-92.5,1.7-92.5c59.5,3.3,93.9,1.8,127.5,0V103"/>
					<polyline id="Stroke-9" class="st4" points="133.4,414.7 167.7,237.1 178.8,237.1 213.1,414.7 					"/>
					<path id="Fill-11" class="st5" d="M202.5,125.1c-5,15.1-21.4,32.4-38.1,32.4c-16.8,0-20.3-10.7-20.3-27.4l29.2-4.9l4.5-26.9
						C194.6,99.4,207.7,109.3,202.5,125.1"/>
					<path id="Stroke-13" class="st4" d="M202.5,125.1c0,16.1-13.1,29.2-29.2,29.2c-16.1,0-29.2-13.1-29.2-29.2h29.2V95.9
						C189.4,95.9,202.5,109,202.5,125.1z"/>
					<path id="Stroke-15" class="st4" d="M166.2,89.1v29.2H137C137,102.2,150.1,89.1,166.2,89.1z"/>
					<line id="Stroke-17" class="st4" x1="133.4" y1="179.9" x2="169.1" y2="179.9"/>
					<path id="Stroke-19" class="st4" d="M133.4,189.4c0,0-1,0.6,28.4,0c29.5-0.6,40.7,0,51.2,0"/>
					<path id="Stroke-21" class="st4" d="M133.4,198.2c0,0,40.6-0.3,61.6,0l21.1,0.3"/>
					<path id="Stroke-23" class="st4" d="M133.5,207.9c0,0,10,0.8,22.6,0l12.6-0.8h47.4"/>
					<path id="Stroke-25" class="st4" d="M133.4,215.4c11.6,1.4,74.3-0.8,82.7,0"/>
					<path id="Fill-27" class="st1" d="M390.9,159.3c-6-10.4-13.9-19.4-22.3-27.9c-7.7-7.9-16.9-18.7-28.4-20.6
						c-6.4-1-12.4,2.1-18,4.8c-1.8,0.9-3.7,1.8-5.5,2.7c-0.4,0.2-1.6,1.1-2.2,1.1c-1.9,0.3-2.5-0.9-3.6-2.1c-2.7-3-5.4-6.1-8.1-9.1
						c-0.4-0.4-0.9-0.6-1.3-0.5c-0.1-0.1-0.3-0.1-0.4-0.1c-6-1-12.4-1.4-17.9,1.7c-2.7,1.6-5,3.9-7.4,5.9c-2.8,2.3-5.8,4.3-9.1,5.9
						c-3.2,1.5-7.9,3.8-11.3,2c-3.4-1.9-6.6-4.1-9.9-6.2c-5.2-3.3-10.5-6.4-14.9-10.7c-0.1-0.3-0.2-0.5-0.5-0.8
						c-3.5-3-4.6-6.5-5.5-10.9c-0.6-3.1-1.7-5.9-4.7-7.5c-0.4-0.2-1-0.3-1.5-0.1c-1.3-3.8-3.2-7.8-7.3-7.5c-3.7,0.3-11,1.1-11.4,5.9
						c-0.5,5.3,2.4,11.8,4.7,16.4c1.4,2.7,3,5.3,4.9,7.6c1.9,2.2,4.7,1,6.4,3.3c0.6,0.8,1.5,0.8,2.2,0.5c0.1,0.1,0.2,0.2,0.3,0.3
						c9.3,9.2,15,21.1,23.2,31.1c3.2,3.9,7.8,10.4,13.4,9.8c6.4-0.7,13.1-3.5,19-6.3c-3.9,15.8-5.2,32-6,48.2
						c-0.6,3.9-1.1,7.9-1.6,11.8c-0.2,1.9-0.4,3.9-0.3,5.8c-0.5,1.2-1,2.4-1.6,3.6c-0.8,1.6-1.7,3.7-0.1,5.2
						c0.9,0.9,2.7,1.3,3.8,1.7c2,0.7,4,1.5,5.9,2.2c0,0,0.1,0,0.1,0c-0.1,3.5-0.1,7.1-0.2,10.6c0,0.1,0,0.3,0,0.4
						c-1.1,25.7-1.8,51.4-2,77c0,0.8,0.5,1.3,1.1,1.5c3,17.8,9.1,34.9,14.5,52.2c2.8,9,5.5,18,7.4,27.2c0.6,2.7,1.3,5.7-0.2,8.2
						c-1.1,1.9-3,3.3-4.5,4.8c-3.1,3.2-5.7,6.8-7.8,10.7c-0.7,1.3,0.5,2.6,1.8,2.4l28.4-4.5c0.7-0.1,1.2-0.9,1.2-1.5
						c0-4.1,0-8.2,0-12.3c0.1-0.2,0.1-0.5,0.1-0.8c0-0.2-0.1-0.5-0.1-0.7l0-1.3c0-0.4-0.1-0.7-0.3-0.9c-1.9-14.4-3.5-28.9-4.8-43.4
						c-0.7-7.5-1.2-15.1-1.7-22.6c-0.4-6,0.1-12.9-2.8-18.3c2.3-10.2,4.4-20.5,6.4-30.7c1.5,7.8,3.8,15.4,6.9,22.7
						c0,0.1,0.1,0.2,0.1,0.3c2.1,5.7,3,11.7,4,17.6l3.2,18c-0.2,0.3-0.3,0.7-0.2,1.1c1,6.5,2,13,3,19.5l0.8,5.2
						c-0.1,0.2-0.1,0.4-0.1,0.6c0.4,4.9,0.9,9.8,1.4,14.7c0.1,0.7,0.6,1.2,1.1,1.4c0.1,0.3,0.2,0.5,0.3,0.8
						c0.8,5.1,1.5,10.2,2.3,15.3c0.6,4.4,1,8.7,1.1,13.1c0.1,3.3,0.4,6.9,2.5,9.6c3.3,4.2,8.2,3.7,13.1,3c1.6,0.1,3.2-0.1,4.7-0.6
						c0.9-0.1,1.7-0.1,2.5,0c1.4,0.1,1.9-1.4,1.3-2.4c0.1-0.4,0-0.7-0.1-1.1c0.4-0.4,0.5-0.9,0.4-1.5c-0.5-3.8-1.1-7.7-1.8-11.5
						c-0.5-4.6-1.2-9.1-2.2-13.6c-0.1-0.3-0.2-0.5-0.3-0.7c-0.2-1.2-0.4-2.4-0.7-3.6c-0.1-0.3-0.2-0.6-0.4-0.8
						c-1.1-26.4-2.3-52.8-3.4-79.1c0.1-0.2,0.1-0.3,0.1-0.5c1.5-27.4,3.7-54.7,6.6-81.9c3.4,0.7,6.9,1.5,10.2,1.7
						c1.8,0.1,2.8-0.7,2.8-2.5c-0.1-3.5-1.8-7.5-2.7-10.9c-0.8-3.1-1.4-6.4-2.7-9.3c4.5-3.9,9.3-7.5,14.2-10.9
						c2.7-1.8,5.4-3.5,8.3-5.2c2.6-1.5,5.5-2.7,7.8-4.6C403.6,181.1,395,166.3,390.9,159.3"/>
					<path id="Fill-29" class="st1" d="M340.6,78.1c-0.8-0.6-2.5-1.4-3.3-2c-1.9-1.4-1.5-2-0.4-4c1-1.8,0.9-2.7,1.1-4.8
						c0.5-4.4-2.9-7.9-6.6-9.6c-2.4-1-4.9-1.4-7.3-2.2c-0.9-0.3-1.7-0.8-2.4-1.3c-4.5-7.5-12.5-14.3-21.6-14.6
						c-9.4-0.3-14.5,8.8-13.2,17.3c1.8,12,12.7,20.1,14,32.4c0.8,7.6-0.6,23.3,9.9,25.1c4.6,0.8,8.6-2.5,11.5-5.7
						c1.8-2,3.6-4.2,5.9-5.6c2.3-1.4,4.9-2.2,7.2-3.6C342.4,95.2,348.3,84.1,340.6,78.1"/>
					<path id="Stroke-31" class="st4" d="M301.7,72.3c-0.2,2.6,2.5,36,10.6,37.3c5.2,0.8,9.5-5.3,11.9-9.9h0c1.4-2.7,2.2-5,2.2-5
						s6.1,0,7.2-7.4c1.1-7.4-7.3-7.3-10-0.9c0.2-0.5,4.1-10.8-1.4-15.7c-5.6-5-6.4,2.6-7.5,2.9c0,0-0.2-0.7-0.2-0.7
						c-0.3,0.1-1,0.1-2.1,0.1C310,73.1,306,72.6,301.7,72.3z"/>
					<path id="Fill-33" class="st6" d="M294.9,72.9c2.1,0.6,4.5,0.9,6.9,1.2c4.3,0.4,8.6,0.3,11.1,0.2c1.2,0,2-0.1,2.1-0.1
						c0,0,0,0,0,0c1.1-0.3,1.9-7.9,7.5-2.9c5.5,4.9,1.6,15.2,1.4,15.7c2.7-6.4,11-6.5,10,0.9c-1.1,7.4-7.2,7.4-7.2,7.4
						s-0.8,2.2-2.2,5c10.4,1.5,18.1-8.1,16.2-15.6c-1.9-7.5-8.9-9.5-9-9.5c0.1-0.1,6.7-6.4,0.2-14.2c-4.2-5-13-2.6-13-2.6
						s0.8-14.6-16.6-14.3C284.8,44.2,292.7,72.3,294.9,72.9"/>
					<polyline id="Stroke-35" class="st4" points="327.1,115.3 311.2,124.8 304.8,117.2 					"/>
					<path id="Stroke-37" class="st4" d="M294.3,115.3c0,0-12.9,26.2-23.5,101.8c0,0,9.9,4.9,37.2,5.1"/>
					<path id="Stroke-39" class="st4" d="M289.4,109.6c0,0-22.6,16.8-32.8,19.1"/>
					<path id="Stroke-41" class="st4" d="M279.2,143.2c0,0-18.8,5.8-29.4,5.4"/>
					<path id="Stroke-43" class="st4" d="M249.8,126.1c0,0-19.2-16.4-24.5-21.3"/>
					<line id="Stroke-45" class="st4" x1="245.3" y1="144.5" x2="220" y2="113.1"/>
					<path id="Stroke-47" class="st4" d="M340.9,113.1c0,0,28.7,10.6,51.7,56.9"/>
					<line id="Stroke-49" class="st4" x1="392.6" y1="184" x2="338.7" y2="222"/>
					<line id="Stroke-51" class="st4" x1="369.1" y1="178" x2="333.7" y2="210.3"/>
					<path id="Stroke-53" class="st4" d="M369.1,174.1c0,0-19.6-19.6-28.2-23.4"/>
					<path id="Stroke-55" class="st4" d="M279.3,236.6c0,0-7,53.3-4,74.8"/>
					<polyline id="Stroke-57" class="st4" points="276.8,316.6 300.8,401.4 309.3,398.8 300.8,314.3 					"/>
					<line id="Stroke-59" class="st4" x1="300.3" y1="310.2" x2="308" y2="277"/>
					<polygon id="Fill-61" class="st6" points="352.5,407.5 341.4,407.5 339,419 345.1,422.4 357.1,420.6 					"/>
					<path id="Stroke-63" class="st4" d="M309.3,246c0,0,4.2,35.4,12.7,60.5"/>
					<path id="Stroke-65" class="st4" d="M323.6,311.3c0.2,7.6,16.4,92.9,16.4,92.9l11.9-0.4l-5.1-92.2"/>
					<path id="Stroke-67" class="st4" d="M347.2,307.4c0,0,3.9-48.5,5.7-66.3"/>
					<polyline id="Stroke-69" class="st4" points="352.8,224.6 366.8,226.6 363.2,212.2 					"/>
					<path id="Fill-71" class="st6" d="M311.9,402.5c-4.3,0.8-7.9,1.6-13,3.1l-13,12l25.5-2.7L311.9,402.5z"/>
					<path id="Stroke-73" class="st4" d="M213.8,105.9c3-1.2,6-2.7,8.8-4.4"/>
					<path id="Stroke-75" class="st4" d="M210.8,103c-6.4-8.4-7.3-16.3-7.2-16.7c0.1-0.5,7.2-3.5,9.1-4c0,0,2.2,8.3,5.5,12.7
						c0.7,0.9,0-2.2,0.1-3.3c2.2-0.8,3.1,0.6,2.9,3.4"/>
					<path id="Stroke-77" class="st4" d="M335.4,222.2c-1.4-3-3-5.9-4.8-8.6"/>
					<path id="Stroke-79" class="st4" d="M332.6,225.3c-8,6.8-15.9,8-16.4,8c-0.5-0.1-3.8-7-4.4-8.9c0,0,8.1-2.6,12.4-6.1
						c0.9-0.7-2.2,0.1-3.3,0.1c-0.9-2.2,0.5-3.1,3.3-3.1"/>
					<path id="Fill-81" class="st6" d="M307.3,84.2c0.1,1.7,0.9,3,1.7,2.9c0.8-0.1,1.4-1.5,1.2-3.1c-0.1-1.7-0.9-3-1.7-2.9
						C307.7,81.1,307.1,82.5,307.3,84.2"/>
					<path id="Fill-83" class="st6" d="M314.6,84.2c0.1,1.7,0.9,3,1.7,2.9c0.8-0.1,1.4-1.5,1.2-3.1c-0.1-1.7-0.9-3-1.7-2.9
						C315,81.1,314.4,82.5,314.6,84.2"/>
					<path id="Fill-85" class="st5" d="M75.4,73.9h6.9c1.2,0,2.1-0.9,2.1-2.1V36.6c0-1.2-0.9-2.1-2.1-2.1h-6.9
						c-1.2,0-2.1,0.9-2.1,2.1v35.1C73.4,72.9,74.3,73.9,75.4,73.9"/>
					<path id="Fill-87" class="st5" d="M56.8,75.2h6.5c1.3,0,2.3-1,2.3-2.3V46.3c0-1.3-1-2.3-2.3-2.3h-6.5c-1.3,0-2.3,1-2.3,2.3
						v26.6C54.5,74.1,55.5,75.2,56.8,75.2"/>
					<path id="Fill-89" class="st5" d="M41.2,76.8h6.3c1.3,0,2.4-1.1,2.4-2.4V58.5c0-1.3-1.1-2.4-2.4-2.4h-6.3
						c-1.3,0-2.4,1.1-2.4,2.4v15.9C38.8,75.7,39.9,76.8,41.2,76.8"/>
					<path id="Stroke-91" class="st4" d="M74.8,76.8h11c0.5,0,0.3-14.9,0.1-26.1c-0.1-4.3-0.1-13.2-0.1-13.2h-11V76.8z"/>
					<path id="Stroke-93" class="st4" d="M56.9,76.8h11c-1.3-10.3,0.9-20.7,0-29.9l-12.1,0.3L56.9,76.8z"/>
					<path id="Stroke-95" class="st4" d="M41.2,79.1h11c0,0-0.8-9.3-0.3-13c0.5-3.6,0.3-7.1,0.3-7.1h-11V79.1z"/>
					<path id="Fill-97" class="st5" d="M80.9,272.2c-6.5,0.2-11.9-4.9-12.1-11.4c-0.2-6.5,4.9-11.9,11.4-12.1l0.4,11.8l11.8-0.4
						C92.5,266.6,87.4,272,80.9,272.2"/>
					<path id="Fill-99" class="st5" d="M244.7,49.9l11.8-0.4c-0.2-6.5-5.7-11.6-12.1-11.4L244.7,49.9z"/>
				</g>
			</g>
		</g>
	</g>
</g>
</svg>
