<?xml version="1.0" encoding="UTF-8"?>
<svg width="572px" height="572px" viewBox="0 0 572 572" version="1.1" xmlns="http://www.w3.org/2000/svg" xmlns:xlink="http://www.w3.org/1999/xlink">
    <!-- Generator: sketchtool 61 (101010) - https://sketch.com -->
    <title>68E18E05-8501-40CC-8348-0B9999080D02</title>
    <desc>Created with sketchtool.</desc>
    <defs>
        <rect id="path-1" x="0" y="0" width="570" height="570"></rect>
    </defs>
    <g id="Landing---Design" stroke="none" stroke-width="1" fill="none" fill-rule="evenodd">
        <g id="06-Items-Download" transform="translate(-134.000000, -220.000000)">
            <g id="Image" transform="translate(135.000000, 221.000000)">
                <mask id="mask-2" fill="white">
                    <use xlink:href="#path-1"></use>
                </mask>
                <use id="Mask" stroke-opacity="0.5" stroke="#979797" stroke-width="2" fill="#FFFFFF" xlink:href="#path-1"></use>
                <g id="Group-101" mask="url(#mask-2)">
                    <g transform="translate(86.000000, 72.000000)">
                        <path d="M100.42624,225.06816 L165.9168,225.06816 L165.9168,179.35872 L100.42624,179.35872 L100.42624,225.06816 Z M18.65536,225.06816 L84.14528,225.06816 L84.14528,179.35872 L18.65536,179.35872 L18.65536,225.06816 Z M18.65536,165.76448 L84.14528,165.76448 L84.14528,15.04064 L18.65536,15.04064 L18.65536,165.76448 Z M100.42624,165.76448 L165.9168,165.76448 L165.9168,15.04064 L100.42624,15.04064 L100.42624,165.76448 Z M0,240.1088 L184.57216,240.1088 L184.57216,0.00064 L0,0.00064 L0,240.1088 Z" id="Fill-1" stroke="none" fill="#0086FF" fill-rule="evenodd" opacity="0.120372954"></path>
                        <path d="M306.75392,225.06816 L372.24448,225.06816 L372.24448,179.35872 L306.75392,179.35872 L306.75392,225.06816 Z M224.98368,225.06816 L290.47424,225.06816 L290.47424,179.35872 L224.98368,179.35872 L224.98368,225.06816 Z M224.98368,165.76448 L290.47424,165.76448 L290.47424,15.04064 L224.98368,15.04064 L224.98368,165.76448 Z M306.75392,165.76448 L372.24448,165.76448 L372.24448,15.04064 L306.75392,15.04064 L306.75392,165.76448 Z M206.32832,240.1088 L390.89984,240.1088 L390.89984,0.00064 L206.32832,0.00064 L206.32832,240.1088 Z" id="Fill-3" stroke="none" fill="#0086FF" fill-rule="evenodd" opacity="0.120372954"></path>
                        <path d="M241.10848,154.464064 C241.10848,154.464064 239.72096,186.252864 241.10848,199.358784 C242.496,212.464704 241.10848,243.077184 241.10848,243.077184 L104.20416,243.077184 C104.20416,243.077184 100.8704,178.453184 102.34112,154.789184 C104.36992,122.133184 104.20416,56.813504 104.20416,56.813504 C168.06848,60.350784 205.05472,58.672704 241.10848,56.813504 L241.10848,108.693824" id="Fill-5" stroke="none" fill="#FFFFFF" fill-rule="evenodd"></path>
                        <path d="M236.972864,153.491904 C236.972864,153.491904 235.680704,183.496384 236.972864,195.866944 C238.265024,208.237504 236.972864,237.131584 236.972864,237.131584 L109.495744,237.131584 C109.495744,237.131584 106.392384,176.134464 107.760704,153.799104 C109.650624,122.975424 109.495744,61.322304 109.495744,61.322304 C168.962624,64.660544 203.402304,63.076544 236.972864,61.322304 L236.972864,102.961344" id="Stroke-7" stroke="#0086FF" stroke-width="2.04736" fill="none" stroke-linecap="round" stroke-linejoin="round"></path>
                        <polyline id="Stroke-9" stroke="#0086FF" stroke-width="2.04736" fill="none" stroke-linecap="round" stroke-linejoin="round" points="133.382848 414.712512 167.661248 237.131072 178.808128 237.131072 213.086528 414.712512"></polyline>
                        <path d="M202.472256,125.13312 C197.498816,140.20384 181.118656,157.49216 164.342976,157.49216 C147.569216,157.49216 143.997376,146.74336 143.997376,130.0464 L173.233216,125.13312 L177.768896,98.24288 C194.599616,99.37632 207.703616,109.28096 202.472256,125.13312" id="Fill-11" stroke="none" fill="#8FFFE9" fill-rule="evenodd"></path>
                        <path d="M202.472256,125.13312 C202.472256,141.27968 189.382336,154.37152 173.233216,154.37152 C157.087296,154.37152 143.997376,141.27968 143.997376,125.13312 L173.233216,125.13312 L173.233216,95.89472 C189.382336,95.89472 202.472256,108.98656 202.472256,125.13312 Z" id="Stroke-13" stroke="#0086FF" stroke-width="2.04736" fill="none" stroke-linecap="round" stroke-linejoin="round"></path>
                        <path d="M166.197248,89.126912 L166.197248,118.365312 L136.960768,118.365312 C136.960768,102.218752 150.050688,89.126912 166.197248,89.126912 Z" id="Stroke-15" stroke="#0086FF" stroke-width="2.04736" fill="none" stroke-linecap="round" stroke-linejoin="round"></path>
                        <line x1="133.382848" y1="179.899712" x2="169.129408" y2="179.899712" id="Stroke-17" stroke="#0086FF" stroke-width="2.04736" fill="none" stroke-linecap="round" stroke-linejoin="round"></line>
                        <path d="M133.3872,189.4272 C133.3872,189.4272 132.34144,190.01664 161.83264,189.4272 C191.32448,188.83712 202.51232,189.46624 212.98272,189.4272" id="Stroke-19" stroke="#0086FF" stroke-width="2.04736" fill="none" stroke-linecap="round" stroke-linejoin="round"></path>
                        <path d="M133.382848,198.230336 C133.382848,198.230336 173.943488,197.955136 195.011648,198.230336 L216.079808,198.506176" id="Stroke-21" stroke="#0086FF" stroke-width="2.04736" fill="none" stroke-linecap="round" stroke-linejoin="round"></path>
                        <path d="M133.491584,207.870656 C133.491584,207.870656 143.499264,208.696896 156.139904,207.870656 L168.780544,207.044416 L216.183424,207.044416" id="Stroke-23" stroke="#0086FF" stroke-width="2.04736" fill="none" stroke-linecap="round" stroke-linejoin="round"></path>
                        <path d="M133.3872,215.350656 C144.9744,216.727296 207.65216,214.523776 216.07968,215.350656" id="Stroke-25" stroke="#0086FF" stroke-width="2.04736" fill="none" stroke-linecap="round" stroke-linejoin="round"></path>
                        <path d="M390.912832,159.328448 C384.936512,148.973248 376.976192,139.891008 368.643392,131.381568 C360.949312,123.523648 351.776832,112.653248 340.286912,110.811328 C333.865152,109.781568 327.897152,112.959808 322.279232,115.638208 C320.446272,116.511808 318.626752,117.411008 316.820032,118.338368 C316.432192,118.537408 315.195072,119.388608 314.659392,119.462208 C312.736832,119.727168 312.164032,118.518848 311.108032,117.328448 C308.418112,114.296768 305.726912,111.264448 303.036992,108.232768 C302.644032,107.789888 302.179392,107.668288 301.746752,107.745728 C301.616832,107.683648 301.474752,107.631168 301.305152,107.603648 C295.289152,106.617408 288.899392,106.178368 283.410112,109.330368 C280.676032,110.900928 278.436032,113.192128 276.051392,115.217728 C273.291712,117.562688 270.223552,119.544768 266.949952,121.096768 C263.739712,122.618688 259.042112,124.932928 255.647552,123.057088 C252.259392,121.185088 249.036992,118.907328 245.760832,116.844608 C240.562752,113.571648 235.255232,110.401088 230.849472,106.128448 C230.788032,105.859648 230.637632,105.594048 230.364992,105.356608 C226.878912,102.328128 225.730112,98.847808 224.856512,94.458048 C224.232512,91.322688 223.118272,88.543168 220.199232,86.941248 C219.760832,86.700608 219.159872,86.671168 218.680512,86.878528 C217.416512,83.107008 215.488192,79.084608 211.417152,79.391168 C207.675712,79.673408 200.449472,80.463168 200.030272,85.279808 C199.567552,90.587968 202.402112,97.044928 204.769472,101.655488 C206.137152,104.317248 207.758912,106.986048 209.718592,109.258688 C211.596992,111.438528 214.434752,110.214208 216.082752,112.550848 C216.641472,113.343168 217.557312,113.395008 218.241472,113.055168 C218.311872,113.171008 218.394432,113.284928 218.504512,113.393728 C227.802432,122.552768 233.490752,134.474688 241.688512,144.515648 C244.843072,148.379968 249.529152,154.875328 255.127872,154.299328 C261.532352,153.639488 268.202432,150.812608 274.092352,147.981888 C270.189632,163.747008 268.871232,179.960768 268.085952,196.170688 C267.529152,200.109248 266.982592,204.048448 266.476992,207.992768 C266.235072,209.880128 266.051392,211.856448 266.204352,213.784768 C265.714752,215.002048 265.186752,216.209728 264.613952,217.407808 C263.836352,219.032768 262.915392,221.092928 264.470592,222.610368 C265.365952,223.484608 267.163712,223.860928 268.265792,224.267968 C270.247872,225.001408 272.229952,225.734208 274.210752,226.467648 C274.250432,226.481728 274.286272,226.485568 274.324032,226.497728 C274.251072,230.033088 274.177472,233.569088 274.103232,237.105728 C274.100032,237.247808 274.116032,237.377088 274.141632,237.499328 C273.054912,263.167168 272.381632,288.850368 272.133952,314.540608 C272.126272,315.347008 272.613312,315.833408 273.208512,316.008768 C276.245952,333.844288 282.265152,350.948928 287.675712,368.173248 C290.494272,377.142848 293.162432,386.181568 295.091392,395.390528 C295.662272,398.115008 296.385472,401.048128 294.858432,403.606208 C293.742912,405.474368 291.895232,406.882368 290.400192,408.426048 C287.317312,411.611328 284.740032,415.213888 282.622272,419.101248 C281.903552,420.420288 283.083072,421.665088 284.428992,421.451968 L312.802752,416.959808 C313.486272,416.851648 313.976512,416.061888 313.977792,415.416768 C313.983552,411.305408 313.989952,407.194048 313.995072,403.082688 C314.085312,402.872128 314.126912,402.622528 314.087232,402.323008 C314.055872,402.088768 314.028352,401.853888 313.997632,401.619648 L313.999552,400.303168 C314.000192,399.921088 313.889472,399.611328 313.710912,399.370688 C311.831872,384.936128 310.231232,370.467008 308.955712,355.967168 C308.293952,348.431808 307.714752,340.890048 307.218112,333.342528 C306.824512,327.368128 307.303232,320.486208 304.415552,315.035328 C306.685632,304.815168 308.824512,294.566848 310.839872,284.292928 C312.310592,292.088768 314.617152,299.669568 317.759552,307.021248 C317.799232,307.114688 317.844032,307.198528 317.892032,307.274688 C319.955392,312.945728 320.860352,318.935488 321.926592,324.858688 L325.169472,342.867648 C324.990272,343.174208 324.899392,343.545408 324.964672,343.971648 C325.963072,350.458688 326.978752,356.943808 327.993152,363.429568 L328.800832,368.618688 C328.736192,368.804928 328.704832,369.018048 328.724032,369.263168 C329.109312,374.184768 329.579072,379.098688 330.133312,384.004288 C330.216512,384.737088 330.689472,385.203008 331.247552,385.408448 C331.338432,385.667008 331.434432,385.924288 331.522752,386.183488 C332.299072,391.272128 333.063232,396.361408 333.804992,401.454528 C334.441792,405.829568 334.773952,410.151488 334.911552,414.565568 C335.015232,417.889728 335.271232,421.461568 337.419072,424.170688 C340.739392,428.356928 345.659072,427.854528 350.498752,427.132608 C352.103872,427.214528 353.688512,427.002688 355.220672,426.506048 C356.092992,426.435008 356.942272,426.409408 357.756352,426.458688 C359.182272,426.545728 359.608512,425.042368 359.057472,424.067008 C359.131072,423.707968 359.068992,423.333568 358.911552,423.003968 C359.268672,422.649408 359.427392,422.135488 359.334592,421.490368 C358.785472,417.649088 358.187712,413.815488 357.564992,409.985728 C357.088192,405.423168 356.363712,400.886848 355.403712,396.395968 C355.341632,396.106048 355.220032,395.882688 355.066432,395.706048 C354.842432,394.507968 354.625472,393.308608 354.393792,392.111808 C354.330432,391.780928 354.188992,391.534528 354.007872,391.350208 C352.875712,364.969408 351.744192,338.588608 350.612672,312.207808 C350.675392,312.047808 350.722112,311.875008 350.732992,311.676608 C352.235712,284.317888 354.439872,257.003328 357.330752,229.755968 C360.702272,230.419648 364.220352,231.302208 367.566272,231.424448 C369.326272,231.488448 370.390592,230.725568 370.330432,228.875968 C370.217152,225.400128 368.496192,221.343808 367.653312,217.967168 C366.873792,214.843328 366.278592,211.600448 364.960832,208.653888 C369.485632,204.752448 374.213952,201.104448 379.170752,197.763008 C381.865792,195.946048 384.619712,194.216768 387.426752,192.576448 C389.993152,191.076928 392.896192,189.867968 395.205952,187.984448 C403.625792,181.121088 394.958912,166.338368 390.912832,159.328448" id="Fill-27" stroke="none" fill="#FFFFFF" fill-rule="evenodd"></path>
                        <path d="M340.590336,78.12096 C339.786496,77.504 338.063616,76.73536 337.252736,76.14336 C335.305216,74.72 335.748096,74.11904 336.894976,72.15168 C337.919616,70.39424 337.751936,69.45088 338.001536,67.33952 C338.523776,62.92352 335.110016,59.44192 331.363456,57.78752 C329.003136,56.7456 326.461056,56.39872 324.043136,55.55328 C323.149056,55.24096 322.381056,54.79936 321.680256,54.2848 C317.208576,46.7392 309.138176,39.98784 300.128896,39.67872 C290.715136,39.35616 285.639936,48.46144 286.939776,56.97024 C288.775296,68.98816 299.630976,77.08224 300.938496,89.37344 C301.744896,96.95232 300.355456,112.71232 310.864256,114.4736 C315.490816,115.24928 319.483776,111.93536 322.368896,108.75392 C324.218496,106.71424 325.940736,104.56896 328.315776,103.104 C330.589696,101.70176 333.197056,100.93824 335.466496,99.52128 C342.395136,95.19552 348.314496,84.0512 340.590336,78.12096" id="Fill-29" stroke="none" fill="#FFFFFF" fill-rule="evenodd"></path>
                        <path d="M301.684096,72.263744 C301.489536,74.845504 304.171776,108.279744 312.303616,109.547584 C317.545856,110.365504 321.788416,104.266944 324.213376,99.632704 L324.214656,99.632704 C325.644416,96.903744 326.441216,94.681664 326.441216,94.681664 C326.441216,94.681664 332.562176,94.688064 333.620096,87.305024 C334.678656,79.930304 326.367616,79.999424 323.666816,86.435904 C323.860096,85.934144 327.745536,75.598784 322.264576,70.721984 C316.647296,65.722944 315.883776,73.288384 314.750336,73.632704 C314.750336,73.632704 314.574976,72.938944 314.571136,72.940224 C314.315136,73.015104 313.535616,73.046464 312.472576,73.046464 C310.001536,73.142464 305.991936,72.647744 301.684096,72.263744 Z" id="Stroke-31" stroke="#0086FF" stroke-width="2.04736" fill="none" stroke-linecap="round" stroke-linejoin="round"></path>
                        <path d="M294.885376,72.901248 C296.975616,73.481728 299.394816,73.840768 301.813376,74.058368 C306.121216,74.442368 310.432896,74.370048 312.903296,74.274048 C314.152576,74.227328 314.932736,74.171008 315.002496,74.167808 C315.005056,74.166528 315.006336,74.166528 315.006336,74.166528 C316.140416,73.822208 316.903296,66.256768 322.521216,71.255808 C328.001536,76.132608 324.116736,86.467968 323.923456,86.969088 C326.624256,80.533248 334.934656,80.463488 333.877376,87.838848 C332.818816,95.221248 326.697216,95.215488 326.697216,95.215488 C326.697216,95.215488 325.900416,97.436928 324.471296,100.166528 C334.838656,101.648128 342.553216,92.076288 340.644736,84.547328 C338.745216,77.059328 331.728896,75.067648 331.629056,75.077248 C331.736576,74.961408 338.354176,68.641408 331.803776,60.881408 C327.588096,55.888128 318.827776,58.312448 318.827776,58.312448 C318.827776,58.312448 319.643776,43.758848 302.196736,43.986688 C284.750336,44.213888 292.717056,72.299008 294.885376,72.901248" id="Fill-33" stroke="none" fill="#0086FF" fill-rule="evenodd"></path>
                        <polyline id="Stroke-35" stroke="#0086FF" stroke-width="2.04736" fill="none" stroke-linecap="round" stroke-linejoin="round" points="327.056576 115.342528 311.224256 124.766528 304.815296 117.227328"></polyline>
                        <path d="M294.260352,115.342528 C294.260352,115.342528 281.326592,141.542208 270.799872,217.124288 C270.799872,217.124288 280.712192,222.024768 308.041472,222.202048" id="Stroke-37" stroke="#0086FF" stroke-width="2.04736" fill="none" stroke-linecap="round" stroke-linejoin="round"></path>
                        <path d="M289.359744,109.622208 C289.359744,109.622208 266.741504,126.443328 256.562944,128.705088" id="Stroke-39" stroke="#0086FF" stroke-width="2.04736" fill="none" stroke-linecap="round" stroke-linejoin="round"></path>
                        <path d="M279.181632,143.238144 C279.181632,143.238144 260.332992,149.061504 249.778112,148.684544" id="Stroke-41" stroke="#0086FF" stroke-width="2.04736" fill="none" stroke-linecap="round" stroke-linejoin="round"></path>
                        <path d="M249.777856,126.06656 C249.777856,126.06656 230.552256,109.68768 225.274816,104.7872" id="Stroke-43" stroke="#0086FF" stroke-width="2.04736" fill="none" stroke-linecap="round" stroke-linejoin="round"></path>
                        <line x1="245.25408" y1="144.538176" x2="219.99712" y2="113.080896" id="Stroke-45" stroke="#0086FF" stroke-width="2.04736" fill="none" stroke-linecap="round" stroke-linejoin="round"></line>
                        <path d="M340.936,113.08064 C340.936,113.08064 369.65408,123.63552 392.64992,170.00288" id="Stroke-47" stroke="#0086FF" stroke-width="2.04736" fill="none" stroke-linecap="round" stroke-linejoin="round"></path>
                        <line x1="392.649728" y1="183.950976" x2="338.743168" y2="222.025216" id="Stroke-49" stroke="#0086FF" stroke-width="2.04736" fill="none" stroke-linecap="round" stroke-linejoin="round"></line>
                        <line x1="369.092864" y1="177.992192" x2="333.713024" y2="210.339072" id="Stroke-51" stroke="#0086FF" stroke-width="2.04736" fill="none" stroke-linecap="round" stroke-linejoin="round"></line>
                        <path d="M369.092864,174.149696 C369.092864,174.149696 349.537664,154.547136 340.936064,150.777536" id="Stroke-53" stroke="#0086FF" stroke-width="2.04736" fill="none" stroke-linecap="round" stroke-linejoin="round"></path>
                        <path d="M279.29472,236.555648 C279.29472,236.555648 272.25088,289.844608 275.2672,311.331968" id="Stroke-55" stroke="#0086FF" stroke-width="2.04736" fill="none" stroke-linecap="round" stroke-linejoin="round"></path>
                        <polyline id="Stroke-57" stroke="#0086FF" stroke-width="2.04736" fill="none" stroke-linecap="round" stroke-linejoin="round" points="276.77472 316.609408 300.80224 401.383808 309.31168 398.821248 300.81824 314.336768"></polyline>
                        <line x1="300.33536" y1="310.20064" x2="308.0416" y2="277.00128" id="Stroke-59" stroke="#0086FF" stroke-width="2.04736" fill="none" stroke-linecap="round" stroke-linejoin="round"></line>
                        <polygon id="Fill-61" stroke="none" fill="#0086FF" fill-rule="evenodd" points="352.457856 407.45376 341.404416 407.45376 338.951296 419.04096 345.085696 422.44512 357.127296 420.632"></polygon>
                        <path d="M309.311616,246.002496 C309.311616,246.002496 313.465216,281.374016 321.971456,306.552256" id="Stroke-63" stroke="#0086FF" stroke-width="2.04736" fill="none" stroke-linecap="round" stroke-linejoin="round"></path>
                        <path d="M323.6416,311.28064 C323.81248,318.90688 340.04352,404.14528 340.04352,404.14528 L351.8976,403.77728 L346.75904,311.59488" id="Stroke-65" stroke="#0086FF" stroke-width="2.04736" fill="none" stroke-linecap="round" stroke-linejoin="round"></path>
                        <path d="M347.170368,307.37376 C347.170368,307.37376 351.092928,258.9008 352.824768,241.1152" id="Stroke-67" stroke="#0086FF" stroke-width="2.04736" fill="none" stroke-linecap="round" stroke-linejoin="round"></path>
                        <polyline id="Stroke-69" stroke="#0086FF" stroke-width="2.04736" fill="none" stroke-linecap="round" stroke-linejoin="round" points="352.824704 224.608128 366.792704 226.610688 363.245824 212.223488"></polyline>
                        <path d="M311.887232,402.47936 C307.573632,403.29984 303.957632,404.04864 298.934912,405.55584 L285.967232,417.58208 L311.500032,414.85952 L311.887232,402.47936 Z" id="Fill-71" stroke="none" fill="#0086FF" fill-rule="evenodd"></path>
                        <path d="M213.751616,105.86848 C216.799296,104.64416 219.742656,103.17664 222.552896,101.48128" id="Stroke-73" stroke="#0086FF" stroke-width="2.04736" fill="none" stroke-linecap="round" stroke-linejoin="round"></path>
                        <path d="M210.778496,102.9616 C204.393216,94.60512 203.499136,86.6544 203.593216,86.22816 C203.711616,85.69504 210.743296,82.77728 212.722176,82.26912 C212.722176,82.26912 214.895616,90.51936 218.233856,94.94176 C218.903296,95.82816 218.276096,92.72032 218.297216,91.60992 C220.486656,90.85344 221.416576,92.24096 221.227776,95.05248" id="Stroke-75" stroke="#0086FF" stroke-width="2.04736" fill="none" stroke-linecap="round" stroke-linejoin="round"></path>
                        <path d="M335.404096,222.20192 C334.037696,219.21568 332.433216,216.34528 330.607296,213.6176" id="Stroke-77" stroke="#0086FF" stroke-width="2.04736" fill="none" stroke-linecap="round" stroke-linejoin="round"></path>
                        <path d="M332.64032,225.3088 C324.59424,232.08064 316.69344,233.34848 316.26336,233.2736 C315.72512,233.18144 312.48032,226.2944 311.87936,224.34112 C311.87936,224.34112 320.0176,221.78176 324.27872,218.23936 C325.13312,217.52896 322.05792,218.30208 320.94688,218.33344 C320.08864,216.18112 321.43072,215.18784 324.248,215.24352" id="Stroke-79" stroke="#0086FF" stroke-width="2.04736" fill="none" stroke-linecap="round" stroke-linejoin="round"></path>
                        <path d="M307.264128,84.179712 C307.403008,85.850752 308.177408,87.150592 308.994048,87.082752 C309.810688,87.014912 310.360448,85.605632 310.221568,83.934592 C310.082688,82.263552 309.308288,80.963712 308.492288,81.031552 C307.675648,81.099392 307.125888,82.508672 307.264128,84.179712" id="Fill-81" stroke="none" fill="#0086FF" fill-rule="evenodd"></path>
                        <path d="M314.580992,84.179712 C314.719872,85.850752 315.494272,87.150592 316.310272,87.082752 C317.127552,87.014912 317.676672,85.605632 317.538432,83.934592 C317.399552,82.263552 316.625152,80.963712 315.808512,81.031552 C314.992512,81.099392 314.442112,82.508672 314.580992,84.179712" id="Fill-83" stroke="none" fill="#0086FF" fill-rule="evenodd"></path>
                        <path d="M75.437824,73.857216 L82.305664,73.857216 C83.457024,73.857216 84.390144,72.924096 84.390144,71.773376 L84.390144,36.623936 C84.390144,35.472576 83.457024,34.539456 82.305664,34.539456 L75.437824,34.539456 C74.286464,34.539456 73.353344,35.472576 73.353344,36.623936 L73.353344,71.773376 C73.353344,72.924096 74.286464,73.857216 75.437824,73.857216" id="Fill-85" stroke="none" fill="#8FFFE9" fill-rule="evenodd"></path>
                        <path d="M56.785344,75.164672 L63.250624,75.164672 C64.512704,75.164672 65.536064,74.141312 65.536064,72.879232 L65.536064,46.273792 C65.536064,45.011712 64.512704,43.988352 63.250624,43.988352 L56.785344,43.988352 C55.522624,43.988352 54.499904,45.011712 54.499904,46.273792 L54.499904,72.879232 C54.499904,74.141312 55.522624,75.164672 56.785344,75.164672" id="Fill-87" stroke="none" fill="#8FFFE9" fill-rule="evenodd"></path>
                        <path d="M41.167872,76.788736 L47.478272,76.788736 C48.783232,76.788736 49.841792,75.730816 49.841792,74.425856 L49.841792,58.476416 C49.841792,57.171456 48.783232,56.113536 47.478272,56.113536 L41.167872,56.113536 C39.862912,56.113536 38.804992,57.171456 38.804992,58.476416 L38.804992,74.425856 C38.804992,75.730816 39.862912,76.788736 41.167872,76.788736" id="Fill-89" stroke="none" fill="#8FFFE9" fill-rule="evenodd"></path>
                        <path d="M74.847872,76.7887365 L85.884672,76.7887365 C86.392832,76.791936 86.199552,61.854336 86.004992,50.664576 C85.929472,46.361216 85.884672,37.470976 85.884672,37.470976 L74.847872,37.470976 L74.847872,76.7887365 Z" id="Stroke-91" stroke="#0086FF" stroke-width="2.04736" fill="none" stroke-linecap="round" stroke-linejoin="round"></path>
                        <path d="M56.913472,76.788736 L67.950272,76.788736 C66.632512,66.530816 68.840512,56.113536 67.950272,46.919936 L55.826752,47.198976 L56.913472,76.788736 Z" id="Stroke-93" stroke="#0086FF" stroke-width="2.04736" fill="none" stroke-linecap="round" stroke-linejoin="round"></path>
                        <path d="M41.219072,79.088128 L52.255872,79.088128 C52.255872,79.088128 51.440512,69.745408 51.940352,66.135168 C52.440832,62.524288 52.255872,59.045248 52.255872,59.045248 L41.219072,59.045248 L41.219072,79.088128 Z" id="Stroke-95" stroke="#0086FF" stroke-width="2.04736" fill="none" stroke-linecap="round" stroke-linejoin="round"></path>
                        <path d="M80.919744,272.223744 C74.430144,272.440064 68.993984,267.354624 68.777664,260.864384 C68.561344,254.374784 73.648064,248.938624 80.137024,248.722304 L80.528704,260.473344 L92.279104,260.081664 C92.495424,266.571264 87.409984,272.007424 80.919744,272.223744" id="Fill-97" stroke="none" fill="#8FFFE9" fill-rule="evenodd"></path>
                        <path d="M244.68224,49.862528 L256.43264,49.471488 C256.21632,42.981888 250.7808,37.895808 244.2912,38.112128 L244.68224,49.862528 Z" id="Fill-99" stroke="none" fill="#8FFFE9" fill-rule="evenodd"></path>
                    </g>
                </g>
            </g>
        </g>
    </g>
</svg>