<?xml version="1.0" encoding="UTF-8"?>
<svg width="406px" height="444px" viewBox="0 0 406 444" version="1.1" xmlns="http://www.w3.org/2000/svg" xmlns:xlink="http://www.w3.org/1999/xlink">
    <!-- Generator: sketchtool 61 (101010) - https://sketch.com -->
    <title>F3491FE0-FDD4-4DB3-842F-D1875E95D890</title>
    <desc>Created with sketchtool.</desc>
    <g id="Landing---Design" stroke="none" stroke-width="1" fill="none" fill-rule="evenodd">
        <g id="01-Home" transform="translate(-1034.000000, -4438.000000)" fill-rule="nonzero">
            <g id="Footer" transform="translate(0.000000, 4438.000000)">
                <g id="footer-Illustration" transform="translate(1034.000000, 0.000000)">
                    <path d="M525,230.789441 C525.029458,228.553015 523.444029,227.184057 521.256861,227.334504 C496.695506,229.017159 472.095742,227.034678 448.081712,221.636739 C446.957188,221.38386 446.114328,221.715696 445.555267,222.327086 C430.743343,219.055672 415.791654,216.465003 400.725806,214.664979 C393.242493,213.770835 385.736775,213.063416 378.218254,212.541654 C372.742867,212.16287 365.981853,210.992374 360.985509,214.013043 C356.282566,216.855524 355.937954,221.917359 356.162005,226.898102 C356.553561,235.593063 356.657052,244.274153 356.354049,252.974448 C355.801389,268.854568 354.124205,284.676004 351.87409,300.399275 C347.244764,332.743163 340.187148,364.67519 335.115054,396.946523 C333.276767,408.64188 332.135172,421.137484 344.990381,426.579171 C358.115519,432.135025 373.405419,434.289293 387.452367,436.06691 C422.48652,440.500284 458.503297,439.42155 492.340376,450.80641 C494.452859,451.517031 496.268742,450.192887 496.665633,448.115443 C510.372237,376.326801 524.027629,304.104957 525,230.789441 Z" id="Path" fill="#FFFFFF"></path>
                    <path d="M351.140106,267.762155 C351.435786,259.832037 353.607655,248.804116 349.651067,241.57591 C345.289247,233.606322 333.67049,233.668193 325.791348,232.213164 C321.079604,231.342707 316.36786,230.473317 311.656116,229.60286 C308.947129,229.102561 302.952685,229.196434 300.818042,227.25604 C299.854421,226.38025 299.227961,224.707607 298.807839,222.864286 C302.075216,213.718088 303.668487,204.7255 297.612354,195.290217 C294.045043,189.73252 283.904689,191.638778 282.193358,197.842917 C282.189103,197.856785 282.186976,197.870652 282.182722,197.88452 C281.86896,197.721309 281.541372,197.568766 281.193575,197.436491 C277.039157,195.855587 270.73095,197.912255 269.525893,202.688034 C261.522309,234.429842 259.467436,267.019707 254.832271,299.322618 C252.613603,314.779629 249.724868,330.145967 244.886556,345.016273 C242.898689,351.127605 238.29756,358.38888 239.091005,364.985578 C240.303507,375.066237 251.729753,375.453462 259.568478,377.174108 C275.954286,380.77221 292.340093,384.371379 308.725901,387.970548 C315.977519,389.563185 325.423343,393.564513 332.139971,388.575387 C338.547092,383.816676 338.80342,374.289653 340.136109,367.098783 C346.215642,334.313706 349.895695,301.0838 351.140106,267.762155 Z" id="Path" fill="#FFFFFF"></path>
                    <path d="M294.294615,60.601939 C291.920308,56.7337666 290.895281,52.5799742 288.35778,48.6722214 C275.959331,13.1152017 226.243938,10.4162529 195.128352,5.57247942 C195.01529,5.55322414 194.903294,5.53396886 194.790232,5.51471357 C189.376044,4.65464426 183.945855,3.91866455 178.499668,3.29393759 C141.620041,-1.06738403 103.867914,-2.06224033 67.4533355,6.3469697 C55.3279421,9.14754365 41.0362333,12.3150377 32.2099111,21.8517515 C27.522094,26.9169607 24.4022158,33.8071429 26.3936048,39.8147912 C20.6487623,53.3630223 8.17671577,64.2133744 8,79.7256444 C7.85139513,93.1316004 17.2014302,103.686705 28.6623162,109.388408 C45.8435123,117.936684 67.4448025,120.067602 86.1662052,123.076775 C107.336579,126.479611 128.64668,129.021309 149.93225,131.584401 C187.543582,136.112601 231.556797,143.218871 268.610284,131.976995 C281.78097,127.981523 294.431143,119.765936 300.498106,106.941917 C307.961282,91.1664917 302.362567,74.8594064 294.294615,60.601939 Z" id="Path" fill="#FFFFFF"></path>
                    <path d="M8,96 C8,96 22.5318798,351.851924 29.5123892,388.08284 C36.4928986,424.313755 116.65992,431.312023 116.65992,431.312023 C187.666489,438.053827 215.377255,393.386306 220.457384,378.537027 C225.537514,363.687748 301,117.59322 301,117.59322 C212.902813,136.234964 101.122898,125.034957 8,96 Z" id="Path" fill="#8FFFE9"></path>
                    <path d="M146.513301,71.625569 C103.302777,67.5256214 70.6728989,60.1354738 49.5094743,49.6556961 C34.0659518,42.0084349 30.1965436,35.2295988 29.5164658,33.7850687 C28.8928834,32.6339254 26.2844972,27.1086512 29.8000092,20.806702 C36.6242383,8.57407139 61.593114,2.25078498 104.012701,2.01180807 C188.5662,1.53705483 243.092878,15.5118699 257.790233,19.8059862 C259.623672,20.3415506 261.789688,20.8269724 264.082552,21.3411995 C274.090782,23.5848086 286.546439,26.3767844 288.201863,37.0731349 L289.862618,47.803625 C290.071544,48.8662188 290.589597,53.2296811 286.362029,58.1681817 C276.807895,69.32755 245.055297,80.7461655 148.047207,71.7674616 C147.534483,71.7215865 147.022826,71.6735778 146.513301,71.625569 Z M35.0402326,31.215 C35.2939293,31.7025556 38.6847248,37.764461 53.5824795,44.8590881 C79.5298998,57.2165415 119.604391,63.0245339 148.607898,65.7002219 C192.394036,69.7521607 226.578073,69.9633993 250.210244,66.3275362 C270.341826,63.2293713 278.466518,58.0252223 281.73686,54.2047923 C284.210937,51.3146653 283.916734,49.1115969 283.911404,49.0923934 C283.889019,49.0017102 283.869832,48.9088932 283.855974,48.8160763 L282.183495,38.0087722 C281.163378,31.4187705 271.382196,29.2263707 262.751177,27.2910845 C260.360245,26.7555202 258.102557,26.2487611 256.083643,25.6587868 C198.739652,8.90266464 125.215566,7.98943144 104.046812,8.10785304 C81.2279624,8.23587638 63.528884,10.160494 51.4388487,13.8251623 C40.7260242,17.0737547 36.6498211,21.0307429 35.1169812,23.7779105 C32.9925375,27.5866051 34.8185144,30.7957236 34.8377016,30.8266626 C34.9389671,30.992026 34.9784073,31.0485697 35.0402326,31.215 Z" id="Shape" fill="#0086FF"></path>
                    <path d="M144.072386,100.854515 C102.463227,96.9048261 74.7305405,87.9099144 58.0286631,80.4771532 C36.3540722,70.8309006 26.552581,61.0522442 25.4352131,58.5814197 C25.0535169,57.7378797 23.8924352,55.1709557 28.1550656,25.61289 C28.3960247,23.9460978 29.9430675,22.7971751 31.6052588,23.0299494 C33.2695825,23.2712659 34.424267,24.8173998 34.1843741,26.4852598 C32.3953061,38.8949065 30.7885567,52.9798875 31.0572367,56.0774942 C32.3260037,57.5478163 40.434384,66.1967699 61.8872073,75.5109454 C80.9485647,83.7872465 114.785193,94.1211444 167.729025,96.3453136 C259.421426,100.198903 278.63205,82.4194306 281.161055,79.4723797 L283.920356,48.0595939 C284.06749,46.3810563 285.545231,45.1413729 287.221282,45.2887255 C287.22768,45.2897932 287.235143,45.2897932 287.24154,45.290861 C288.90693,45.4488913 290.135182,46.9234845 289.988047,48.5945477 L287.154112,80.8476701 C287.117862,81.2544913 287.000581,81.6506347 286.809733,82.0115416 C286.4355,82.7162712 282.671847,89.054566 265.883608,94.5290333 C244.167436,101.60943 211.055817,104.271385 167.472073,102.439089 C159.231485,102.094198 151.431234,101.552838 144.072386,100.854515 Z" id="Shape" fill="#0086FF"></path>
                    <path d="M154.835549,138.687648 C151.358862,138.357679 147.87043,137.964706 144.351032,137.503391 C97.0559209,131.296986 64.3552056,124.968845 41.4406799,117.588862 C13.5908822,108.619903 0.0354346868,97.7341338 0,84.3100607 C-0.0478520329,66.1425517 8.65774573,51.101738 17.3056835,44.2535493 C21.6451351,40.8171745 25.9888579,39.3915809 29.5413568,40.2383942 C31.1803967,40.6292311 32.1915829,42.2748039 31.800776,43.9129018 C31.4099691,45.5520675 29.7666581,46.5622635 28.1265503,46.1724944 C26.8580295,45.8670863 24.3423435,46.4629524 21.0930936,49.036496 C13.6004922,54.9695284 6.05877297,68.1725544 6.1014841,84.2940428 C6.12817857,94.5903528 18.647881,103.838024 43.3114278,111.780769 C65.8671799,119.045424 98.2262061,125.296679 145.145459,131.453962 C175.194881,135.395434 205.851868,134.57425 233.802037,129.073701 C258.072641,124.296093 278.817441,116.117351 290.716764,106.632614 C296.831931,101.7589 300.290466,96.7944166 300.718645,92.2741636 C302.840321,69.8928775 285.391753,62.5577444 285.21557,62.4861977 C283.654477,61.8540244 282.901694,60.0749689 283.533819,58.513757 C284.165943,56.9525451 285.943794,56.1986357 287.505954,56.8318769 C287.733391,56.9247808 293.148096,59.1576769 298.201891,64.7212295 C302.852066,69.8416202 308.117282,78.8778549 306.792169,92.8497403 C306.195281,99.1458452 302.066181,105.388557 294.519123,111.403815 C271.300281,129.908768 216.752818,144.555541 154.835549,138.687648 Z" id="Path" fill="#0086FF"></path>
                    <path d="M124.112337,423.674155 C116.550457,422.955919 41.9855949,414.943266 34.8851436,378.089119 C27.9530656,342.107954 16.488762,114.857253 16.0038895,105.201088 C15.9197028,103.519157 17.2123409,102.088021 18.8918113,102.003711 C20.5723474,101.921536 22.0003235,103.213933 22.0845101,104.895865 C22.2027977,107.256545 34.0123732,341.372642 40.8634615,376.935459 C42.6921234,386.426205 51.8119887,399.821892 84.8802919,409.749129 C105.23428,415.858937 124.976582,417.62838 125.173728,417.649725 C156.329183,420.608045 181.509516,418.446934 200.035908,411.227223 C218.686981,403.959486 223.784003,394.163516 225.109676,390.289525 C230.064966,375.803144 285.418222,113.703593 285.976625,111.057966 C286.325093,109.410186 287.943821,108.357911 289.584928,108.705824 C291.230298,109.054803 292.281032,110.671634 291.933629,112.319415 C289.649933,123.137777 235.945244,377.430647 230.869535,392.266008 C224.519304,410.828084 192.883239,430.204446 124.622785,423.723247 C124.521548,423.712575 124.348912,423.696567 124.112337,423.674155 Z" id="Path" fill="#0086FF"></path>
                    <path d="M201.733345,54.9858829 C200.234974,54.8399671 199.043473,53.5626598 199.001146,51.9750093 C198.955644,50.2577768 200.270952,48.8269313 201.939688,48.7801075 C216.138235,48.3793837 244.915211,47.0955428 252.200723,45.1049906 C253.814435,44.6639765 255.469415,45.6527191 255.897974,47.3133275 C256.326534,48.9739359 255.365714,50.6770124 253.752002,51.1180264 C243.972381,53.7891559 203.810536,54.9510373 202.105821,54.99895 C201.979899,55.0022167 201.856093,54.997861 201.733345,54.9858829 Z" id="Path" fill="#0086FF"></path>
                    <path d="M353.624593,219.070825 C349.198631,283.091047 341.337563,346.825921 330.058362,409.993292 C329.340151,414.013722 335.474118,415.738588 336.196573,411.69154 C347.575496,347.966249 355.525677,283.655355 359.990891,219.070825 C360.273083,214.967347 353.906785,214.985447 353.624593,219.070825 L353.624593,219.070825 Z" id="Path" fill="#0086FF"></path>
                    <path d="M327.734992,386.624468 C299.051828,379.075742 270.126504,372.552406 240.995132,367.063112 C236.985692,366.308131 235.267209,372.561059 239.301077,373.321448 C268.431387,378.80966 297.357773,385.332997 326.040937,392.882804 C330.014265,393.927663 331.709382,387.670408 327.734992,386.624468 L327.734992,386.624468 Z" id="Path" fill="#0086FF"></path>
                    <path d="M108.205315,214.97955 C108.192536,211.493332 108.067941,208.008184 107.835789,204.524104 C108.215964,197.097176 108.148874,189.653138 107.620675,182.19199 C107.479041,180.18688 105.256559,179.622241 103.734792,180.341942 C102.847716,176.420481 101.690151,172.540727 100.245058,168.722997 C99.2717234,166.152179 95.1707267,167.156338 95.1036369,169.611662 C94.4721409,168.802132 93.7905938,168.011852 93.0334376,167.249375 C85.4011751,159.575418 73.6679159,157.213131 63.7428864,154.002816 C50.4101214,149.688888 37.0784213,145.374961 23.7456563,141.061033 C22.2047209,140.562697 5.45676603,123.659886 8.33097792,143.999723 L16.3508703,304.190373 C16.1655747,312.054682 15.981344,319.920061 15.7960484,327.78437 C15.6416354,334.371825 14.1177387,342.791149 16.8673553,349.059925 C19.0078391,353.941699 23.7605651,356.300778 28.5047719,358.000042 C36.3755759,360.820029 44.3975981,363.309574 52.3504008,365.890017 C64.0612967,369.689567 77.2566873,371.984482 85.5683671,360.644649 C88.9974009,355.966059 90.7907217,350.274754 92.3518905,344.755622 C94.4678813,337.277363 96.3676938,329.730664 98.1343916,322.162576 C101.733812,306.74622 104.653816,291.164109 106.560018,275.441907 C108.991224,255.38439 109.732406,235.086259 108.205315,214.97955 Z" id="Path" fill="#FFFFFF"></path>
                    <path d="M23.4146657,145.366735 C36.7245419,150.140813 50.0333516,154.914892 63.3432277,159.68897 C69.9981658,162.075476 76.6531039,164.463048 83.308042,166.849555 C89.2868213,168.994214 96.9389336,170.609368 101.748833,175.024405 C109.488398,182.128523 108.544548,195.270289 108.544548,204.88237 C108.544548,214.736298 108.03263,224.58916 107.261553,234.411126 C103.982076,276.188839 96.8354834,318.110381 86.4190123,358.703364 C85.3599812,362.831808 84.665692,367.124323 79.4089308,367.486561 C76.3043596,367.699641 73.0014199,367.228733 69.944841,366.716273 C63.5895884,365.649803 57.4124408,363.723551 51.2939504,361.741899 C38.8308725,357.706146 26.37526,353.382734 13.0835142,354.005995 C8.98390175,354.197768 8.96043882,360.592327 13.0835142,360.398423 C26.4125874,359.773031 38.7850131,364.459746 51.27582,368.449686 C57.4028423,370.406835 63.5885219,372.203107 69.9629714,373.151317 C74.958441,373.89497 81.1377216,374.9103 85.7972448,372.415122 C90.3095914,369.998785 91.4219473,364.950897 92.5886944,360.40375 C93.8407613,355.526328 95.0192399,350.630793 96.1454602,345.722474 C98.6869214,334.645462 100.960692,323.506656 103.030762,312.331627 C107.418328,288.640223 110.952697,264.747458 113.125151,240.747087 C114.121259,229.739326 114.821947,218.692145 114.929663,207.637507 C115.026714,197.69515 115.55463,186.465785 111.159598,177.278801 C108.368576,171.44571 103.615202,167.819073 97.7334735,165.356923 C90.3255889,162.25553 82.5849574,159.816818 75.0266968,157.105364 C58.3893516,151.138032 41.7530728,145.170701 25.1157276,139.203369 C21.2336804,137.80982 19.5614139,143.984905 23.4146657,145.366735 L23.4146657,145.366735 Z" id="Path" fill="#0086FF"></path>
                    <path d="M364.090014,218.351325 C377.93554,218.865561 391.786406,219.308904 405.62766,219.909904 C419.324746,220.504555 432.94067,221.686451 446.068557,225.834196 C450.005962,227.078519 451.6922,220.951072 447.771882,219.712039 C434.751855,215.599212 421.171172,214.288228 407.580878,213.649137 C393.091399,212.967722 378.585901,212.541308 364.090014,212.002736 C359.966792,211.849312 359.9732,218.198959 364.090014,218.351325 L364.090014,218.351325 Z" id="Path" fill="#0086FF"></path>
                    <path d="M338.172698,429.389893 C383.044084,445.971325 433.3107,440.571602 477.112424,460.676681 C480.829044,462.38298 484.084952,456.862599 480.341671,455.144554 C435.936329,434.762922 385.312448,440.003547 339.873705,423.212832 C336.005648,421.783085 334.336635,427.97296 338.172698,429.389893 L338.172698,429.389893 Z" id="Path" fill="#0086FF"></path>
                    <path d="M302.471759,168.519282 C301.131697,160.070528 300.03139,150.182642 295.159215,142.907861 C290.595298,136.092832 282.837493,133.03922 275.696203,129.688373 C267.376472,125.784753 260.587323,119.897783 253.27585,114.458804 C246.951227,109.75436 238.763148,104.117581 230.545098,104.001039 C222.516499,103.887704 219.594478,113.073132 217.675364,119.444446 C212.612669,136.252141 214.857166,155.059226 223.374909,170.381814 C232.973694,187.648193 249.241749,200.143838 267.68794,206.789935 C269.531061,207.453903 271.002775,206.45207 271.639625,205.070674 C275.063634,205.945273 280.175565,204.527525 283.257066,204.268781 C289.624502,203.734185 295.993008,203.199589 302.360444,202.664993 C303.632005,202.558074 305.01381,201.108249 305,199.808112 C304.88644,189.325755 304.115797,178.876543 302.471759,168.519282 Z" id="Path" fill="#FFFFFF"></path>
                    <path d="M346.933149,236.571554 C336.789646,235.596028 326.682456,234.310642 316.652168,232.494219 C314.333379,232.074305 312.014589,231.641569 309.709684,231.15434 C306.492644,230.473716 305.255813,229.856132 304.741001,226.358984 C304.088408,221.924776 304.937527,216.666766 305.29106,212.219735 C306.539639,196.491651 309.947865,180.890716 308.504896,165.048304 C307.233887,151.099245 303.600298,133.420109 290.87419,125.255823 C285.209122,121.62084 277.913105,119.568283 271.754588,116.978277 C261.490391,112.661602 251.203766,108.322489 241.187363,103.45127 C235.687847,100.776855 230.859082,96.2849478 225.26878,101.189289 C219.071812,106.624667 215.880405,116.079682 213.791251,123.763151 C210.905314,134.378539 209.865009,146.003645 212.569374,156.766484 C216.444348,172.185777 230.254552,181.626902 242.160379,190.915233 C249.359201,196.531185 256.787659,202.12363 264.742678,206.646523 C268.333545,208.688396 271.566606,203.151512 267.976808,201.110707 C262.379029,197.927694 257.077107,194.138849 251.901218,190.323293 C245.663663,185.724538 239.641859,180.835155 233.799491,175.744897 C228.821196,171.408989 223.764931,167.32738 220.897151,161.244501 C216.29375,151.481763 216.775451,139.658987 219.019476,129.351322 C220.617315,122.010837 223.235166,111.531146 229.169388,106.306259 C231.172028,104.542192 230.649739,105.159776 232.909785,106.415245 C236.472882,108.393008 240.205802,110.089761 243.90668,111.787582 C253.172227,116.040148 262.56167,120.024525 271.96393,123.962957 C277.941943,126.466415 285.775202,128.539274 290.523861,133.141235 C301.557071,143.834623 302.981883,163.744753 302.376284,178.155397 C301.672423,194.917774 296.651405,212.150284 298.41266,228.958606 C299.342953,237.833434 310.056808,237.830228 316.944821,239.031204 C326.882186,240.763217 336.894317,242.017617 346.933149,242.982458 C351.035624,243.377797 351.008922,236.963688 346.933149,236.571554 L346.933149,236.571554 Z" id="Path" fill="#0086FF"></path>
                </g>
            </g>
        </g>
    </g>
</svg>