<?xml version="1.0" encoding="UTF-8"?>
<svg width="806px" height="631px" viewBox="0 0 806 631" version="1.1" xmlns="http://www.w3.org/2000/svg" xmlns:xlink="http://www.w3.org/1999/xlink">
    <!-- Generator: sketchtool 61 (101010) - https://sketch.com -->
    <title>C6254733-5BF8-4D7D-AC30-F2938D50F4CA</title>
    <desc>Created with sketchtool.</desc>
    <g id="Landing---Design" stroke="none" stroke-width="1" fill="none" fill-rule="evenodd">
        <g id="01-Home" transform="translate(-634.000000, -183.000000)" fill-rule="nonzero">
            <g id="Hero" transform="translate(135.000000, 50.000000)">
                <g id="Header-Illustration" transform="translate(499.000000, 133.000000)">
                    <g id="Group" opacity="0.1" transform="translate(0.000000, 215.476817)" fill="#0086FF">
                        <path d="M391.260024,297.235478 C391.85138,287.731318 393.062505,278.274978 394.106701,268.810814 C395.250344,258.451096 396.392212,248.09051 397.530527,237.729923 C399.809822,216.982665 402.074911,196.233669 404.308034,175.482064 C405.980879,159.934228 409.518359,142.610068 401.750819,128.212539 C401.475564,127.96474 401.22517,127.656949 401.009405,127.282208 C394.763763,116.417329 389.708825,104.978601 384.729359,93.519876 C380.34125,83.4244771 375.951365,73.3151668 370.726833,63.5997256 C368.276169,59.0419717 365.595534,54.6659367 362.669832,50.3864127 C359.832034,46.23557 356.920538,42.1012473 354.621709,37.6313097 C352.27138,33.0613832 350.70331,28.3166935 350.264677,23.2033492 C349.849129,18.3638875 350.574561,13.4461736 351.737739,8.74669633 C352.264277,6.62084582 352.897365,4.51847097 353.571297,2.4247908 C338.421577,-0.937443928 320.315964,-0.953094361 297.479505,3.53162421 C191.406597,24.3614813 226.924355,191.025552 124.040862,207.326348 C21.1555932,223.627144 0.578894598,401.021326 0.578894598,401.021326 L378.920575,401.021326 C385.914735,385.189174 388.401804,367.774589 389.448664,350.630409 C390.534592,332.848908 390.153673,315.01524 391.260024,297.235478 Z" id="Path"></path>
                    </g>
                    <g id="Group" opacity="0.1" transform="translate(570.866000, 361.930617)" fill="#0086FF">
                        <path d="M12.1435441,56.6636513 C12.8460707,67.8179277 10.4925159,79.1499325 8.24152632,90.017667 C6.03773492,100.653266 3.56709234,111.305188 3.13141694,122.196498 C2.66578886,133.829554 3.15047774,145.565981 3.3056871,157.204477 C3.46452709,169.020702 3.66874993,180.836019 3.82849758,192.652243 C3.9083714,198.537233 3.97735334,204.423129 4.0227362,210.309025 C4.06630374,215.869388 3.84483541,221.484157 4.14073162,227.036359 C4.53465479,234.421159 7.42281963,241.15852 11.3511595,247.495084 C13.0557395,250.244435 14.9137136,252.890414 16.7989173,255.51735 L441.227539,255.51735 C244.724318,121.113805 355.256983,37.4109405 109.628638,19.8847351 C65.7724629,16.7554441 29.9826365,9.8612109 0.294988552,0.50235502 C5.20904401,19.0296434 10.9327296,37.4490252 12.1435441,56.6636513 Z" id="Path"></path>
                    </g>
                    <g id="Group" opacity="0.1" transform="translate(450.139800, 433.225617)" fill="#0086FF">
                        <path d="M61.3174045,182.613143 C61.3473904,182.392503 61.4346219,182.155519 61.4818723,181.934879 C61.5454786,181.640692 61.5999984,181.342873 61.6454314,181.044146 C61.6499747,180.976955 61.657244,180.877985 61.668148,180.737247 C61.7608315,179.517824 61.7726441,178.299309 61.7172157,177.07807 C61.4427999,171.058134 59.8553678,165.013682 58.6223137,158.971047 C57.3165668,152.575205 56.8058989,146.24383 56.4624247,139.735398 C55.4483582,120.496118 56.0717002,101.214162 55.180303,81.9639861 C54.7577753,72.8460072 54.1898617,63.7343843 53.4284031,54.6381971 C53.0249573,49.8186162 52.5651744,45.0035752 52.0281553,40.196706 C51.7646434,37.8413946 51.4829583,35.4888072 51.1776479,33.1389437 C51.1385755,32.8365849 51.0985943,32.5333181 51.0586132,32.2309594 C51.04044,32.0993016 51.0149975,31.904993 51.0040935,31.8278143 C50.9314006,31.3020914 50.8587076,30.7763684 50.7841974,30.2506455 C50.6206383,29.1011373 50.4516272,27.9534451 50.2744381,26.8057529 C49.1022644,19.2031999 47.7401805,11.4980447 45.2159181,4.20965438 C44.9651274,3.48599086 44.6934376,2.77231516 44.418113,2.05773148 C44.3826752,1.96511707 44.3436028,1.87341065 44.3063476,1.78079625 C44.1909476,1.52474466 44.0791822,1.26596912 43.9601475,1.01173351 C43.8074923,0.685767126 43.6466592,0.366156636 43.4803741,0.0501780824 C41.1823685,13.0143786 38.5717832,25.9213761 35.8212641,38.7965942 C29.9849296,66.1205672 23.5525129,93.3192383 18.2913613,120.763973 C17.0601246,127.186147 15.823436,133.546577 14.0987959,139.862516 C12.3677953,146.200247 10.372374,152.462615 8.33515437,158.707731 C5.57191394,167.176501 2.72961994,175.635283 0.367099353,184.224815 L60.5114216,184.224815 C60.7994673,183.777179 61.0775178,183.325911 61.2965053,182.834691 C61.2983226,182.779304 61.3046833,182.711205 61.3174045,182.613143 Z" id="Path"></path>
                    </g>
                    <path d="M456.030693,125.231217 C455.833821,125.231217 455.634216,125.19675 455.438256,125.123159 L429.397471,115.317759 C428.509727,114.983336 428.054918,113.977272 428.382125,113.069019 C428.709332,112.161699 429.693689,111.69686 430.582344,112.031283 L456.623129,121.836682 C457.510873,122.171106 457.965682,123.17717 457.638475,124.085422 C457.383271,124.793393 456.727945,125.231217 456.030693,125.231217 Z" id="Path" fill="#0086FF"></path>
                    <path d="M462.295869,120.478217 C461.735068,120.478217 461.186006,120.194599 460.861808,119.676166 C460.358802,118.86951 460.591792,117.799494 461.382874,117.286587 C468.480934,112.681467 471.730149,107.962163 471.762659,107.9152 C472.296368,107.129724 473.353852,106.933585 474.124164,107.477801 C474.895378,108.022017 475.086827,109.100321 474.553118,109.885797 C474.406822,110.101274 470.87495,115.230351 463.205251,120.20749 C462.922593,120.390738 462.607425,120.478217 462.295869,120.478217 Z" id="Path" fill="#0086FF"></path>
                    <path d="M366.31098,222.192417 C366.286226,222.192417 366.261473,222.192417 366.235802,222.190607 C365.28507,222.150772 364.547038,221.356801 364.587378,220.417976 C365.381335,202.069713 368.675433,185.268654 374.377073,170.480136 C378.95287,158.61492 385.078993,148.01173 392.587665,138.965702 C405.428503,123.495473 417.73209,118.000138 418.24917,117.772901 C419.119223,117.391758 420.137798,117.780144 420.522859,118.639299 C420.908835,119.498454 420.515524,120.504273 419.645472,120.88451 C419.553791,120.92525 416.531069,122.282335 412.054287,125.428346 C407.882802,128.359795 401.558649,133.491189 395.11806,141.286055 C387.878013,150.04781 381.96459,160.325083 377.543734,171.83179 C372.007119,186.242786 368.806536,202.638258 368.030915,220.561923 C367.992409,221.477209 367.228707,222.192417 366.31098,222.192417 Z" id="Path" fill="#0086FF"></path>
                    <path d="M487.308769,308.697017 C475.209727,308.697017 461.226728,308.147727 445.060053,306.837461 C444.117164,306.760816 443.41478,305.933231 443.491304,304.989767 C443.567828,304.046302 444.391376,303.342809 445.336087,303.418542 C472.869358,305.651287 511.389335,306.951516 538.540895,300.470443 C550.265515,297.671984 556.51318,294.127148 558.724186,292.21832 C553.367484,267.939158 522.282209,159.89511 521.965179,158.791968 C521.703721,157.882263 522.227549,156.931499 523.135819,156.668716 C524.046823,156.405933 524.994267,156.931499 525.255725,157.841203 C525.578221,158.959857 557.52075,269.98394 562.273458,292.423619 C562.382778,292.941886 562.24795,293.481139 561.906323,293.886263 C561.303238,294.600705 548.573781,308.695193 487.308769,308.697017 Z" id="Path" fill="#0086FF"></path>
                    <path d="M422.784322,326.758417 C422.204287,326.758417 421.638641,326.454895 421.324792,325.910741 L370.521847,238.080542 C370.049726,237.263856 370.319509,236.214742 371.125263,235.736216 C371.931017,235.257689 372.966986,235.532044 373.438208,236.347819 L424.241153,324.178929 C424.713274,324.994704 424.443491,326.044729 423.637737,326.523256 C423.368853,326.681853 423.074789,326.758417 422.784322,326.758417 Z" id="Path" fill="#0086FF"></path>
                    <path d="M438.956261,320.104217 C438.250529,320.104217 437.592977,319.649226 437.362789,318.933337 L408.396575,229.16912 C408.109286,228.278095 408.590183,227.320266 409.469894,227.029577 C410.350497,226.738888 411.297122,227.225476 411.584411,228.115598 L440.550625,317.879815 C440.837914,318.77084 440.357017,319.728669 439.477306,320.019358 C439.304219,320.077135 439.129348,320.104217 438.956261,320.104217 Z" id="Path" fill="#0086FF"></path>
                    <path d="M412.880833,217.439417 C412.855293,217.439417 412.829753,217.438517 412.804213,217.437617 C411.85832,217.396204 411.124956,216.606668 411.166914,215.673088 C411.584676,206.30308 420.815574,186.910369 421.208708,186.089323 C421.612788,185.24397 422.634389,184.882061 423.490892,185.281781 C424.347396,185.6806 424.713165,186.689803 424.309086,187.534256 C424.216047,187.729614 414.979676,207.129528 414.592015,215.821633 C414.551881,216.730005 413.793889,217.439417 412.880833,217.439417 Z" id="Path" fill="#0086FF"></path>
                    <path d="M501.614995,111.922817 C490.47492,111.922817 481.158581,111.476854 480.301159,111.43558 C479.352231,111.388265 478.617429,110.504392 478.659522,109.460456 C478.70253,108.416519 479.510538,107.611168 480.454891,107.654456 C480.573851,107.660496 492.455134,108.235315 505.488491,108.114513 C527.0375,107.912168 535.055353,106.03872 537.987241,104.502512 C538.845578,104.052522 539.871372,104.454191 540.279494,105.397459 C540.687616,106.340726 540.323417,107.470232 539.465996,107.919215 C533.227956,111.187934 515.919386,111.922817 501.614995,111.922817 Z" id="Path" fill="#0086FF"></path>
                    <path d="M531.693633,168.958817 C531.134325,168.958817 530.586783,168.683805 530.260972,168.180669 C529.752346,167.393503 529.981318,166.344851 530.771409,165.838108 C531.278225,165.512602 581.600561,133.152262 591.489815,117.469367 C591.989391,116.676792 593.039225,116.437847 593.834746,116.935574 C594.630266,117.4333 594.870099,118.479247 594.369618,119.272724 C584.080341,135.591302 534.708285,167.345715 532.611333,168.689216 C532.327154,168.872256 532.008583,168.958817 531.693633,168.958817 Z" id="Path" fill="#0086FF"></path>
                    <path d="M591.047905,97.6638174 C590.264435,97.6638174 589.563155,97.0964951 589.403245,96.2767235 L589.403245,96.2767235 C588.967289,94.0891359 571.803327,32.2491654 565.227367,8.60614475 C564.972762,7.68998344 565.489119,6.73526624 566.380684,6.47271901 C567.271355,6.21200778 568.202227,6.74077422 568.456832,7.65785353 C569.425226,11.1398173 592.185141,92.9728512 592.697032,95.5992415 C592.878382,96.5337627 592.28877,97.44258 591.379338,97.6298515 C591.267669,97.6528014 591.156894,97.6638174 591.047905,97.6638174 Z" id="Path" fill="#0086FF"></path>
                    <path d="M555.121042,97.6638174 C554.31663,97.6638174 553.656033,96.9313166 553.636279,96.0084739 L551.854405,10.0433716 C551.835441,9.10699747 552.484185,8.33029404 553.3044,8.30741739 C554.115923,8.28969979 554.804967,9.02671105 554.824721,9.96308522 L556.606595,95.9281874 C556.625559,96.8645616 555.976815,97.641265 555.1566,97.6638174 C555.144747,97.6638174 555.132894,97.6638174 555.121042,97.6638174 Z" id="Path" fill="#0086FF"></path>
                    <path d="M407.211553,608.136017 C414.336162,610.072927 418.418494,609.510335 427.3254,610.369171 L425.03178,624.620583 L404.227006,630.950417 L392.1532,624.620583 L407.211553,608.136017 Z" id="Path" fill="#0086FF"></path>
                    <path d="M539.4962,600.531217 C546.615065,601.874253 552.582653,603.100542 560.871668,605.565596 L582.2732,625.246817 L540.135199,620.791718 L539.4962,600.531217 Z" id="Path" fill="#0086FF"></path>
                    <path d="M560.639684,441.781017 C559.750389,441.781017 559.011235,441.061731 558.973034,440.140971 C555.251499,351.957689 542.541066,305.63708 542.413135,305.179435 C542.159051,304.269615 542.670773,303.320594 543.557403,303.059864 C544.444032,302.800046 545.368864,303.325152 545.622948,304.234061 C545.751767,304.695353 558.571474,351.407057 562.309,439.992373 C562.348979,440.937747 561.6347,441.737259 560.713422,441.778282 C560.688547,441.781017 560.663671,441.781017 560.639684,441.781017 Z" id="Path" fill="#0086FF"></path>
                    <path d="M557.52746,599.580617 C557.477294,599.580617 557.426232,599.577898 557.376066,599.573366 L538.885361,597.882922 C538.120327,597.813129 537.498625,597.227592 537.375002,596.459868 L515.753391,462.178806 C515.603789,461.249742 516.226386,460.374155 517.144606,460.223692 C518.062826,460.07051 518.928192,460.702274 519.076899,461.631338 L540.488886,594.608084 L555.871082,596.013917 L557.992393,451.064478 C558.005831,450.132694 558.757427,449.385817 559.675647,449.385817 C559.684605,449.385817 559.692667,449.385817 559.701626,449.385817 C560.631491,449.399413 561.374129,450.173483 561.36,451.11433 L559.21161,597.900144 C559.204443,598.374193 559.002883,598.82377 558.654407,599.141011 C558.343556,599.426529 557.942227,599.580617 557.52746,599.580617 Z" id="Path" fill="#0086FF"></path>
                    <path d="M514.995299,457.941217 C514.213718,457.941217 513.511909,457.390184 513.346988,456.589337 L494.853464,366.822322 C494.664343,365.905136 495.250529,365.008692 496.161178,364.818401 C497.071827,364.627207 497.963653,365.21702 498.152774,366.134207 L516.646298,455.901222 C516.835419,456.818408 516.25013,457.714852 515.338585,457.905143 C515.223857,457.929493 515.10913,457.941217 514.995299,457.941217 Z" id="Path" fill="#0086FF"></path>
                    <path d="M469.915206,443.682217 C469.679864,443.682217 469.440874,443.634101 469.21283,443.531512 C468.348999,443.144764 467.964061,442.134315 468.352648,441.275478 C486.338941,401.494834 504.556927,320.353866 504.73845,319.539515 C504.94369,318.618944 505.859515,318.039729 506.783549,318.243998 C507.708496,318.448266 508.290465,319.359759 508.085225,320.279422 C507.90279,321.098312 489.610005,402.576096 471.478676,442.676308 C471.193165,443.307271 470.569236,443.682217 469.915206,443.682217 Z" id="Path" fill="#0086FF"></path>
                    <path d="M426.810359,604.333617 C426.73763,604.333617 426.6649,604.329062 426.590353,604.319951 L406.952528,601.785284 C406.057957,601.669575 405.40703,600.877833 405.465213,599.974937 L415.341855,448.135431 C415.403675,447.191536 416.216425,446.47177 417.158269,446.53828 C418.100114,446.600235 418.813771,447.414754 418.751951,448.358649 L408.979858,598.593717 L425.546687,600.732057 C429.575891,585.773694 463.392297,460.020669 464.795973,448.297606 C464.908703,447.358266 465.759636,446.690433 466.696026,446.800676 C467.633325,446.913652 468.301526,447.766437 468.188796,448.704865 C466.674208,461.353602 430.016813,597.288117 428.456769,603.068106 C428.255854,603.822493 427.573108,604.333617 426.810359,604.333617 Z" id="Path" fill="#0086FF"></path>
                    <path d="M416.582017,443.682217 C416.528839,443.682217 416.475661,443.679508 416.421625,443.674089 C415.535605,443.581962 414.888031,442.751021 414.975517,441.818017 C415.047566,441.046687 422.199192,364.325462 422.199192,335.110629 C422.199192,334.17311 422.921388,333.412617 423.811696,333.412617 C424.702004,333.412617 425.4242,334.172207 425.4242,335.110629 C425.4242,364.49165 418.257135,441.37816 418.185087,442.150394 C418.101888,443.028302 417.401135,443.682217 416.582017,443.682217 Z" id="Path" fill="#0086FF"></path>
                    <path d="M416.664459,333.412617 C415.795101,333.412617 415.054069,332.74634 414.974543,331.859482 C414.890499,330.920884 415.579117,330.091214 416.513541,330.006795 C432.893068,328.522648 443.075937,311.604279 443.177151,311.433625 C443.656111,310.623925 444.697171,310.357051 445.504173,310.836335 C446.311176,311.316527 446.577767,312.362238 446.100614,313.171937 C445.654187,313.929896 434.952595,331.761447 416.818991,333.405356 C416.76748,333.409894 416.715969,333.412617 416.664459,333.412617 Z" id="Path" fill="#0086FF"></path>
                    <g id="Group" transform="translate(466.300000, 7.356817)">
                        <path d="M21.0079804,6.85758285 C21.0079804,6.85758285 128.073276,6.97698675 132.111393,16.8278082 C136.14951,26.6786296 140.620902,101.167665 133.398446,104.665656 C126.176902,108.163648 9.04322206,99.4715867 3.09960954,96.4005546 C-2.84400298,93.3295226 4.05007673,22.1023848 4.89108513,21.1399171 C5.73300569,20.1783539 21.0079804,6.85758285 21.0079804,6.85758285 Z" id="Path" fill="#FFFFFF"></path>
                        <path d="M111.471113,28.5447678 C105.160813,28.5447678 91.0378926,28.0807208 58.4574825,26.1955866 C31.5844364,24.6406222 5.04067882,22.8540866 4.77524124,22.8359951 C4.12943436,22.7925755 3.5629851,22.3918488 3.31214203,21.8002568 C3.0603868,21.2086648 3.16619697,20.5275198 3.58578901,20.0381448 C5.60165514,17.6862498 15.9044641,5.91501573 20.7480158,5.17597798 C25.2641032,4.48759643 121.292303,10.8937964 132.227237,11.6265021 C132.878517,11.6699217 133.449527,12.0769804 133.697633,12.6767136 C133.94574,13.2755423 133.829896,13.9630192 133.397534,14.448776 C132.312067,15.6681431 122.626788,26.4135891 116.850101,28.203743 C116.436894,28.3321927 115.748215,28.5447678 111.471113,28.5447678 Z M8.46673908,19.6763148 C50.6530705,22.4922566 111.69824,26.0752781 115.833958,24.9563189 C119.075763,23.9513361 124.785863,18.5537372 128.421719,14.7816596 C85.856843,11.9431033 24.6182963,8.09323226 21.2642964,8.53918772 C19.0231276,8.88111706 13.0694814,14.617027 8.46673908,19.6763148 Z" id="Shape" fill="#0086FF"></path>
                        <path d="M111.014123,114.01082 C110.703077,114.01082 110.430342,113.99092 110.201391,113.949309 C107.26151,113.419228 37.8847022,105.497865 1.61096994,101.383858 C0.670536465,101.277118 -0.00537158897,100.434054 0.102262892,99.5014376 C0.209897373,98.5688208 1.06002734,97.8994354 2.00046081,98.0052706 C6.28759692,98.491932 107.030735,109.921237 110.815272,110.604191 C111.781246,110.778774 116.069294,109.988175 122.586654,107.686032 C128.776548,105.499674 132.355851,103.535842 133.135745,102.715392 C133.017164,96.6484082 130.423903,19.6129945 130.397451,18.8178731 C130.365525,17.8798289 131.107108,17.0928486 132.053927,17.0620931 C132.9898,17.0241009 133.792498,17.7658524 133.824423,18.7048012 C133.936618,22.0327326 136.569102,100.233239 136.569102,103.023853 C136.569102,104.310158 135.475427,105.214733 135.116037,105.512338 C131.16275,108.782377 116.058349,114.01082 111.014123,114.01082 Z" id="Path" fill="#0086FF"></path>
                        <path d="M112.566613,106.435005 C112.551106,106.435005 112.5356,106.435005 112.520093,106.4341 C111.574187,106.409677 110.826218,105.628124 110.851759,104.689175 L112.821105,30.9563646 C112.845733,30.0174158 113.620154,29.2729506 114.580655,29.301897 C115.526561,29.3263205 116.27453,30.1078733 116.248989,31.0468221 L114.279643,104.779633 C114.255015,105.703204 113.492452,106.435005 112.566613,106.435005 Z" id="Path" fill="#0086FF"></path>
                        <ellipse id="Oval" fill="#8FFFE9" cx="88.0569647" cy="75.3709957" rx="17.5799945" ry="21.0295589"></ellipse>
                        <ellipse id="Oval" fill="#8FFFE9" cx="23.4826613" cy="62.7802167" rx="17.5799945" ry="21.0295589"></ellipse>
                        <path d="M89.3321597,92.8075828 C79.5939756,92.8075828 71.6709833,82.3317001 71.6709833,69.45598 C71.6709833,56.5802598 79.5939756,46.1043771 89.3321597,46.1043771 C99.0703437,46.1043771 106.993336,56.5802598 106.993336,69.45598 C106.993336,82.3317001 99.0703437,92.8075828 89.3321597,92.8075828 Z M89.3321597,49.505579 C81.4839642,49.505579 75.09978,58.4554438 75.09978,69.4568845 C75.09978,80.4583253 81.4839642,89.4081901 89.3321597,89.4081901 C97.1803552,89.4081901 103.564539,80.4583253 103.564539,69.4568845 C103.564539,58.4554438 97.1803552,49.505579 89.3321597,49.505579 Z" id="Shape" fill="#0086FF"></path>
                        <path d="M20.0575132,87.8649852 C10.7498671,87.8649852 3.17714285,77.8649089 3.17714285,65.5735442 C3.17714285,53.2821795 10.7498671,43.2821032 20.0575132,43.2821032 C29.3651593,43.2821032 36.9378836,53.2821795 36.9378836,65.5735442 C36.9378836,77.8649089 29.3651593,87.8649852 20.0575132,87.8649852 Z M20.0575132,46.6833051 C12.6407678,46.6833051 6.60593958,55.1573634 6.60593958,65.5735442 C6.60593958,75.989725 12.6398556,84.4646879 20.0575132,84.4646879 C27.4751708,84.4646879 33.5090869,75.9906296 33.5090869,65.5735442 C33.5090869,55.1564588 27.4742587,46.6833051 20.0575132,46.6833051 Z" id="Shape" fill="#0086FF"></path>
                        <path d="M64.5488644,57.8665654 C64.5214997,57.8665654 64.4932228,57.8656609 64.464946,57.8647563 L43.195278,56.8443957 C42.2493716,56.799167 41.5196463,56.0022364 41.5652541,55.0641922 C41.6108619,54.1261479 42.4108233,53.402488 43.3603783,53.4477167 L64.6300463,54.4680773 C65.5759528,54.513306 66.305678,55.3102366 66.2600702,56.2482808 C66.2162867,57.1582832 65.4573724,57.8665654 64.5488644,57.8665654 Z" id="Path" fill="#0086FF"></path>
                        <path d="M62.8449558,69.5690518 C62.7783684,69.5690518 62.7099567,69.5654335 62.6415449,69.5572924 L43.0757855,67.2623857 C42.135352,67.1520275 41.4630926,66.3062499 41.5743757,65.3745377 C41.6856588,64.4419209 42.5357887,63.7761537 43.4780465,63.8856073 L63.043806,66.180514 C63.9842395,66.2908722 64.6564989,67.1357452 64.5452158,68.068362 C64.4430542,68.9331356 63.7023831,69.5690518 62.8449558,69.5690518 Z" id="Path" fill="#0086FF"></path>
                        <path d="M98.1618358,18.5284091 C97.3883269,18.5284091 96.6859664,18.0055648 96.4962378,17.2267257 L93.7123358,5.77842491 L50.7908061,3.84353905 L44.7723968,14.491291 C44.3099334,15.3099314 43.265514,15.6021091 42.4391001,15.142585 C41.6126862,14.6830609 41.3189718,13.6473226 41.7814352,12.8277777 L48.3161252,1.26550038 C48.6326436,0.704663902 49.2419642,0.361829988 49.8895954,0.398012987 L95.1535432,2.43873412 C95.9161062,2.47310797 96.5637374,3.0031889 96.7425201,3.73860835 L99.8283459,16.4288906 C100.05,17.3416068 99.4844629,18.2606549 98.5631847,18.4804667 C98.4300098,18.5130313 98.2950106,18.5284091 98.1618358,18.5284091 Z" id="Path" fill="#0086FF"></path>
                    </g>
                    <path d="M466.495434,79.4725993 C465.099609,77.9276606 431.654265,83.6000541 431.036218,86.2566174 C431.036218,86.2566174 402.54342,82.6941166 412.473017,52.6884806 C408.902682,42.836525 408.477945,30.6461355 419.383167,30.4852424 C413.90696,21.8034179 418.515541,7.92365159 434.238084,5.07328529 C459.48273,0.496061412 459.187773,25.073386 459.187773,25.073386 C459.187773,25.073386 472.890998,20.9861545 472.722192,37.0928267 C493.422693,63.198635 466.575299,79.5585308 466.495434,79.4725993 Z" id="Path" fill="#0086FF"></path>
                    <g id="Group" transform="translate(407.362800, 35.874817)">
                        <path d="M64.8865881,35.3003571 C63.5618922,36.1877886 62.0147559,36.9112879 60.2298073,37.4076634 C59.250527,54.5344497 54.4725796,70.890114 44.322606,72.7071047 C34.2910865,74.5030316 24.6447687,59.9900011 18.5746776,43.9741068 C6.37843326,44.4759772 1.18725303,32.425592 2.5734365,26.4406956 C3.18921663,23.779317 5.10618268,22.3167493 8.28093164,23.6868189 C9.02511233,24.0073566 9.65174321,24.524796 10.20694,25.1750296 C11.9728997,27.2301341 13.0416987,30.6058538 14.8971772,33.2608216 L14.8953687,33.2507476 C14.675641,32.3101984 14.0282129,28.7815365 13.5471629,24.622789 C12.399696,14.6989423 14.8040416,-1.57612958 18.33144,11.1528797 C19.672412,15.9929987 50.912629,11.7912076 50.6929012,8.18103749 C49.8736695,-5.28246101 58.3851796,7.22491937 59.0054809,17.1002275 C59.4964774,24.9094413 61.2570118,26.2676052 62.7625535,16.4783844 C62.8656356,15.8080027 63.4488635,15.3427651 63.9443812,14.911413 C66.1534133,12.9817762 68.1128781,13.2565227 69.5035827,14.8042618 C69.5831549,14.8903491 69.6591101,14.9828471 69.7350654,15.0799242 C72.8953467,19.1049617 72.7135966,30.064603 64.8865881,35.3003571 Z" id="Path" fill="#FFFFFF"></path>
                        <path d="M42.5783478,74.5854555 C30.0348794,74.5854555 20.6516923,53.9281756 17.4181684,45.7059261 C12.4024086,45.5850376 7.95812179,43.4310244 4.80055319,39.5607608 C1.58511391,35.6190631 -0.0108507512,30.0627714 0.918696937,26.0478079 C1.36629042,24.1126762 2.3573257,22.704142 3.78239103,21.9724003 C4.79603204,21.4522134 6.51497188,21.052915 8.94825284,22.1033628 C9.88865128,22.5090719 10.7214464,23.1455682 11.4936582,24.0485686 C11.6048784,24.1786153 11.7133859,24.3114095 11.8191808,24.447867 C11.4520637,20.9530904 11.4791906,16.5379128 11.8969445,12.8160124 C12.3119857,9.11975499 13.0516453,5.2778819 15.3999287,4.80806524 C18.1379349,4.26131954 19.3496021,8.45120497 19.9400638,10.5786594 C20.1597915,10.755413 21.4718282,11.5915584 26.7082199,11.6153698 C35.9033273,11.6446761 46.9837528,9.33130986 48.9730572,7.83485679 C48.8473693,5.5361437 48.7723183,0.782111946 51.9760026,0.578799473 C54.375827,0.426773029 56.4483205,3.61566506 57.7630699,6.31825564 C59.4205221,9.7251133 60.4920338,13.6155249 60.7045277,16.9912447 C60.7280377,17.3612367 60.7533561,17.7065016 60.780483,18.0270393 C60.8790439,17.4940309 60.9821261,16.8923359 61.0861124,16.2137118 C61.2796175,14.9581199 62.1594326,14.1952402 62.7426605,13.6897065 L62.8376045,13.6072826 C66.0973511,10.7609079 69.0686484,11.7600697 70.7631741,13.6457471 C70.8581182,13.7483191 70.9630087,13.8756184 71.0688036,14.0102442 C73.0056627,16.4756369 73.7932464,20.6600274 73.1241167,24.9286735 C72.3419584,29.9171557 69.7495331,34.1107044 65.8260823,36.7354501 C64.6216489,37.5422892 63.2897192,38.2007652 61.8547073,38.6998882 C61.2515864,47.6373946 59.6809402,55.4804938 57.2928707,61.4443264 C54.2329588,69.0841131 49.9704221,73.4434256 44.6210017,74.4013753 C43.9301705,74.5268429 43.2501901,74.5854555 42.5783478,74.5854555 Z M18.5755819,42.2541932 C19.2763595,42.2541932 19.90932,42.6910403 20.1616,43.3586745 C23.3896985,51.8749028 27.2308644,58.9862602 31.271865,63.9225406 C35.7116307,69.3478698 40.0049113,71.733586 44.0269231,71.0128341 C53.397451,69.3350483 57.6645089,52.5022408 58.5334732,37.3087546 C58.575972,36.571518 59.076915,35.9441799 59.7804054,35.748194 C61.3203078,35.3195894 62.7236717,34.6858406 63.9507108,33.8643483 C63.9507108,33.8643483 63.9507108,33.8643483 63.9507108,33.8643483 C68.1589938,31.0491116 69.3995963,26.7200212 69.7658092,24.3892544 C70.3535582,20.6426268 69.5062954,17.5526435 68.4067526,16.1523518 C68.3588285,16.0909917 68.313617,16.0342107 68.2647886,15.981093 C67.8669277,15.538751 66.9717408,14.5423368 65.0565832,16.2155435 L64.9525968,16.3062098 C64.7880271,16.4490781 64.5203752,16.680781 64.4353777,16.804417 C63.4615227,23.1071037 62.4496902,25.198841 60.4567689,25.1127537 C58.520814,25.0230032 57.6681258,22.8818115 57.3118595,17.2110419 C56.9564974,11.5613363 54.0584426,5.92262056 52.5040725,4.37762893 C52.3820015,4.96558662 52.2707813,6.074647 52.3928523,8.07663379 C52.5176359,10.1354015 50.2118513,11.2215664 48.1881862,11.9377391 C46.2151579,12.6355955 43.4970447,13.2922398 40.3268169,13.8353222 C35.4557338,14.669636 30.1171642,15.1257153 26.0454198,15.0524496 C20.2104284,14.9480459 17.3268412,13.8893557 16.6984019,11.6190331 C16.4189951,10.6116289 16.1694278,9.87805557 15.9605508,9.34779466 C15.2272209,12.1135769 14.5345813,18.3347555 15.2380716,24.4231398 C15.7281639,28.660648 16.3728794,32.0858221 16.5519168,32.8551125 C16.5618633,32.899072 16.5709056,32.9430314 16.5772352,32.9869909 C16.6984019,33.7764294 16.2679888,34.5512148 15.5364673,34.8516044 C14.8049458,35.1510781 13.9676295,34.9074695 13.511898,34.2554043 C12.5904883,32.9366207 11.8770514,31.5125175 11.1871245,30.1351213 C10.4465607,28.655153 9.74578305,27.2585246 8.92745557,26.3051539 C8.49885089,25.8032835 8.07115045,25.466261 7.61722736,25.2702751 C6.93815118,24.9772121 5.98871044,24.699718 5.32048501,25.0431513 C4.65406804,25.3847528 4.35115124,26.3115647 4.23088875,26.8326673 C3.63771435,29.3951372 4.54375207,33.8359578 7.42372229,37.3664514 C9.34792218,39.724693 12.8310133,42.486812 18.5086689,42.2532774 C18.5285619,42.2541932 18.5520719,42.2541932 18.5755819,42.2541932 Z" id="Shape" fill="#0086FF"></path>
                    </g>
                    <ellipse id="Oval" fill="#0086FF" transform="translate(453.149501, 64.149154) rotate(-1.902472) translate(-453.149501, -64.149154) " cx="453.149501" cy="64.1491542" rx="2.47204657" ry="5.0634651"></ellipse>
                    <ellipse id="Oval" fill="#0086FF" transform="translate(436.514090, 65.716549) rotate(-1.902472) translate(-436.514090, -65.716549) " cx="436.51409" cy="65.7165485" rx="2.47204657" ry="5.0634651"></ellipse>
                    <g id="Group" transform="translate(532.842000, 0.702617)">
                        <path d="M9.45665028,1.75309915 C9.45665028,1.75309915 1.45466244,18.1952375 1.79166372,20.5925368 C2.128665,22.9907473 13.6413816,23.0217272 18.9760402,22.9907473 C24.3106987,22.9597673 29.084286,3.80870813 29.084286,3.80870813 L9.45665028,1.75309915 Z" id="Path" fill="#FFFFFF"></path>
                        <path d="M17.5034521,24.7083106 C4.95463584,24.7083106 0.52611636,23.6969073 0.12368664,20.8358203 C0.02599212,20.1396832 -0.15595272,18.8439935 3.96245388,9.57006255 C5.9109666,5.18275881 7.92670032,1.03600506 7.94641848,0.994091045 C8.25832392,0.352624413 8.9269488,-0.023690529 9.62963232,0.0501145806 L29.2563718,2.10572356 C29.7430518,2.15674932 30.1840216,2.42007866 30.4645572,2.8282847 C30.7450928,3.23649074 30.8374097,3.74765946 30.7164119,4.23058178 C30.6671165,4.43012893 29.4750641,9.18008 27.5964612,14.018415 C24.7731792,21.2914074 22.0359401,24.6873536 18.985003,24.7046659 C18.479501,24.7064883 17.9847545,24.7083106 17.5034521,24.7083106 Z M3.50983248,20.0677004 C4.43927484,20.5515339 7.68649728,21.3433443 18.9661811,21.2786509 C19.1902511,21.2777398 21.24811,21.028078 24.452311,12.7865075 C25.5493577,9.96551215 26.4169567,7.11535928 26.9314214,5.30485615 L10.4515211,3.57909223 C7.22580936,10.2871566 3.92391384,17.900017 3.50983248,20.0677004 Z" id="Shape" fill="#0086FF"></path>
                    </g>
                    <g id="Group" transform="translate(197.280200, 481.706217)" fill="#0086FF">
                        <g opacity="0.13" transform="translate(54.034105, 31.815394)" id="Path">
                            <g>
                                <path d="M5.82037371,58.3648853 C2.40811996,52.9426332 0.0216136421,46.8222605 0.697940526,40.6882526 C1.37426741,34.5542446 5.61144183,28.4656873 12.307168,26.2295196 C13.676032,25.772287 15.1799813,25.4468609 16.2120327,24.5505758 C18.5147862,22.5498421 17.1711381,19.1237787 18.2545219,16.4703748 C19.9538945,12.3089213 26.3290184,11.7444254 31.2191049,10.3818175 C40.9065194,7.68205407 48.8333226,-0.699938662 58.9295952,0.464504749 C61.0117094,0.704483719 63.1757753,1.47714328 64.2123296,3.04427868 C64.7616763,3.87420595 64.94179,4.84957502 64.9473915,5.80403683 C65.0201394,16.8521596 44.9257563,21.8244511 44.8221909,32.8725738 C44.7987761,35.4114423 45.9190832,37.9203133 45.5786684,40.4428195 C44.7330346,46.699544 36.2280664,49.3874902 30.0051387,52.7335606 C22.6024662,56.7132119 17.1702375,63.2999074 15.2628336,70.6110849"></path>
                            </g>
                        </g>
                        <g opacity="0.13" transform="translate(36.022737, 0.000000)" id="Path">
                            <g>
                                <path d="M38.5794506,45.3360271 C33.6011084,32.236266 49.7879252,17.6402723 44.6474806,4.61686814 C44.2035004,3.49242122 43.5902133,2.41706091 42.704054,1.67530773 C41.0307978,0.273612386 38.6875188,0.299973713 36.663041,0.919919385 C26.8486463,3.92601959 23.4111767,17.2712137 15.7464388,24.6660203 C11.8775969,28.3984205 6.27606133,31.833574 6.62548187,37.487624 C6.84792227,41.0927626 9.65679518,44.5579135 8.45903918,47.9212551 C7.9223004,49.4283957 6.68852166,50.4655776 5.64116059,51.5991146 C0.513324,57.1468103 -0.585369474,66.1814731 1.61021634,73.7226304 C3.80580215,81.2637877 8.81026086,87.4605174 14.4370124,92.3855404 L28.73984,102.757359 C27.1359277,93.2900066 29.1036697,83.1499861 34.0811113,75.2343161 C38.2651522,68.5803538 44.8483074,61.7118648 42.7517841,53.9525447 C41.9061503,50.824637 39.7240731,48.3466723 38.5794506,45.3360271 Z"></path>
                            </g>
                        </g>
                        <g opacity="0.13" transform="translate(0.000000, 38.178473)" id="Path">
                            <g>
                                <path d="M49.4655217,57.3358846 C46.7340976,53.1598869 45.3814439,48.4412095 43.2858212,44.0034166 C41.1901984,39.5656237 38.0796351,35.1741903 33.1202048,32.9734741 C28.4804763,30.9145636 22.9626936,31.0818217 17.9294167,29.8801088 C9.24343427,27.8075631 2.21990116,21.2908615 0.494412063,13.7024356 C-0.168406295,10.7863275 -0.0576363789,7.62205933 1.63363112,5.02955925 C5.48896453,-0.879013879 15.8283906,-1.17535155 22.6204776,2.2788912 C26.3164104,4.15781746 29.4089624,6.84667273 33.2201679,8.54743278 C36.6405268,10.0736627 40.4931585,10.7390589 44.0215856,12.0725784 C57.7795693,17.2730318 63.9097386,32.3462563 60.1273512,44.8242537 C58.1280893,51.4218574 53.944949,58.6484968 57.8669245,64.5779772"></path>
                            </g>
                        </g>
                        <path d="M72.280522,145.127282 L45.4453842,145.127282 C44.7105204,145.127282 44.0810231,144.675504 43.9531424,144.054649 L33.1445202,91.7183261 C32.9797161,90.9220323 33.6938669,90.1920962 34.636762,90.1920962 L75.36677,90.1920962 C80.6594106,90.1920962 84.6498293,94.3153713 83.6745137,98.7749804 L73.7709628,144.066466 C73.6358775,144.681867 73.0099825,145.127282 72.280522,145.127282 Z" id="Path"></path>
                        <path d="M54.9013527,93.7372401 C54.3673156,93.7372401 53.8422842,93.483626 53.5135767,93.0091221 C51.7151416,90.416622 51.6070734,87.3977956 51.5116131,84.7343927 C51.4881983,84.0808136 51.4665847,83.463595 51.4224568,82.8545574 C50.9316471,76.0469722 47.1321489,69.0284963 40.9974768,63.5971541 C35.379731,58.6230445 27.7221977,54.7633828 18.8524993,52.436314 C17.9474281,52.199062 17.4043853,51.2664165 17.6403342,50.3528602 C17.8753826,49.4393039 18.8002664,48.8902611 19.7044371,49.129331 C29.082056,51.5900245 37.2177911,55.7042094 43.2308865,61.0282883 C50.12834,67.1350259 54.2367332,74.7979907 54.7995884,82.6063973 C54.8482191,83.2781567 54.8725345,83.9562791 54.8959492,84.6107672 C54.9824038,87.0141929 55.063455,89.283994 56.288228,91.0483848 C56.8240662,91.8210444 56.6385491,92.8864056 55.873066,93.4281763 C55.5749778,93.6372489 55.2363641,93.7372401 54.9013527,93.7372401 Z" id="Path"></path>
                        <path d="M58.8062173,94.9307719 C57.9776944,94.9307719 57.2536374,94.3162803 57.1329612,93.4645367 C53.4595426,67.6195289 56.2468019,40.8100601 65.1948497,15.9331492 C65.5136509,15.0459542 66.4844637,14.5878125 67.3634185,14.9096025 C68.2423732,15.2313925 68.6962597,16.2113066 68.3765579,17.0985016 C59.6176295,41.449095 56.8889072,67.6877047 60.4830757,92.9782157 C60.6154593,93.9126793 59.973354,94.778058 59.0475697,94.9125916 C58.9674191,94.9253178 58.8863679,94.9307719 58.8062173,94.9307719 Z" id="Path"></path>
                        <path d="M60.8388003,99.5012804 C60.7424394,99.5012804 60.645178,99.4930993 60.5470161,99.4758281 C59.6257346,99.3140241 59.0088452,98.4295562 59.1682458,97.5005467 C62.5390734,77.892265 76.2367191,59.957473 95.8087726,49.5247509 C96.6354944,49.0838805 97.6594407,49.4029434 98.0962164,50.2374157 C98.5329921,51.0718881 98.2168926,52.1054339 97.3901708,52.5463043 C78.7384982,62.4890694 65.6964663,79.5130321 62.5039513,98.0850409 C62.3616615,98.9149682 61.6466101,99.5012804 60.8388003,99.5012804 Z" id="Path"></path>
                    </g>
                    <g id="Group" opacity="0.1" transform="translate(606.988800, 263.068217)" fill="#0086FF">
                        <path d="M36.6745758,3.08389169 C30.9942655,0.600793111 26.1718717,0.212837021 26.1718717,0.212837021 L26.1718717,40.842257 C22.6688631,40.3627001 18.6149819,40.7326953 14.5385239,42.0887455 C4.67880567,45.3675133 -1.58398478,53.1706394 0.54996963,59.5180321 C2.68573018,65.8654247 12.4081818,68.3521155 22.2679001,65.0724497 C28.8919185,62.8686436 33.8940232,58.6244758 35.813047,54.1504081 C36.3747565,52.8455465 36.6736727,51.5209279 36.6736727,50.2223527 L36.6736727,17.1383195 C41.6947419,16.6381076 53.7344711,22.9388019 53.7344711,22.9388019 C51.0460317,11.6925655 43.2805328,5.97111121 36.6745758,3.08389169 Z" id="Path"></path>
                    </g>
                    <g id="Group" opacity="0.1" transform="translate(694.444000, 214.587617)" fill="#0086FF">
                        <path d="M26.0292387,2.24944865 C22.0910387,0.501807115 18.7476427,0.228509615 18.7476427,0.228509615 L18.7476427,28.826945 C16.3186333,28.4896648 13.5084787,28.7501658 10.682028,29.7044219 C3.84676133,32.012369 -0.495217333,37.5048262 0.984097333,41.9726462 C2.46431733,46.4404662 9.20542933,48.1908498 16.0416013,45.8829027 C20.6343573,44.3317794 24.101784,41.3437877 25.432624,38.1949252 C25.8219173,37.2763165 26.0292387,36.3439973 26.0292387,35.4299588 L26.0292387,12.143001 C29.5102453,11.7910962 37.8574187,16.2260108 37.8574187,16.2260108 C35.9933373,8.30860962 30.60932,4.28135615 26.0292387,2.24944865 Z" id="Path"></path>
                    </g>
                    <g id="Group" opacity="0.1" transform="translate(631.704400, 168.958817)" fill="#0086FF">
                        <path d="M19.86552,2.28115482 C16.8210452,0.96809104 14.2360965,0.76399722 14.2360965,0.76399722 L14.2360965,22.2399049 C12.3583941,21.9861422 10.1860058,22.1821084 8.0007249,22.8982429 C2.71571567,24.6312342 -0.64094205,28.7555549 0.502807987,32.1113631 C1.64747892,35.4662681 6.85881665,36.781138 12.1438259,35.0472436 C15.6947922,33.8822833 18.3755139,31.6390574 19.4041522,29.2739171 C19.7052845,28.5839716 19.86552,27.8840924 19.86552,27.1977592 L19.86552,9.70980864 C22.5572924,9.44520913 29.0099949,12.7757313 29.0099949,12.7757313 C27.5687962,6.83172455 23.4063564,3.80734312 19.86552,2.28115482 Z" id="Path"></path>
                    </g>
                </g>
            </g>
        </g>
    </g>
</svg>