<?xml version="1.0" encoding="UTF-8"?>
<svg width="470px" height="470px" viewBox="0 0 470 470" version="1.1" xmlns="http://www.w3.org/2000/svg" xmlns:xlink="http://www.w3.org/1999/xlink">
    <!-- Generator: sketchtool 61 (101010) - https://sketch.com -->
    <title>F18A07E6-DC5D-4333-9C7C-49797143DBA9</title>
    <desc>Created with sketchtool.</desc>
    <defs>
        <rect id="path-1" x="0" y="0" width="470" height="470"></rect>
    </defs>
    <g id="Landing---Design" stroke="none" stroke-width="1" fill="none" fill-rule="evenodd">
        <g id="04-All-Categories" transform="translate(-883.000000, -195.000000)">
            <g id="Hero" transform="translate(135.000000, 50.000000)">
                <g id="Image-Category" transform="translate(748.000000, 145.000000)">
                    <mask id="mask-2" fill="white">
                        <use xlink:href="#path-1"></use>
                    </mask>
                    <use id="Mask" fill="#FFFFFF" xlink:href="#path-1"></use>
                    <path d="M196.207298,74.7442026 C306.57929,58.4705559 301.35337,159.18999 376.416992,170.770192 C451.480615,182.350394 527.274729,345.322668 409.745267,398.731336 C292.215806,452.140003 13.3687095,507.448658 0.743482626,374.482677 C-11.8817443,241.516697 85.8353054,91.0178494 196.207298,74.7442026 Z" id="Path-4" fill="#D1E9FF" mask="url(#mask-2)"></path>
                    <g id="Group-2" mask="url(#mask-2)">
                        <g transform="translate(39.000000, 13.000000)">
                            <g id="Group" stroke-width="1" fill="none" fill-rule="evenodd" transform="translate(0.000000, 197.000000)">
                                <path d="M373.996747,13.5430673 C363.020123,9.27383654 350.971721,9.37309615 339.375777,9.49156731 C326.644947,9.62177885 313.946206,9.24822115 301.268858,8.02935577 C294.618919,7.39003846 287.777515,5.71436538 281.101905,5.70049038 C275.019944,5.68875 270.014039,9.17884615 264.886195,12.0285577 C251.561716,19.4335385 238.236167,26.8385192 224.911688,34.2435 C224.798306,34.3064712 224.709526,34.3811827 224.612189,34.451625 C223.207755,34.5743654 221.809738,34.7216538 220.426696,34.9169712 C219.416958,33.8742115 217.618897,33.5625577 216.515031,34.8379904 C215.651833,34.8027692 214.787565,34.7675481 213.924368,34.729125 C209.400869,28.8066346 204.801426,22.9449808 200.086462,17.1740481 C197.573883,14.0991346 195.032423,11.0466346 192.462084,8.01975 C190.638351,5.87125962 188.852056,3.20939423 186.300969,1.84430769 C183.615109,0.407711538 180.407265,0.675605769 177.474318,0.723634615 C173.283476,0.791942308 169.093705,0.888 164.902864,0.975519231 C156.520111,1.14949038 148.137359,1.33840385 139.756747,1.57000962 C106.25034,2.4975 72.7492813,4.15823077 39.451454,8.12327885 C37.6566017,8.33674038 36.813727,9.94624038 36.9238997,11.3465481 C32.5694039,10.5674135 28.2020724,9.86939423 23.8165571,9.30051923 C17.1291811,8.43386538 6.80717549,13.0339615 0.457805014,15.7929519 C-1.28891365,16.5518077 54.9098607,66.7899808 58.4353872,66.9906346 L51.7854485,189.734221 C51.7854485,189.734221 43.4337159,188.40649 81.9096602,200.877981 C115.922006,211.903269 125.977671,214.068837 150.150418,222 L150.150418,84.9534231 L150.150418,222 C150.150418,222 195.053816,217.573875 228.291744,214.219327 C298.325214,207.149481 262.734084,214.219327 324.846886,205.649913 L324.846886,67.6993269 L324.430797,67.7366827 C324.68751,67.4869327 324.943153,67.2478558 325.195588,67.0290577 C327.652546,64.9104519 330.138384,62.8249327 332.650964,60.7725 C338.002362,56.4008077 343.481047,52.1849423 349.078462,48.1313077 C353.809471,44.70525 358.621772,41.3923269 363.510017,38.1936058 C368.760869,34.756875 374.558306,31.8740769 379.618763,28.1875962 C387.66351,22.3302115 380.587855,16.1067404 373.996747,13.5430673 Z M131.645682,60.1630673 C137.712669,59.7510865 143.860947,58.6485577 149.739677,58.0284519 C157.73522,57.1842115 165.822752,56.6089327 173.791554,55.4754519 C168.087175,61.3531154 162.560357,67.4474423 157.690295,73.8907788 C155.858006,76.3157019 154.066362,79.4012885 156.117928,82.3043654 C156.210986,82.4367115 156.319019,82.5477115 156.420635,82.66725 L154.011811,82.8817788 C154.244992,82.0065865 154.07385,81.0396058 153.269482,80.2903558 C146.061192,73.5812596 138.853972,66.8721635 131.645682,60.1630673 Z M184.653727,80.1580096 C191.573214,78.06075 198.456334,75.7863173 205.628256,74.6421635 C219.436212,72.4403077 233.575755,71.6569038 247.512067,70.6482981 C261.511487,69.6364904 275.528022,68.8637596 289.554184,68.3269038 C290.467655,68.2916827 291.415354,68.2767404 292.381237,68.2671346 C294.917348,68.8637596 297.467365,69.3974135 300.02273,69.9054519 L184.653727,80.1580096 Z" id="Shape" fill="#FFFFFF" fill-rule="nonzero"></path>
                                <path d="M178.404903,54.9834231 C177.281783,51.2862692 172.883432,51.4869231 169.819989,51.5968558 C156.068724,52.0888846 142.322808,52.8306635 128.576891,53.4475673 C127.903019,53.4774519 127.366061,53.7122596 126.95639,54.0623365 C124.349682,52.2756635 120.849827,55.8575481 123.414819,57.9996346 C128.647487,62.368125 133.881226,66.7366154 139.113894,71.1051058 C143.180657,74.5002115 147.57473,79.6371635 152.420189,81.8475577 C156.327577,83.6299615 158.949259,81.0107885 161.779521,78.4684615 C166.061281,74.6218846 169.925883,70.3334423 173.374396,65.7301442 C175.43024,62.9860962 179.560111,58.7830385 178.404903,54.9834231 Z" id="Path" fill="#8FFFE9" fill-rule="nonzero"></path>
                                <path d="M155.244033,82.3491923 L155.244033,215.596154 C155.244033,215.596154 197.078641,211.346135 228.045727,208.125 C293.293638,201.336923 260.134864,208.125 318.003343,199.897125 L318.003343,67.4431731 L155.244033,82.3491923 Z" id="Path" stroke="#0086FF" stroke-width="3.1988" stroke-linecap="round" stroke-linejoin="round"></path>
                                <path d="M155.244033,215.596154 C132.722808,207.983048 123.35385,205.903933 91.6668969,195.317308 C55.8201226,183.342115 63.6017382,184.616481 63.6017382,184.616481 L63.6017382,61.2485192 L155.245103,82.3491923 L155.244033,215.596154 Z" id="Path" stroke="#0086FF" stroke-width="3.1988" stroke-linecap="round" stroke-linejoin="round"></path>
                                <path d="M155.244033,82.3491923 C155.244033,82.3491923 181.872669,50.2328365 192.212858,42.1586538 C202.551978,34.0844712 359.791955,26.1479712 359.791955,26.1479712 L318.002273,67.4431731 L155.244033,82.3491923 Z" id="Path" stroke="#0086FF" stroke-width="3.1988" stroke-linecap="round" stroke-linejoin="round"></path>
                                <path d="M94.3934039,31.8260481 C94.3934039,31.8260481 7.00826741,13.2847788 6.41568802,16.0821923 C6.05415042,17.7888173 63.6006685,61.2485192 63.6006685,61.2485192 L155.244033,82.3491923 L94.3934039,31.8260481 Z" id="Path" stroke="#0086FF" stroke-width="3.1988" stroke-linecap="round" stroke-linejoin="round"></path>
                                <polyline id="Path" stroke="#0086FF" stroke-width="3.1988" stroke-linecap="round" stroke-linejoin="round" points="208.767643 35.9874808 186.769471 4.98432692 37.9411253 10.6624038 46.1409694 23.1915288"></polyline>
                                <polyline id="Path" stroke="#0086FF" stroke-width="3.1988" stroke-linecap="round" stroke-linejoin="round" points="318.002273 67.4431731 376.695443 22.5340673 274.747187 8.59716346 241.681471 33.8421923"></polyline>
                                <line x1="123.35385" y1="55.8714231" x2="180.897159" y2="51.8594135" id="Path" stroke="#0086FF" stroke-width="3.1988" stroke-linecap="round" stroke-linejoin="round"></line>
                            </g>
                            <path d="M140,208.5 C128.139383,208.5 118.5,218.139383 118.5,230 C118.5,218.139383 108.878966,208.5 97,208.5 C108.878966,208.5 118.5,198.878966 118.5,187 C118.5,198.878966 128.139383,208.5 140,208.5 Z" id="Path" fill="#8FFFE9" fill-rule="nonzero"></path>
                            <path d="M278,164.5 C267.243137,164.5 258.5,173.242075 258.5,184 C258.5,173.243137 249.773856,164.5 239,164.5 C249.773856,164.5 258.5,155.773856 258.5,145 C258.501062,155.773856 267.243137,164.5 278,164.5 Z" id="Path" fill="#8FFFE9" fill-rule="nonzero"></path>
                            <path d="M115,11 C108.93169,11 104,15.9316895 104,22 C104,15.9316895 99.0778087,11 93,11 C99.0767533,11 104,6.07780869 104,0 C104,6.07780869 108.93169,11 115,11 Z" id="Path" fill="#8FFFE9" fill-rule="nonzero"></path>
                            <path d="M189,109.5 C178.241999,109.5 169.5,118.243057 169.5,129 C169.5,118.241999 160.773866,109.5 150,109.5 C160.773866,109.5 169.5,100.773866 169.5,90 C169.5,100.773866 178.241999,109.5 189,109.5 Z" id="Path" fill="#8FFFE9" fill-rule="nonzero"></path>
                            <path d="M290,48 C283.931792,48 279,52.9317922 279,59 C279,52.9317922 274.077626,48 268,48 C274.077626,48 279,43.0776256 279,37 C279,43.0776256 283.931792,48 290,48 Z" id="Path" fill="#8FFFE9" fill-rule="nonzero"></path>
                        </g>
                    </g>
                </g>
            </g>
        </g>
    </g>
</svg>