<?xml version="1.0" encoding="UTF-8"?>
<svg width="647px" height="679px" viewBox="0 0 647 679" version="1.1" xmlns="http://www.w3.org/2000/svg" xmlns:xlink="http://www.w3.org/1999/xlink">
    <!-- Generator: sketchtool 61 (101010) - https://sketch.com -->
    <title>355170BF-020C-4882-A1D9-4E0D877D7938</title>
    <desc>Created with sketchtool.</desc>
    <g id="Landing---Design" stroke="none" stroke-width="1" fill="none" fill-rule="evenodd">
        <g id="02-About" transform="translate(-690.000000, -141.000000)">
            <g id="Hero" transform="translate(135.000000, 50.000000)">
                <g id="About_Rock-n-Roll" transform="translate(555.000000, 90.000000)">
                    <ellipse id="Oval" fill="#0086FF" fill-rule="nonzero" opacity="0.13" cx="381.54" cy="645.74" rx="220.5" ry="33.32"></ellipse>
                    <g id="Group" transform="translate(301.040000, 340.000000) scale(-1, 1) translate(-301.040000, -340.000000) translate(0.040000, 34.000000)">
                        <polygon id="Path" fill="#0086FF" fill-rule="nonzero" opacity="0.13" points="515.116131 29.4579547 0 611.74 441 611.74 590.61743 81.0336478"></polygon>
                        <path d="M540.640236,70.2872874 C560.432283,86.0126039 582.065985,91.7271867 588.973769,83.0447922 C589.808695,81.9940632 590.393248,80.7673398 590.733714,79.409668 C593.191351,69.6084515 583.020336,52.6490784 565.644024,38.8408446 C548.883692,25.5165956 530.787688,19.3766929 521.463123,23.0914336 C519.028533,24.7832853 517.548294,25.9073453 517.344014,26.067626 C517.331443,26.0760067 517.322015,26.0749591 517.31992,26.0854349 C510.412136,34.7678294 520.859714,54.5535901 540.640236,70.2872874 Z" id="Path" fill="#8FFFE9" fill-rule="nonzero" transform="translate(553.143689, 54.561940) rotate(-3.000000) translate(-553.143689, -54.561940) "></path>
                        <path d="M540.640236,70.2872874 C560.432283,86.0126039 582.065985,91.7271867 588.973769,83.0447922 C589.808695,81.9940632 590.393248,80.7673398 590.733714,79.409668 C593.191351,69.6084515 583.020336,52.6490784 565.644024,38.8408446 C548.883692,25.5165956 530.787688,19.3766929 521.463123,23.0914336 C519.028533,24.7832853 517.548294,25.9073453 517.344014,26.067626 C517.331443,26.0760067 517.322015,26.0749591 517.31992,26.0854349 C510.412136,34.7678294 520.859714,54.5535901 540.640236,70.2872874 Z" id="Path" stroke="#0086FF" stroke-width="3.134824" stroke-linecap="round" stroke-linejoin="round" transform="translate(553.143689, 54.561940) rotate(-3.000000) translate(-553.143689, -54.561940) "></path>
                        <path d="M520.759443,22.697464 C530.08296,18.9827234 548.180012,25.1236737 564.940344,38.4468751 C582.317704,52.2551089 592.487671,69.2134344 590.030033,79.0156985 C590.030033,79.0156985 613.142928,28.1480551 588.520462,8.58857301 C568.303095,-7.47511389 532.804589,14.3681061 520.759443,22.697464 Z" id="Path" stroke="#0086FF" stroke-width="3.134824" stroke-linecap="round" stroke-linejoin="round" transform="translate(560.314394, 40.928722) rotate(-3.000000) translate(-560.314394, -40.928722) "></path>
                    </g>
                    <g id="Group" transform="translate(96.360000, 44.020000)">
                        <path d="M459.660413,15.2408125 C458.321727,13.101402 455.668427,12.0552586 453.23388,11.9976631 C449.689867,11.9128407 445.63822,15.4931855 442.047107,15.4324484 C443.6349,10.7944411 443.699793,5.62131933 439.261927,2.39701936 C434.555067,-1.02310525 429.707953,1.41266017 427.283873,6.09150793 C426.535507,7.536631 425.732713,11.8636227 422.803093,10.3043559 C422.023327,9.88966836 421.47278,7.68742645 420.567413,6.9889503 C419.03928,5.81086084 417.03282,5.60142271 415.298493,6.55750776 C409.88932,9.5388595 408.61134,19.3698852 408.528653,24.9042877 C395.11876,39.1020983 380.946893,52.9742327 369.423093,68.7438765 C363.55548,76.7726871 357.73706,84.4999068 350.10372,90.9526955 C343.442733,96.5834395 335.956973,101.196314 328.188613,105.128515 C320.266393,109.138208 312.000867,112.405443 303.60974,115.289406 C295.280367,118.152425 286.563727,120.112766 278.366233,123.317169 C270.101753,126.547752 265.649233,132.417256 260.008747,138.911932 C254.112873,145.700869 247.18394,151.335802 239.483613,155.915167 C228.91542,147.330298 211.982447,145.899835 199.435007,144.000231 C180.756193,141.172817 161.938173,139.501501 143.439387,135.538931 C134.320827,133.585921 124.167113,131.85282 116.172673,126.793842 C108.32058,121.82597 101.631333,114.712404 94.7474067,108.516177 C79.7989133,95.0597771 64.8493733,81.6033775 49.90088,68.1469778 C49.1253,67.4485016 48.2324933,67.3249331 47.4443533,67.5511263 C45.5729133,65.3666867 44.08246,62.9152134 42.9667133,60.0982706 C41.9148133,57.4425951 41.1329533,54.79425 38.3237,53.4894505 C34.7744533,51.8411724 31.67318,53.3585516 30.1105067,56.0226046 C26.7842,52.8213428 23.4411467,49.515362 19.8311933,46.7968551 C17.5348067,45.0679434 15.9396867,44.7810131 13.2905733,45.9517723 C10.8068333,47.0492281 7.00429333,48.6451466 6.95300667,51.7668219 C6.92893333,53.2119449 7.67834667,54.3774681 8.43299333,55.5482273 C6.96556667,55.0843218 5.43743333,54.8727893 3.86115333,54.7963444 C2.97567333,54.7534096 2.02111333,55.3188925 1.6014,56.0927664 C-2.02111333,62.7717483 3.47493333,68.9428427 7.43342667,74.0573217 C12.7410733,80.9164204 18.6045,87.225744 26.54556,90.9924887 C27.06366,91.2385785 27.5681533,91.2993156 28.03706,91.2417201 C49.9751933,112.32062 65.8573133,139.389451 82.8666933,164.379608 C83.5344667,165.360826 84.53508,165.657181 85.46452,165.516857 C85.5660467,165.567123 85.6612933,165.623671 85.7743333,165.664511 C116.997447,176.870498 147.440793,190.070336 176.971447,205.183392 C173.355213,225.09991 169.740027,245.016429 166.123793,264.933995 C165.18912,270.080937 164.208393,275.220548 163.32082,280.375868 C162.869707,282.990703 162.120293,285.559462 163.92684,287.820346 C165.761647,290.116835 169.56942,290.571316 172.174573,291.290736 C176.657447,292.528515 181.141367,293.767342 185.62424,295.005121 C178.04742,329.361351 158.024687,359.792711 152.8552,394.830663 C152.85206,394.854748 152.8552,394.876739 152.85206,394.901872 C147.577907,407.884941 141.84008,420.802038 137.254633,434.036433 C132.466133,447.859349 132.907827,462.673955 132.252613,477.117856 C131.009173,504.505032 129.765733,531.893256 128.522293,559.280433 C128.374713,559.596685 128.288887,559.965296 128.282607,560.386266 L128.205153,566.269383 C128.16852,567.066295 128.132933,567.86216 128.0963,568.659072 C128.084787,568.921917 128.11514,569.156488 128.163287,569.378492 L128.045013,578.312076 C127.969653,583.980519 128.521247,590.232247 126.67388,595.680779 C123.322453,605.565212 110.849327,611.308005 102.75964,616.761774 C101.442933,617.648745 100.89762,619.683436 102.230027,620.873045 C104.893793,623.252262 107.859,624.803151 111.1246,625.479636 C111.524427,625.790652 112.048807,625.981241 112.70402,625.96926 C118.9118,625.851389 125.1133,625.599016 131.306427,625.15396 C136.11272,624.808387 142.437727,625.270198 146.834773,622.999889 C150.466707,621.12437 151.091567,617.14714 151.861913,613.481973 C153.039413,607.87322 154.04212,602.233051 154.920273,596.569844 C154.97156,596.50073 155.02808,596.442087 155.07518,596.364595 C161.134333,586.465502 163.56574,575.272081 165.11062,563.894355 C166.87844,550.875681 168.496587,538.005708 171.54762,525.200661 C177.517807,500.149767 185.97592,475.728234 189.397473,450.130706 C192.304067,444.775373 196.3913,439.92688 200.02742,435.165305 C206.565947,426.603474 212.93282,417.909697 219.123853,409.092352 C230.393313,393.042061 241.04838,376.572894 251.13406,359.75606 C253.431493,362.916481 256.075373,365.697819 258.93696,368.247729 C268.009467,380.146956 277.49436,391.727837 287.417807,402.93173 C299.622987,416.712758 313.508067,429.439266 323.557113,444.960726 C319.703287,485.554024 315.33136,526.257276 304.02108,565.544727 C303.489373,565.829563 303.039307,566.301846 302.792293,567.013936 C299.639733,576.145438 293.215293,590.79773 304.034687,596.805462 C309.54434,599.864306 315.399393,602.594332 321.30992,604.786102 C327.880893,607.222915 334.949033,608.146537 341.100293,611.643106 C342.920447,612.677731 345.816573,610.916356 344.9447,608.686887 C340.814553,598.130158 336.056407,587.868737 330.633627,577.91519 C337.30194,557.635297 347.71418,538.490557 355.89074,518.792901 C363.50524,500.449263 370.502207,481.858488 376.929787,463.067699 C377.407067,462.770297 377.79852,462.296967 377.99006,461.595349 C380.067693,454.003217 385.238227,447.480266 386.404213,439.611676 C387.64556,431.237292 383.508087,422.729916 380.639173,415.08333 C374.505707,398.733542 367.242887,382.802631 358.885253,367.470713 C350.341313,351.796364 340.66174,336.739857 329.936547,322.46979 C322.389033,312.427232 314.4553,301.924957 303.76046,295.304618 C307.82676,294.903544 311.892013,294.503517 315.958313,294.102443 C321.0807,293.597697 328.653333,294.280465 333.239827,291.564053 C337.601287,288.980633 336.62998,284.56463 335.472367,280.416708 C333.422993,273.070666 331.303493,265.743473 329.21958,258.407903 C321.629153,231.690928 315.1461,204.141437 302.93778,179.055985 C322.5722,160.167808 345.661667,146.373165 367.70028,130.603522 C377.899,123.30565 386.531907,114.910323 393.610513,104.524286 C400.712147,94.1036921 407.02564,83.0924825 413.49718,72.2488235 C414.174373,72.0027337 414.764693,71.4854215 415.059853,70.6246308 C415.355013,69.7638401 415.677387,68.9229461 415.99976,68.0830992 C416.07198,67.9637194 416.142107,67.8443397 416.214327,67.72496 C416.450873,67.3343579 416.56496,66.9510861 416.595313,66.582475 C423.15582,50.5981571 434.819873,38.517766 449.79558,29.7077511 C454.294153,27.0625476 463.857547,21.9470213 459.660413,15.2408125 Z" id="Path" fill="#FFFFFF" fill-rule="nonzero"></path>
                        <path d="M270.46076,85.6005041 C269.203713,82.9511118 267.48404,80.8085598 265.63144,78.5696662 C263.00326,75.3924898 262.492487,72.8467694 261.498153,69.043373 C260.113413,63.7487771 257.52396,62.0879328 252.640213,60.2825761 C246.78516,58.1190803 244.746253,50.6463279 240.2571,46.34028 C236.29442,42.538978 231.346827,39.6351184 225.91672,38.6078243 C216.299947,36.7888542 205.295293,41.6844704 201.568113,51.0631098 C200.405267,53.9889604 200.3634,56.8959616 200.12162,59.9977403 C199.765753,64.5750105 197.357373,66.357329 195.17298,70.048676 C192.633767,74.3400632 193.48366,78.8398414 194.236213,83.3741768 C193.589373,86.3544814 193.067087,89.3641073 192.691333,92.4093376 C192.0267,97.805511 190.64196,104.819594 194.4288,109.413619 C196.122307,111.468207 198.505567,112.625353 200.800907,113.851613 C204.30724,115.72399 207.10184,117.857117 209.493473,121.074087 C213.470807,126.422089 215.741027,132.812047 219.515307,138.290948 C225.28244,146.664284 236.979987,153.833352 246.391613,146.395156 C250.431747,143.202272 252.454953,138.2344 253.744447,133.389049 C255.776027,125.756076 256.84258,119.520056 262.76148,113.743752 C266.625773,109.971772 270.70882,106.336973 272.202413,100.932422 C273.61018,95.8357454 272.697487,90.3160035 270.46076,85.6005041 Z" id="Path" fill="#FFFFFF" fill-rule="nonzero"></path>
                        <path d="M215.217693,120.957849 C210.45536,119.826883 198.826893,115.795199 197.162693,103.145136 C198.575693,108.883741 203.70436,115.397266 212.726627,115.03075 C213.50116,117.041356 214.328027,119.031018 215.217693,120.957849 Z" id="Path" fill="#0086FF" fill-rule="nonzero"></path>
                        <path d="M253.32578,113.920728 C253.503713,112.182391 253.650247,110.412639 253.754913,108.642887 C255.513313,108.161179 257.03098,107.459561 258.339313,106.590393 C266.04278,101.501047 266.23118,90.8406461 263.112113,86.9241531 C263.038847,86.8299059 262.96558,86.7356588 262.892313,86.6518835 C261.52118,85.143929 259.584847,84.8821313 257.40778,86.7566026 C256.926313,87.1754788 256.350647,87.6257708 256.24598,88.2855009 C254.77018,97.8044638 253.032713,96.4850036 252.551247,88.8928715 C251.933713,79.2796614 243.549913,67.1113063 244.355847,80.2116611 C244.575647,83.7197497 213.803647,87.8142651 212.484847,83.1019073 C209.009913,70.713642 206.644447,86.5576364 207.774847,96.212734 C208.245847,100.25489 208.884313,103.689675 209.104113,104.600731 C207.272447,102.01417 206.22578,98.7469354 204.488313,96.7468012 C203.93358,96.1080149 203.316047,95.6053634 202.58338,95.3016782 C199.621313,94.0345775 197.768713,95.2493186 197.067447,97.5845537 C197.30818,94.9142176 197.925713,91.9401962 199.024713,88.6415457 C195.528847,79.0388076 195.11018,67.1531939 205.807113,66.9961153 C200.437713,58.5348149 204.959313,45.0051119 220.38718,42.2300568 C245.16178,37.7690246 244.868713,61.7182745 244.868713,61.7182745 C244.868713,61.7182745 258.31838,57.7389501 258.150913,73.4363377 C275.76736,95.5006444 258.297447,110.433583 253.32578,113.920728 Z" id="Path" fill="#0086FF" fill-rule="nonzero"></path>
                        <path d="M285.4417,150.695968 C285.4417,150.695968 329.726167,247.78939 329.726167,287.093596 C329.726167,287.093596 199.328247,296.118285 182.300027,289.687487" id="Path" stroke="#0086FF" stroke-width="3.134824" stroke-linecap="round" stroke-linejoin="round"></path>
                        <path d="M192.241267,150.695968 C192.241267,150.695968 118.950527,136.713879 108.017047,135.498091" id="Path" stroke="#0086FF" stroke-width="3.134824" stroke-linecap="round" stroke-linejoin="round"></path>
                        <line x1="186.3747" y1="205.06087" x2="167.54412" y2="281.634591" id="Path" stroke="#0086FF" stroke-width="3.134824" stroke-linecap="round" stroke-linejoin="round"></line>
                        <path d="M175.440173,197.160864 C175.440173,197.160864 116.461553,175.282957 95.8087267,164.344004" id="Path" stroke="#0086FF" stroke-width="3.134824" stroke-linecap="round" stroke-linejoin="round"></path>
                        <line x1="103.157373" y1="130.917679" x2="48.4889267" y2="75.190382" id="Path" stroke="#0086FF" stroke-width="3.134824" stroke-linecap="round" stroke-linejoin="round"></line>
                        <line x1="41.8070067" y1="75.190382" x2="31.4805933" y2="88.6174603" id="Path" stroke="#0086FF" stroke-width="3.134824" stroke-linecap="round" stroke-linejoin="round"></line>
                        <path d="M36.6438,93.4795665 C36.6438,93.4795665 72.7852,145.503997 89.1864667,160.696639" id="Path" stroke="#0086FF" stroke-width="3.134824" stroke-linecap="round" stroke-linejoin="round"></path>
                        <path d="M276.2729,132.133467 C276.2729,132.133467 333.978773,112.552049 352.808307,97.9657311" id="Path" stroke="#0086FF" stroke-width="3.134824" stroke-linecap="round" stroke-linejoin="round"></path>
                        <polyline id="Path" stroke="#0086FF" stroke-width="3.134824" stroke-linecap="round" stroke-linejoin="round" points="358.27086 91.6909648 411.121247 29.7307893 424.485087 43.1013194"></polyline>
                        <line x1="419.625413" y1="49.7865844" x2="375.88626" y2="114.78466" id="Path" stroke="#0086FF" stroke-width="3.134824" stroke-linecap="round" stroke-linejoin="round"></line>
                        <line x1="367.382093" y1="121.468878" x2="297.532793" y2="177.713487" id="Path" stroke="#0086FF" stroke-width="3.134824" stroke-linecap="round" stroke-linejoin="round"></line>
                        <path d="M291.458987,295.612492 C291.458987,295.612492 343.982813,340.768399 372.531693,409.712289" id="Path" stroke="#0086FF" stroke-width="3.134824" stroke-linecap="round" stroke-linejoin="round"></path>
                        <line x1="334.870533" y1="436.130814" x2="251.368513" y2="351.905271" id="Path" stroke="#0086FF" stroke-width="3.134824" stroke-linecap="round" stroke-linejoin="round"></line>
                        <path d="M377.39032,441.285087 C376.783253,444.506245 325.7593,573.55783 325.7593,573.55783 L310.482153,566.497671 L334.870533,448.37352" id="Path" stroke="#0086FF" stroke-width="3.134824" stroke-linecap="round" stroke-linejoin="round"></path>
                        <polyline id="Path" stroke="#0086FF" stroke-width="3.134824" stroke-linecap="round" stroke-linejoin="round" points="150.90526 587.46138 133.22078 590.903496 141.903927 453.492188"></polyline>
                        <line x1="150.90526" y1="587.46138" x2="182.981407" y2="456.058852" id="Path" stroke="#0086FF" stroke-width="3.134824" stroke-linecap="round" stroke-linejoin="round"></line>
                        <line x1="251.368513" y1="351.905271" x2="185.258953" y2="443.193068" id="Path" stroke="#0086FF" stroke-width="3.134824" stroke-linecap="round" stroke-linejoin="round"></line>
                        <path d="M145.853,438.028324 C145.853,438.028324 179.48554,326.541267 192.241267,303.98897" id="Path" stroke="#0086FF" stroke-width="3.134824" stroke-linecap="round" stroke-linejoin="round"></path>
                        <line x1="217.703527" y1="153.374682" x2="236.914047" y2="164.060215" id="Path" stroke="#0086FF" stroke-width="3.134824" stroke-linecap="round" stroke-linejoin="round"></line>
                        <line x1="256.01362" y1="150.894935" x2="241.831287" y2="161.391974" id="Path" stroke="#0086FF" stroke-width="3.134824" stroke-linecap="round" stroke-linejoin="round"></line>
                        <g transform="translate(300.193333, 569.470134)" fill="#0086FF" fill-rule="nonzero" id="Path">
                            <path d="M6.90808667,0.645580736 C13.1137733,4.26153 18.2811667,7.38634686 25.20696,12.4474192 L38.6576733,38.0669381 L0.764153333,19.9589176 L6.90808667,0.645580736 Z"></path>
                        </g>
                        <g transform="translate(107.540000, 594.535518)" fill="#0086FF" fill-rule="nonzero" id="Path">
                            <path d="M43.36526,0.102259231 C36.2646733,1.17353525 30.30914,2.17150793 22.0059333,4.32034311 L0.0594266667,23.1708217 L41.9564467,20.321416 L43.36526,0.102259231 Z"></path>
                        </g>
                        <path d="M197.162693,103.145136 C196.691693,101.239249 196.628893,99.4276093 196.963827,97.9720143 C196.995227,97.8358795 197.026627,97.7102166 197.068493,97.5845537 C196.901027,99.6056317 196.942893,101.459159 197.162693,103.145136 Z" id="Path" stroke="#0086FF" stroke-width="3.134824" stroke-linecap="round" stroke-linejoin="round"></path>
                        <path d="M258.339313,106.590393 C257.03098,107.459561 255.513313,108.161179 253.754913,108.642887 C253.650247,110.412639 253.503713,112.182391 253.32578,113.920728 C251.734847,128.539509 247.01438,141.409482 238.086313,142.99074 C229.482713,144.509166 221.161713,133.995372 215.216647,120.957849 C214.32698,119.031018 213.500113,117.041356 212.72558,115.03075 C203.703313,115.397266 198.574647,108.883741 197.161647,103.145136 C196.941847,101.459159 196.89998,99.6056317 197.067447,97.5845537 C197.768713,95.2493186 199.621313,94.0345775 202.58338,95.3016782 C203.316047,95.6053634 203.93358,96.1080149 204.488313,96.7468012 C206.22578,98.7469354 207.272447,102.01417 209.104113,104.600731 C208.884313,103.689675 208.245847,100.25489 207.774847,96.212734 C206.644447,86.5576364 209.009913,70.713642 212.484847,83.1019073 C213.803647,87.8142651 244.575647,83.7197497 244.355847,80.2116611 C243.549913,67.1113063 251.933713,79.2796614 252.551247,88.8928715 C253.032713,96.4850036 254.77018,97.8044638 256.24598,88.2855009 C256.350647,87.6257708 256.926313,87.1754788 257.40778,86.7566026 C259.584847,84.8821313 261.52118,85.143929 262.892313,86.6518835 C262.96558,86.7356588 263.038847,86.8299059 263.112113,86.9241531 C266.232227,90.8406461 266.043827,101.501047 258.339313,106.590393 Z" id="Path" stroke="#0086FF" stroke-width="3.134824" stroke-linecap="round" stroke-linejoin="round"></path>
                        <path d="M25.46854,83.4474802 C11.6734733,73.1713985 4.42530667,62.6104809 4.38239333,61.8973441 C4.36564667,61.6198386 4.1762,61.5664318 5.55570667,60.3495963 C6.18789333,59.7924909 15.93236,70.0308737 16.7037533,69.3962762 C17.5212,68.7229326 20.70202,65.3635451 21.5634267,64.6891543 C22.2312,64.1666062 14.95582,53.0318282 15.5890533,52.5564036 C17.09416,51.4264849 18.4265667,50.4882021 19.2283133,50.0190607 C19.2283133,50.0190607 26.3529733,62.0219598 33.5896267,67.4788702 C35.0403067,68.5731844 34.01562,62.0240541 33.5498533,60.2668683 C37.51358,58.0363522 38.3477733,61.0103736 38.3477733,66.3060167" id="Path" stroke="#0086FF" stroke-width="3.134824" stroke-linecap="round" stroke-linejoin="round"></path>
                        <path d="M429.20346,37.9679909 C442.998527,27.6919092 453.1491,20.4160286 453.192013,19.703939 C453.20876,19.4264335 453.398207,19.3730268 452.0187,18.1561912 C451.386513,17.5990858 438.73964,24.5524316 437.969293,23.9167869 C437.151847,23.2434433 433.971027,19.8840558 433.10962,19.209665 C432.441847,18.6871169 439.717227,7.55233886 439.083993,7.07691431 C437.578887,5.94699562 436.24648,5.00871281 435.444733,4.5395714 C435.444733,4.5395714 428.320073,16.5424705 421.08342,21.9993809 C419.63274,23.0936951 420.657427,16.5445648 421.123193,14.787379 C417.159467,12.5568629 416.325273,15.5308843 416.325273,20.8265274" id="Path" stroke="#0086FF" stroke-width="3.134824" stroke-linecap="round" stroke-linejoin="round"></path>
                        <ellipse id="Oval" fill="#0086FF" fill-rule="nonzero" transform="translate(239.113431, 99.467747) rotate(-1.902472) translate(-239.113431, -99.467747) " cx="239.113431" cy="99.4677467" rx="2.426299" ry="4.96812421"></ellipse>
                        <ellipse id="Oval" fill="#0086FF" fill-rule="nonzero" transform="translate(222.787876, 101.005741) rotate(-1.902472) translate(-222.787876, -101.005741) " cx="222.787876" cy="101.005741" rx="2.426299" ry="4.96812421"></ellipse>
                    </g>
                    <path d="M647.12,412.5 C634.685802,412.5 624.58,422.605802 624.58,435.04 C624.58,422.605802 614.493085,412.5 602.04,412.5 C614.493085,412.5 624.58,402.413085 624.58,389.96 C624.58,402.413085 634.685802,412.5 647.12,412.5 Z" id="Path" fill="#8FFFE9" fill-rule="nonzero"></path>
                    <path d="M427.6,23.44 C415.165802,23.44 405.06,33.5458023 405.06,45.98 C405.06,33.5458023 394.973085,23.44 382.52,23.44 C394.973085,23.44 405.06,13.3530851 405.06,0.9 C405.06,13.3530851 415.165802,23.44 427.6,23.44 Z" id="Path" fill="#8FFFE9" fill-rule="nonzero"></path>
                    <path d="M79.7,454.64 C67.2658023,454.64 57.16,464.745802 57.16,477.18 C57.16,464.745802 47.0730851,454.64 34.62,454.64 C47.0730851,454.64 57.16,444.553085 57.16,432.1 C57.16,444.554134 67.264753,454.64 79.7,454.64 Z" id="Path" fill="#8FFFE9" fill-rule="nonzero"></path>
                </g>
            </g>
        </g>
    </g>
</svg>