<?xml version="1.0" encoding="UTF-8"?>
<svg width="855px" height="658px" viewBox="0 0 855 658" version="1.1" xmlns="http://www.w3.org/2000/svg" xmlns:xlink="http://www.w3.org/1999/xlink">
    <!-- Generator: sketchtool 61 (101010) - https://sketch.com -->
    <title>E44E9275-D401-43CF-9D62-E2B9F6BE93D9</title>
    <desc>Created with sketchtool.</desc>
    <g id="Landing---Design" stroke="none" stroke-width="1" fill="none" fill-rule="evenodd">
        <g id="03-License" transform="translate(-585.000000, -162.000000)">
            <g id="Hero" transform="translate(135.000000, 50.000000)">
                <g id="About_Confused-Box" transform="translate(450.000000, 112.000000)">
                    <path d="M0,619 L855,619 C855,619 795.717506,332.581624 654.384937,369.668341 C523.552838,403.999946 455.704312,299.571532 372.512812,298.027987 C244.269225,295.647554 212.2452,445.922251 116.061975,441.868043 C19.87875,437.813835 0,533.49656 0,533.49656 L0,619 Z" id="Path" fill="#0086FF" fill-rule="nonzero" opacity="0.13"></path>
                    <g id="Group" transform="translate(448.000000, 0.000000)">
                        <path d="M256.318183,105.59992 C250.551187,97.4323128 237.766805,94.5652113 228.829942,91.7119967 C206.413917,84.5559933 183.022631,80.7638136 159.510373,80.1837704 C163.59127,72.940173 163.9499,63.1424626 160.864606,55.9789817 C160.661203,55.5068286 160.365734,55.1799534 160.022091,54.9663095 C159.736257,53.7058103 159.570324,52.4228785 159.551054,50.9989418 C159.522149,48.9500965 160.013527,46.9984592 159.52429,44.949614 C159.251303,43.8044825 158.756714,42.6379867 158.025535,41.7075674 C157.378929,40.88397 155.789178,40.3466556 155.311718,39.6053111 C153.656664,37.0362429 156.475394,30.5756506 156.333012,27.2684426 C156.155303,23.1066589 154.87922,19.2845691 152.910498,15.646213 C152.626805,15.1217171 152.249975,14.7788186 151.835676,14.5705158 C149.505112,11.0325724 146.828763,7.7146822 143.100075,5.63592679 C140.596083,3.36168719 137.822315,1.49978037 134.35912,0.706093178 C128.730224,-0.58324792 122.954664,0.891963394 117.682257,2.8564193 C113.403311,4.450203 108.715419,6.07816972 105.738249,9.72720799 C102.404589,13.8120799 102.480598,19.381777 100.074025,23.9088918 C99.9316432,24.177015 99.8524232,24.4408652 99.8010373,24.6993744 C97.1375353,29.1987155 93.61439,33.1180133 91.1371618,37.7701098 C88.1118174,43.45197 84.840249,50.0482263 83.8521411,56.4575441 C81.9337344,68.9108486 85.3412614,83.3157903 89.0603154,95.5223361 C88.8376432,96.1504493 88.8708299,96.8811115 89.30761,97.6320699 C89.9916846,98.8071115 90.6757593,99.9810849 91.3587635,101.156126 C91.5118506,101.419977 91.6660083,101.676349 91.8233776,101.928449 C92.5888133,103.492323 93.5105477,104.956852 94.5939336,106.307082 C96.9073693,110.035168 99.9102324,113.1298 103.753469,113.616908 C111.656191,114.619967 120.76434,112.856336 126.873909,107.675471 C127.186506,107.409484 127.402755,107.122133 127.546207,106.825168 C127.885568,106.538885 128.217436,106.24192 128.551444,105.947092 C129.584515,105.919318 130.58868,105.355298 130.962299,104.077707 C131.547884,102.071591 148.197983,105.154473 149.794158,105.372389 C155.716382,106.181032 161.620407,107.115724 167.513726,108.109168 C173.756041,109.162433 179.986581,110.289404 186.213909,111.42599 C187.134573,111.5937 187.879668,111.640702 188.588365,111.612928 C187.621668,111.734705 186.49439,111.888529 186.205344,111.955827 C183.222822,112.651238 180.236017,113.331694 177.237436,113.959807 C164.918739,116.539557 152.064772,118.393987 139.507344,116.450895 C135.751892,115.869784 132.328307,114.411664 128.922921,116.704063 C124.352788,119.781604 120.392863,124.774463 116.492888,128.863607 C107.789402,125.810636 100.017286,121.120083 93.2461245,114.856043 C93.0876846,113.68207 92.2462407,112.659784 90.7025228,112.749514 C69.6674938,113.973694 52.8300498,129.691478 40.8389378,145.756433 C33.9778506,154.947394 28.3618008,164.984386 23.1322158,175.165587 C18.3629627,184.449484 14.4426473,195.061178 7.37387552,202.945707 C6.99490456,203.077098 6.62449793,203.315311 6.29048963,203.714825 C5.85906224,204.231844 5.46510373,204.758476 5.08720332,205.290449 C4.9726556,205.398339 4.86560166,205.512639 4.74891286,205.619461 C4.26074689,206.065977 4.00809959,206.564835 3.93316183,207.063694 C-2.95361826,218.769245 1.55977593,233.428423 4.01024066,246.142373 C5.69848133,254.900705 7.38565145,263.65797 9.07389212,272.416303 C10.5009212,279.821201 11.2299585,287.796529 14.9554357,294.483584 C15.0774772,294.702569 15.2187884,294.883098 15.3686639,295.044399 C17.8426805,303.595498 18.1799004,312.474539 19.2226058,321.324739 C19.9762656,327.719101 20.5575685,338.593577 25.6940166,343.178376 C28.1209295,345.345794 30.8486639,344.603381 33.7401909,344.055384 C37.2119502,343.397361 42.2756017,343.359973 45.2773942,341.558955 C47.4784232,340.238636 47.620805,338.491028 47.4505892,336.163378 C47.0994523,331.359594 46.1209793,326.502399 45.326639,321.710366 C50.3132116,319.644429 53.0709212,313.982865 51.0401079,308.619334 C49.5231535,304.613511 46.3971784,301.463331 44.7646058,297.467121 C43.792556,295.087128 42.3944315,291.574822 41.6086556,288.103108 C41.8998423,287.796529 42.1203734,287.384196 42.2092282,286.830859 C42.3548216,285.92394 42.4672282,285.020226 42.5635768,284.116512 C43.5045809,285.120639 44.4595021,286.113015 45.5535934,286.95584 C47.9558838,288.805997 50.60761,290.242752 53.282888,291.656007 C54.2945477,292.191185 55.2644564,292.029884 56.0031286,291.52782 C55.9271203,297.096449 38.6004398,483.642849 38.1722241,497.82026 C37.6465892,515.200193 37.1220249,532.580126 36.59639,549.961128 C36.5814025,550.449304 36.6863154,550.860569 36.8608133,551.210945 C36.459361,554.337624 36.0675436,557.465371 35.6928548,560.595255 C35.3160249,561.006519 35.0526722,561.549175 35.0012863,562.23604 C34.6769129,566.625354 34.35361,571.014669 34.0292365,575.403983 C32.535834,589.746968 31.3625228,604.122 30.5082324,618.521601 C29.2524896,619.761804 27.8061909,620.857797 26.5311784,622.083045 C24.2958921,624.231235 22.1890705,626.496928 20.1475519,628.827784 C18.7301577,630.445068 19.4185145,632.529165 21.3283568,633.290805 C24.5228465,634.565191 27.3651286,636.323481 29.8573444,638.706679 C31.0092448,639.809082 32.0647967,641.323817 33.7102158,641.755378 C35.8245311,642.309784 38.5244315,641.244769 40.5638091,640.785434 C43.8300249,640.050499 47.1519087,639.422386 50.3431867,638.401168 C53.977668,637.237877 57.9204647,635.745574 59.3143071,631.917075 C60.8269793,627.759564 61.0335934,622.670566 61.2990871,617.894556 C61.8429212,617.4662 62.2293859,616.815654 62.2722075,615.937577 C62.6244149,608.769824 65.3521494,601.702483 67.3187303,594.849854 L73.1959917,574.361401 C76.7769461,561.877118 81.3288797,549.289218 82.9603817,536.366965 C83.03639,535.766626 82.9250539,535.278449 82.6991701,534.891754 C85.1389295,520.209075 91.129668,506.346789 94.1860581,491.788023 C95.8143485,484.032749 97.008,476.161038 99.8138838,468.709138 C101.734432,463.607321 104.061784,458.916769 105.264,453.704925 C111.21727,442.93193 113.213826,430.482899 117.034581,418.887374 C119.199212,412.315687 121.659311,405.855095 124.116199,399.389161 C124.682515,397.896859 125.211361,396.433398 125.668481,394.976346 C128.405851,405.55813 131.77912,415.990363 133.751054,426.76229 C136.197237,440.131058 136.689685,453.757268 141.643071,466.434899 C141.618448,466.719045 141.624871,467.01601 141.70195,467.338612 C145.619054,483.84581 148.809261,500.498286 151.284349,517.275744 C150.882896,517.831218 150.706257,518.560812 150.946058,519.425002 C154.038846,530.572942 155.616822,541.823431 156.097494,553.367681 C156.503228,563.122662 157.039568,572.642636 161.033751,581.696865 C161.223237,582.12629 160.747917,592.982606 161.033751,593.206932 C162.848315,600.758176 159.411884,598.567258 160.022091,606.31185 C160.347535,610.441587 159.839029,614.86599 160.022091,619 C160.149485,621.882057 165.115851,626.35806 167,628.827784 C168.645419,630.983451 172.466041,629.779567 174.946481,630.133148 C178.881784,630.693963 182.827793,631.181072 186.783436,631.577381 C196.251286,632.52596 205.754465,632.924406 215.268349,632.890223 C217.804456,632.880609 218.513154,630.070123 217.161062,628.331062 C210.451992,619.707324 202.479685,612.37827 193.421851,606.31185 C193.657369,605.923018 193.858631,605.510686 194.012788,605.073784 C195.273884,601.492043 194.841386,596.954246 195.025519,593.206932 C195.057635,592.543567 194.882066,592.011594 194.579104,591.604602 C196.351917,571.268905 196.621693,550.861637 195.380938,530.481075 C196.169925,527.497537 195.32634,523.596399 195.379867,520.880985 C195.521178,513.794416 196.212747,506.732416 196.981394,499.69178 C198.410564,486.593271 200.036714,473.521468 199.321593,460.336433 C199.599934,459.961488 199.800124,459.505358 199.855793,458.949884 C201.18112,445.881285 200.816066,432.828709 198.888025,419.894705 C198.814158,417.765744 198.505842,415.658146 197.934174,413.521707 C197.520946,409.372742 196.928938,405.243005 196.15922,401.128223 C195.826282,394.133521 194.338232,387.526582 192.708871,380.668612 C190.670564,372.088672 190.16527,363.451048 189.969361,354.663874 C189.628929,339.411834 188.449195,324.880842 183.549336,310.43424 C187.430041,309.823218 191.342863,309.5583 195.344539,309.690759 C197.517734,309.762329 198.315286,307.665414 197.74683,306.07804 C200.646921,296.044253 199.060382,285.592792 197.279004,275.439364 C195.195734,263.570376 192.350241,251.846666 189.644988,240.109068 C184.184166,216.414889 178.723344,192.721777 173.262523,169.027597 C196.362622,152.767158 221.020357,138.84612 245.371917,124.56616 C246.133071,124.119644 246.518465,123.482985 246.625519,122.81428 C252.436407,118.649291 261.416091,112.81788 256.318183,105.59992 Z" id="Path" fill="#FFFFFF" fill-rule="nonzero"></path>
                        <path d="M109.484065,71.6415385 C108.547829,73.8169979 106.686638,75.2994682 105.321764,74.9485876 C103.945611,74.5977071 103.584652,72.5450559 104.520888,70.3608245 C105.445844,68.1765932 107.318315,66.6941229 108.683189,67.0537754 C110.059342,67.404656 110.409021,69.4573072 109.484065,71.6415385 Z" id="Path" fill="#0086FF" fill-rule="nonzero" transform="translate(107.000000, 71.000000) rotate(-7.000000) translate(-107.000000, -71.000000) "></path>
                        <path d="M124.486845,75.6354632 C123.550238,77.8179508 121.688307,79.2992375 120.311607,78.9486371 C118.946192,78.5892717 118.58509,76.5382593 119.521698,74.3645368 C120.447021,72.1820492 122.308951,70.7007625 123.685651,71.0513629 C125.051066,71.4107283 125.412168,73.4617407 124.486845,75.6354632 Z" id="Path" fill="#0086FF" fill-rule="nonzero" transform="translate(122.000000, 75.000000) rotate(-7.000000) translate(-122.000000, -75.000000) "></path>
                        <path d="M140.964349,65.4626356 C140.771651,65.8899235 140.632481,66.1783428 140.58966,66.2424359 C140.600365,66.189025 140.664598,66.028792 140.793062,65.7510549 C140.835884,65.6549151 140.889411,65.5587754 140.964349,65.4626356 Z" id="Path" fill="#0086FF" fill-rule="nonzero"></path>
                        <path d="M134.915801,91.5699235 C139.069494,85.8015374 141.670905,80.9625025 141.670905,80.9625025 C141.670905,80.9625025 154.474556,84.2633012 156.465759,68.5711547 C157.943104,56.9596073 143.223187,62.1191082 140.964349,65.4519534 C142.07771,62.9416373 145.278622,54.7911215 142.430988,52.7294576 C138.716216,50.0375441 137.806257,52.8896905 135.461776,56.179807 C133.074473,59.5446988 105.229743,47.0785757 103.238539,46.66197 C101.247336,46.2453644 105.186921,38.6182762 102.778207,38.4900899 C98.8921494,38.2764459 95.7875851,53.947228 95.0275021,59.715614 C94.2781245,65.484 94.2031867,47.7622363 90.4991203,53.1246988 C87.4159668,57.5898569 90.9059253,62.6745824 90.9059253,62.6745824 C90.9059253,62.6745824 90.5954689,63.7641664 90.9166307,67.4922529 C91.1093278,69.7141498 91.3769627,72.4274276 91.7623568,75.3970782 C82.1275021,50.3686922 97.5860913,37.9773444 97.5860913,37.9773444 C99.0420249,32.5401065 102.821029,28.0322196 102.821029,28.0322196 C106.535801,11.5175441 119.253809,4.47797671 131.36161,6.2405391 C143.480116,8.01378369 159.238456,17.4141165 149.946174,41.1820033 C149.946174,41.1820033 163.456382,44.429391 155.727087,62.001604 C160.887087,62.6852646 166.411071,83.0348486 134.915801,91.5699235 Z" id="Path" fill="#0086FF" fill-rule="nonzero"></path>
                        <path d="M140.964349,65.4519534 C142.07771,62.9416373 145.278622,54.7911215 142.430988,52.7294576 C138.716216,50.0375441 137.806257,52.8896905 135.461776,56.179807 C133.074473,59.5446988 105.229743,47.0785757 103.238539,46.66197 C101.247336,46.2453644 105.186921,38.6182762 102.778207,38.4900899 C98.8921494,38.2764459 95.7875851,53.947228 95.0275021,59.715614 C94.2781245,65.484 94.2031867,47.7622363 90.4991203,53.1246988 C87.4159668,57.5898569 90.9059253,62.6745824 90.9059253,62.6745824 C90.9059253,62.6745824 90.5954689,63.7641664 90.9166307,67.4922529 C91.1093278,69.7141498 91.3769627,72.4274276 91.7623568,75.3970782 C93.5180415,89.1130183 97.6503237,108.298243 107.210241,110.359907 C117.519535,112.592486 128.224929,100.863434 134.915801,91.5699235 C139.069494,85.8015374 141.670905,80.9625025 141.670905,80.9625025 C141.670905,80.9625025 154.474556,84.2633012 156.465759,68.5711547 C157.943104,56.9596073 143.223187,62.1191082 140.964349,65.4519534 Z M140.58966,66.2424359 C140.600365,66.189025 140.664598,66.028792 140.793062,65.7510549 C140.835884,65.6549151 140.889411,65.5587754 140.964349,65.4626356 C140.771651,65.8899235 140.632481,66.1783428 140.58966,66.2424359 Z" id="Shape" stroke="#0086FF" stroke-width="3.1988" stroke-linecap="round" stroke-linejoin="round"></path>
                        <path d="M140.964349,65.4626356 C140.771651,65.8899235 140.632481,66.1783428 140.58966,66.2424359 C140.600365,66.189025 140.664598,66.028792 140.793062,65.7510549 C140.835884,65.6549151 140.889411,65.5587754 140.964349,65.4626356 Z" id="Path" stroke="#0086FF" stroke-width="3.1988" stroke-linecap="round" stroke-linejoin="round"></path>
                        <g transform="translate(19.269710, 611.021631)" fill="#FFFFFF" fill-rule="nonzero" id="Path">
                            <path d="M17.9004896,6.52148087 C24.7562241,8.27656572 31.7393527,8.24986023 38.7492448,8.87583694 C37.7172448,7.52347088 36.6841743,6.17110483 35.6521743,4.81980699 C34.8920913,9.586203 34.1320083,14.3515308 33.3719253,19.1179268 C34.1191618,18.3723095 34.8674689,17.625624 35.6147054,16.8800067 C29.4301992,18.7793012 23.0101743,20.3335607 16.9573444,22.6099368 C13.2800415,23.9932812 17.6767469,23.0201331 17.3202573,23.5083095 C17.2624481,23.5873577 14.3099004,21.915594 14.0262075,21.764975 C11.1528797,20.2448985 8.27955187,18.7237537 5.40622407,17.2036772 C5.62247303,18.8818502 5.83979253,20.5589551 6.05604149,22.2371281 C11.0458257,16.7240466 16.03561,11.2109651 21.0253942,5.69895175 C23.789527,2.64491181 19.2611452,-1.90249917 16.4830954,1.16649584 C11.4933112,6.67957737 6.50352697,12.1926589 1.51374274,17.7046722 C0.187344398,19.1702696 0.251576763,21.7254509 2.16356017,22.7381231 C6.47462241,25.018772 12.5916846,30.1707953 17.5846805,29.1228719 C24.2327303,27.7267088 30.822971,25.057228 37.3222158,23.0617937 C38.3081826,22.7594875 39.3915685,21.9145258 39.5649959,20.8238735 C40.3250788,16.0574775 41.0851618,11.2921498 41.8452448,6.52575374 C42.1931701,4.34551747 40.9909544,2.66948087 38.7481743,2.46865557 C32.3195851,1.89502163 25.8931369,1.95270549 19.6069295,0.342898502 C15.6020415,-0.684728785 13.8934606,5.49599002 17.9004896,6.52148087 Z"></path>
                        </g>
                        <g transform="translate(167.004149, 602.475874)" fill="#FFFFFF" fill-rule="nonzero" id="Path">
                            <path d="M2.42370124,6.39756739 C6.16630705,7.11327454 9.90463071,7.84820965 13.6140498,8.72308153 C16.1501577,9.32021631 20.7780996,9.80198336 22.8153361,10.8413611 C25.0441992,11.979015 27.1681494,14.8696173 28.9966307,16.5616772 C34.1191618,21.3024359 39.2416929,26.0421265 44.3642241,30.7828852 C45.1210954,28.9594343 45.8779668,27.1359834 46.6348382,25.3125324 C32.398805,23.797797 18.1617012,22.2830616 3.92566805,20.7683261 C4.99620747,21.8365458 6.06674689,22.9047654 7.13728631,23.972985 C6.92103734,17.0851048 6.70585892,10.1972246 6.48960996,3.30827621 C6.36114523,-0.806505824 -0.0631618257,-0.824665557 0.066373444,3.30827621 C0.282622407,10.1961564 0.49780083,17.0840366 0.714049793,23.972985 C0.772929461,25.8434376 2.14857261,26.9885691 3.92566805,27.1776439 C18.1617012,28.6923794 32.398805,30.2071148 46.6348382,31.7218502 C49.4342988,32.0198835 50.8313527,28.0332879 48.9054523,26.2514975 C43.4371369,21.1913411 37.9688216,16.1301165 32.4994357,11.0699601 C30.7234108,9.42703827 28.9398921,7.25321131 26.8887386,5.92755075 C23.9865062,4.05175707 19.4859585,3.54542097 16.1340996,2.73891514 C12.1581162,1.78285857 8.14787552,0.985966722 4.13121162,0.218985025 C0.09206639,-0.55440599 -1.63792531,5.62097171 2.42370124,6.39756739 Z"></path>
                        </g>
                        <path d="M167,606 C174.215436,607.369458 180.263983,608.620343 188.665577,611.134932 L210.356846,631.207847 L167.647676,626.663641 L167,606 Z" id="Path" fill="#0086FF" fill-rule="nonzero"></path>
                        <path d="M38.0244896,614.452752 C45.1061079,616.395844 49.1645228,615.831824 58.0189544,616.692809 L55.7387054,630.990928 L35.0569544,637.341494 L23.0551369,630.990928 L38.0244896,614.452752 Z" id="Path" fill="#0086FF" fill-rule="nonzero"></path>
                        <path d="M78.8323817,119.015691 C60.3709295,128.549551 41.7553195,149.561431 8.93365145,210.755461" id="Path" stroke="#0086FF" stroke-width="3.1988" stroke-linecap="round" stroke-linejoin="round"></path>
                        <path d="M5.91473029,218.313115 C7.36424066,240.951894 9.77937759,271.20601 17.3652199,291.190263" id="Path" stroke="#0086FF" stroke-width="3.1988" stroke-linecap="round" stroke-linejoin="round"></path>
                        <path d="M147.93249,122.378446 C166.50849,119.575438 194.604797,114.909454 213.180797,112.106446" id="Path" stroke="#0086FF" stroke-width="3.1988" stroke-linecap="round" stroke-linejoin="round"></path>
                        <path d="M166.634813,166.579238 C187.966382,154.24771 225.185826,135.212037 245.445784,117.985927" id="Path" stroke="#0086FF" stroke-width="3.1988" stroke-linecap="round" stroke-linejoin="round"></path>
                        <path d="M210.800988,110.437887 C179.526249,104.799824 166.634813,101.763943 149.110083,99.3038336" id="Path" stroke="#0086FF" stroke-width="3.1988" stroke-linecap="round" stroke-linejoin="round"></path>
                        <path d="M245.445784,99.3049018 C226.586091,90.9717205 177.467602,88.702822 153.731602,85.3881364" id="Path" stroke="#0086FF" stroke-width="3.1988" stroke-linecap="round" stroke-linejoin="round"></path>
                        <path d="M22.5359253,302.5198 C27.877917,301.241141 33.3130456,300.392975 38.7877842,299.984915" id="Path" stroke="#0086FF" stroke-width="3.1988" stroke-linecap="round" stroke-linejoin="round"></path>
                        <path d="M21.2962407,309.348928 C20.681751,326.891231 27.1638672,338.575418 27.7044896,339.064662 C28.3810705,339.675684 40.7971867,336.850243 43.9884647,335.629268 C43.9884647,335.629268 38.9612116,322.30216 39.2309876,313.056719 C39.2845145,311.203358 41.4395104,316.039188 42.5443071,317.530423 C46.263361,316.444043 46.1873527,313.657058 43.206971,310.013361" id="Path" stroke="#0086FF" stroke-width="3.1988" stroke-linecap="round" stroke-linejoin="round"></path>
                        <path d="M78.8323817,177.75602 C78.8323817,177.75602 59.5787303,193.802815 35.7602988,225.265088" id="Path" stroke="#0086FF" stroke-width="3.1988" stroke-linecap="round" stroke-linejoin="round"></path>
                        <path d="M32.1879087,230.100918 C32.1879087,230.100918 29.6410954,265.268845 35.5740249,288.922433" id="Path" stroke="#0086FF" stroke-width="3.1988" stroke-linecap="round" stroke-linejoin="round"></path>
                        <path d="M166.634813,169.694166 C166.634813,169.694166 194.481685,265.862775 194.481685,303.295328 C194.481685,303.295328 97.4629793,321.911191 47.9194855,281.116952" id="Path" stroke="#0086FF" stroke-width="3.1988" stroke-linecap="round" stroke-linejoin="round"></path>
                        <path d="M175.518149,310.723727 C175.518149,310.723727 188.693278,356.540735 192.562207,445.681527" id="Path" stroke="#0086FF" stroke-width="3.1988" stroke-linecap="round" stroke-linejoin="round"></path>
                        <polyline id="Path" stroke="#0086FF" stroke-width="3.1988" stroke-linecap="round" stroke-linejoin="round" points="191.474539 456.564549 189.290639 603.760942 170.487685 602.065677 148.502017 467.410183"></polyline>
                        <line x1="146.221768" y1="462.859567" x2="127.427378" y2="372.387774" id="Path" stroke="#0086FF" stroke-width="3.1988" stroke-linecap="round" stroke-linejoin="round"></line>
                        <path d="M137.456191,325.294243 C137.456191,325.294243 119.253809,407.053637 101.010747,447.504978" id="Path" stroke="#0086FF" stroke-width="3.1988" stroke-linecap="round" stroke-linejoin="round"></path>
                        <path d="M97.4640498,455.090406 C95.9438838,467.731717 57.7010041,608.845667 57.7010041,608.845667 L38.0244896,606.317191 L47.920556,454.837238" id="Path" stroke="#0086FF" stroke-width="3.1988" stroke-linecap="round" stroke-linejoin="round"></path>
                        <path d="M47.920556,447.758146 C47.920556,447.758146 57.2963402,355.877371 62.1608714,325.624323" id="Path" stroke="#0086FF" stroke-width="3.1988" stroke-linecap="round" stroke-linejoin="round"></path>
                        <line x1="93.7278672" y1="122.378446" x2="113.376548" y2="133.278559" id="Path" stroke="#0086FF" stroke-width="3.1988" stroke-linecap="round" stroke-linejoin="round"></line>
                        <line x1="132.91068" y1="119.848902" x2="118.404871" y2="130.556735" id="Path" stroke="#0086FF" stroke-width="3.1988" stroke-linecap="round" stroke-linejoin="round"></line>
                    </g>
                    <g id="Group" transform="translate(65.000000, 436.000000)">
                        <path d="M373.996747,13.5430673 C363.020123,9.27383654 350.971721,9.37309615 339.375777,9.49156731 C326.644947,9.62177885 313.946206,9.24822115 301.268858,8.02935577 C294.618919,7.39003846 287.777515,5.71436538 281.101905,5.70049038 C275.019944,5.68875 270.014039,9.17884615 264.886195,12.0285577 C251.561716,19.4335385 238.236167,26.8385192 224.911688,34.2435 C224.798306,34.3064712 224.709526,34.3811827 224.612189,34.451625 C223.207755,34.5743654 221.809738,34.7216538 220.426696,34.9169712 C219.416958,33.8742115 217.618897,33.5625577 216.515031,34.8379904 C215.651833,34.8027692 214.787565,34.7675481 213.924368,34.729125 C209.400869,28.8066346 204.801426,22.9449808 200.086462,17.1740481 C197.573883,14.0991346 195.032423,11.0466346 192.462084,8.01975 C190.638351,5.87125962 188.852056,3.20939423 186.300969,1.84430769 C183.615109,0.407711538 180.407265,0.675605769 177.474318,0.723634615 C173.283476,0.791942308 169.093705,0.888 164.902864,0.975519231 C156.520111,1.14949038 148.137359,1.33840385 139.756747,1.57000962 C106.25034,2.4975 72.7492813,4.15823077 39.451454,8.12327885 C37.6566017,8.33674038 36.813727,9.94624038 36.9238997,11.3465481 C32.5694039,10.5674135 28.2020724,9.86939423 23.8165571,9.30051923 C17.1291811,8.43386538 6.80717549,13.0339615 0.457805014,15.7929519 C-1.28891365,16.5518077 54.9098607,66.7899808 58.4353872,66.9906346 L51.7854485,189.734221 C51.7854485,189.734221 43.4337159,188.40649 81.9096602,200.877981 C115.922006,211.903269 125.977671,214.068837 150.150418,222 L150.150418,84.9534231 L150.150418,222 C150.150418,222 195.053816,217.573875 228.291744,214.219327 C298.325214,207.149481 262.734084,214.219327 324.846886,205.649913 L324.846886,67.6993269 L324.430797,67.7366827 C324.68751,67.4869327 324.943153,67.2478558 325.195588,67.0290577 C327.652546,64.9104519 330.138384,62.8249327 332.650964,60.7725 C338.002362,56.4008077 343.481047,52.1849423 349.078462,48.1313077 C353.809471,44.70525 358.621772,41.3923269 363.510017,38.1936058 C368.760869,34.756875 374.558306,31.8740769 379.618763,28.1875962 C387.66351,22.3302115 380.587855,16.1067404 373.996747,13.5430673 Z M131.645682,60.1630673 C137.712669,59.7510865 143.860947,58.6485577 149.739677,58.0284519 C157.73522,57.1842115 165.822752,56.6089327 173.791554,55.4754519 C168.087175,61.3531154 162.560357,67.4474423 157.690295,73.8907788 C155.858006,76.3157019 154.066362,79.4012885 156.117928,82.3043654 C156.210986,82.4367115 156.319019,82.5477115 156.420635,82.66725 L154.011811,82.8817788 C154.244992,82.0065865 154.07385,81.0396058 153.269482,80.2903558 C146.061192,73.5812596 138.853972,66.8721635 131.645682,60.1630673 Z M184.653727,80.1580096 C191.573214,78.06075 198.456334,75.7863173 205.628256,74.6421635 C219.436212,72.4403077 233.575755,71.6569038 247.512067,70.6482981 C261.511487,69.6364904 275.528022,68.8637596 289.554184,68.3269038 C290.467655,68.2916827 291.415354,68.2767404 292.381237,68.2671346 C294.917348,68.8637596 297.467365,69.3974135 300.02273,69.9054519 L184.653727,80.1580096 Z" id="Shape" fill="#FFFFFF" fill-rule="nonzero"></path>
                        <path d="M178.404903,54.9834231 C177.281783,51.2862692 172.883432,51.4869231 169.819989,51.5968558 C156.068724,52.0888846 142.322808,52.8306635 128.576891,53.4475673 C127.903019,53.4774519 127.366061,53.7122596 126.95639,54.0623365 C124.349682,52.2756635 120.849827,55.8575481 123.414819,57.9996346 C128.647487,62.368125 133.881226,66.7366154 139.113894,71.1051058 C143.180657,74.5002115 147.57473,79.6371635 152.420189,81.8475577 C156.327577,83.6299615 158.949259,81.0107885 161.779521,78.4684615 C166.061281,74.6218846 169.925883,70.3334423 173.374396,65.7301442 C175.43024,62.9860962 179.560111,58.7830385 178.404903,54.9834231 Z" id="Path" fill="#8FFFE9" fill-rule="nonzero"></path>
                        <path d="M155.244033,82.3491923 L155.244033,215.596154 C155.244033,215.596154 197.078641,211.346135 228.045727,208.125 C293.293638,201.336923 260.134864,208.125 318.003343,199.897125 L318.003343,67.4431731 L155.244033,82.3491923 Z" id="Path" stroke="#0086FF" stroke-width="3.1988" stroke-linecap="round" stroke-linejoin="round"></path>
                        <path d="M155.244033,215.596154 C132.722808,207.983048 123.35385,205.903933 91.6668969,195.317308 C55.8201226,183.342115 63.6017382,184.616481 63.6017382,184.616481 L63.6017382,61.2485192 L155.245103,82.3491923 L155.244033,215.596154 Z" id="Path" stroke="#0086FF" stroke-width="3.1988" stroke-linecap="round" stroke-linejoin="round"></path>
                        <path d="M155.244033,82.3491923 C155.244033,82.3491923 181.872669,50.2328365 192.212858,42.1586538 C202.551978,34.0844712 359.791955,26.1479712 359.791955,26.1479712 L318.002273,67.4431731 L155.244033,82.3491923 Z" id="Path" stroke="#0086FF" stroke-width="3.1988" stroke-linecap="round" stroke-linejoin="round"></path>
                        <path d="M94.3934039,31.8260481 C94.3934039,31.8260481 7.00826741,13.2847788 6.41568802,16.0821923 C6.05415042,17.7888173 63.6006685,61.2485192 63.6006685,61.2485192 L155.244033,82.3491923 L94.3934039,31.8260481 Z" id="Path" stroke="#0086FF" stroke-width="3.1988" stroke-linecap="round" stroke-linejoin="round"></path>
                        <polyline id="Path" stroke="#0086FF" stroke-width="3.1988" stroke-linecap="round" stroke-linejoin="round" points="208.767643 35.9874808 186.769471 4.98432692 37.9411253 10.6624038 46.1409694 23.1915288"></polyline>
                        <polyline id="Path" stroke="#0086FF" stroke-width="3.1988" stroke-linecap="round" stroke-linejoin="round" points="318.002273 67.4431731 376.695443 22.5340673 274.747187 8.59716346 241.681471 33.8421923"></polyline>
                        <line x1="123.35385" y1="55.8714231" x2="180.897159" y2="51.8594135" id="Path" stroke="#0086FF" stroke-width="3.1988" stroke-linecap="round" stroke-linejoin="round"></line>
                    </g>
                    <path d="M205,447.5 C193.139383,447.5 183.5,457.139383 183.5,469 C183.5,457.139383 173.878966,447.5 162,447.5 C173.878966,447.5 183.5,437.878966 183.5,426 C183.5,437.878966 193.139383,447.5 205,447.5 Z" id="Path" fill="#8FFFE9" fill-rule="nonzero"></path>
                    <path d="M343,403.5 C332.243137,403.5 323.5,412.242075 323.5,423 C323.5,412.243137 314.773856,403.5 304,403.5 C314.773856,403.5 323.5,394.773856 323.5,384 C323.501062,394.773856 332.243137,403.5 343,403.5 Z" id="Path" fill="#8FFFE9" fill-rule="nonzero"></path>
                    <path d="M180,250 C173.93169,250 169,254.93169 169,261 C169,254.93169 164.077809,250 158,250 C164.076753,250 169,245.077809 169,239 C169,245.077809 173.93169,250 180,250 Z" id="Path" fill="#8FFFE9" fill-rule="nonzero"></path>
                    <path d="M254,348.5 C243.241999,348.5 234.5,357.243057 234.5,368 C234.5,357.241999 225.773866,348.5 215,348.5 C225.773866,348.5 234.5,339.773866 234.5,329 C234.5,339.773866 243.241999,348.5 254,348.5 Z" id="Path" fill="#8FFFE9" fill-rule="nonzero"></path>
                    <path d="M355,287 C348.931792,287 344,291.931792 344,298 C344,291.931792 339.077626,287 333,287 C339.077626,287 344,282.077626 344,276 C344,282.077626 348.931792,287 355,287 Z" id="Path" fill="#8FFFE9" fill-rule="nonzero"></path>
                </g>
            </g>
        </g>
    </g>
</svg>