<?xml version="1.0" encoding="UTF-8"?>
<svg width="795px" height="786px" viewBox="0 0 795 786" version="1.1" xmlns="http://www.w3.org/2000/svg" xmlns:xlink="http://www.w3.org/1999/xlink">
    <!-- Generator: sketchtool 61 (101010) - https://sketch.com -->
    <title>729D292D-0A11-4565-9152-E125583F7638</title>
    <desc>Created with sketchtool.</desc>
    <g id="Landing---Design" stroke="none" stroke-width="1" fill="none" fill-rule="evenodd">
        <g id="10-Donate" transform="translate(-645.000000, -52.000000)">
            <g id="Hero" transform="translate(135.000000, 50.000000)">
                <g id="Traveling" transform="translate(510.000000, 2.000000)">
                    <path d="M800,583.045 L740.651,583.045 L740.651,367.195 L800,367.195 L800,358.757 L740.651,358.757 L740.651,142.907 L800,142.907 L800,134.469 L740.651,134.469 L740.651,0 L732.213,0 L732.213,134.469 L516.363,134.469 L516.363,0 L507.925,0 L507.925,134.469 L292.075,134.469 L292.075,0 L283.637,0 L283.637,134.469 L67.787,134.469 L67.787,0 L59.349,0 L59.349,134.469 L0,134.469 L0,142.907 L59.349,142.907 L59.349,358.757 L0,358.757 L0,367.195 L59.349,367.195 L59.349,583.045 L0,583.045 L0,591.483 L59.349,591.483 L59.349,591.522 L67.787,591.522 L67.787,591.483 L283.637,591.483 L283.637,591.522 L292.075,591.522 L292.075,591.483 L507.925,591.483 L507.925,591.522 L516.363,591.522 L516.363,591.483 L732.213,591.483 L732.213,591.522 L740.651,591.522 L740.651,591.483 L800,591.483 L800,583.045 Z M283.637,583.045 L67.787,583.045 L67.787,367.195 L283.637,367.195 L283.637,583.045 Z M283.637,358.757 L67.787,358.757 L67.787,142.907 L283.637,142.907 L283.637,358.757 Z M507.925,583.045 L292.075,583.045 L292.075,367.195 L507.925,367.195 L507.925,583.045 L507.925,583.045 Z M507.925,358.757 L292.075,358.757 L292.075,142.907 L507.925,142.907 L507.925,358.757 L507.925,358.757 Z M732.212,583.045 L516.362,583.045 L516.362,367.195 L732.212,367.195 L732.212,583.045 Z M732.212,358.757 L516.362,358.757 L516.362,142.907 L732.212,142.907 L732.212,358.757 Z" id="Shape" fill="#0086FF" fill-rule="nonzero" opacity="0.13"></path>
                    <g id="Group" transform="translate(75.000000, 183.000000)">
                        <path d="M54.42,577.262 C54.415,575.547 53.982,573.949 53.123,572.467 C52.885,572.09 52.615,571.736 52.314,571.403 C52.043,571.05 51.771,570.697 51.497,570.347 C51.158,569.991 50.776,569.753 50.365,569.436 C48.989,568.373 48.662,568.132 46.722,567.489 C44.787,566.847 42.677,566.929 40.719,567.384 C40.597,567.412 40.492,567.447 40.375,567.489 C39.618,567.808 38.862,568.127 38.105,568.447 C38.05,568.471 37.996,568.499 37.946,568.532 C37.893,568.562 37.844,568.597 37.797,568.636 C37.156,569.131 36.515,569.626 35.874,570.121 C35.212,570.757 34.879,571.25 34.208,572.222 C33.647,573.035 33.299,573.987 33,574.926 C32.96,575.051 32.934,575.166 32.908,575.295 C32.795,576.137 32.682,576.979 32.569,577.82 C32.56,577.883 32.556,577.947 32.556,578.011 C32.559,578.119 32.567,578.22 32.577,578.328 C32.65,579.149 32.739,580.245 32.959,581.039 C32.975,581.1 32.995,581.16 33.02,581.218 C33.339,581.974 33.658,582.731 33.978,583.487 C34.038,583.604 34.094,583.703 34.166,583.814 C34.661,584.455 35.156,585.096 35.651,585.737 C35.689,585.788 35.731,585.835 35.778,585.878 C35.821,585.923 35.867,585.963 35.918,585.999 C36.559,586.494 37.2,586.989 37.841,587.484 C37.948,587.551 38.043,587.603 38.156,587.658 L40.425,588.616 C40.481,588.639 40.538,588.658 40.597,588.671 C40.655,588.688 40.714,588.701 40.774,588.709 C41.616,588.822 42.458,588.935 43.3,589.048 C43.425,589.058 43.537,589.066 43.663,589.062 C44.398,589.041 45.586,588.857 46.309,588.71 C46.432,588.685 46.543,588.661 46.663,588.623 C47.595,588.333 48.531,587.967 49.355,587.437 C51.231,586.229 51.802,585.497 53.09,583.677 C53.784,582.587 54.16,581.409 54.217,580.145 C54.388,579.382 54.419,578.619 54.342,577.856 L54.42,577.262 Z" id="Path" fill="#0086FF" fill-rule="nonzero"></path>
                        <path d="M51.849,553.315 C44.601,548.241 34.234,546.418 25.906,543.686 C14.26,539.867 9.27,558.208 20.855,562.007 C24.86,563.32 28.865,564.634 32.869,565.947 C36.101,567.007 39.45,567.753 42.259,569.72 C46.464,572.664 52.817,570.484 55.257,566.312 C58.029,561.573 56.064,556.266 51.849,553.315 Z" id="Path" fill="#FFFFFF" fill-rule="nonzero"></path>
                        <path d="M104.546,416.215 C96.902,413.404 89.259,410.593 81.615,407.782 C74.778,405.268 66.62,400.633 59.245,401.143 C51.28,401.694 46.836,409.516 43.103,416.087 C39.24,422.885 36.061,430.132 32.901,437.325 C26.417,452.082 20.551,467.139 14.936,482.297 C12.059,490.066 9.238,497.859 6.454,505.667 C4.071,512.348 -0.881,521.122 1.199,528.462 C3.692,537.259 13.122,538.945 20.227,541.2 C28.826,543.929 37.425,546.659 46.023,549.388 C49.626,550.532 53.9,548.422 55.658,544.948 C65.203,526.081 74.787,507.237 84.289,488.345 C93.19,470.647 101.653,452.554 106.736,433.122 C108.708,431.826 110.26,429.733 110.8,427.427 C112.009,422.262 108.965,417.84 104.546,416.215 Z" id="Path" fill="#8FFFE9" fill-rule="nonzero"></path>
                        <path d="M452.539,188.72 C452.433,188.719 452.331,188.731 452.226,188.733 C446.584,184.293 436.195,186.571 436.726,195.678 C436.79,196.769 436.366,197.937 435.833,199.113 C428.896,200.497 421.93,201.345 414.885,201.701 C414.4,201.474 413.921,201.285 413.479,201.164 C411.205,200.538 408.177,200.82 406.159,202.122 C406.153,202.126 406.148,202.13 406.142,202.134 C405.98,202.167 405.814,202.196 405.657,202.236 C390.133,203.494 374.578,204.179 359.004,204.278 C354.398,191.413 349.791,178.548 345.185,165.683 C340.826,153.507 337.234,140.241 330.383,129.157 C323.661,118.282 311.81,108.678 298.229,110.936 C287.737,112.68 279.266,121.974 272.655,130.992 L240.263,112.931 C240.211,112.902 240.159,112.882 240.107,112.854 C237.482,109.524 232.946,107.739 228.183,110.423 C213.408,118.749 208.596,136.544 202.847,151.297 C195.82,169.329 188.93,187.414 181.899,205.445 C168.031,241.01 153.544,276.343 136.462,310.505 C134.572,314.284 135.308,317.906 137.301,320.574 C129.39,324.586 121.908,331.166 121.294,339.669 C120.588,349.434 130.228,366.623 141.928,361.917 C146.876,359.927 148.587,354.734 148.97,349.759 C149.148,349.682 149.327,349.609 149.502,349.523 C151.258,348.656 152.817,347.534 154.17,346.226 C159.849,348.288 167.332,345.477 166.99,337.727 C166.818,333.829 166.652,329.176 165.279,325.2 C167.597,323.522 169.178,320.949 169.037,317.798 C168.95,315.845 168.238,313.857 167.079,312.201 C182.279,288.596 197.228,264.832 211.919,240.908 C211.915,240.946 211.907,240.984 211.903,241.022 C210.153,258.818 206.987,276.398 202.612,293.734 C201.648,297.553 202.901,300.661 205.134,302.732 C206.093,305.632 208.255,308.162 211.259,308.735 C213.537,343.902 214.666,379.131 214.616,414.374 C214.615,415.284 214.73,416.118 214.924,416.893 C201.697,457.454 185.103,496.77 165.273,534.531 C162.698,535.646 160.576,537.771 160.022,540.592 C159.074,545.42 157.819,550.212 155.967,554.78 C153.806,560.109 150.885,564.941 154.083,570.629 C156.512,574.948 161.619,577.368 165.624,579.994 C170.367,583.103 175.11,586.213 179.852,589.322 C187.305,594.208 195.3,586.17 193.808,578.593 C191.96,569.218 190.874,559.768 190.554,550.228 C200.021,536.151 209.358,521.873 219.521,508.268 C222.171,505.739 224.803,503.198 227.388,500.62 C242.865,485.193 256.732,468.299 265.295,448.123 C266.619,446.97 267.606,445.465 267.961,443.679 C272.515,420.761 277.068,397.843 281.622,374.924 C289.162,397.749 297.008,420.471 305.174,443.081 C305.844,444.937 306.959,446.555 308.371,447.768 C322.527,542.699 326.116,577.084 327.103,580.699 C328.115,584.404 325.128,596.492 327.956,599.22 C331.819,602.946 337.077,602.539 342.035,602.502 C350.835,602.436 359.634,602.37 368.433,602.304 C378.111,602.231 385.147,596.46 375.194,592.033 C369.019,589.286 354.412,575.465 354.527,574.465 C356.561,556.778 354.65,529.077 356.684,511.391 C358.688,493.972 361.254,476.504 362.276,458.993 C363.286,441.678 360.875,424.73 357.393,407.804 C353.868,390.668 349.946,373.609 345.727,356.631 C341.846,341.011 337.666,325.468 333.234,309.996 C333.22,309.918 333.205,309.839 333.191,309.761 C342.991,307.854 352.071,304.272 359.796,297.578 C362.453,295.276 363.23,292.532 362.779,289.978 C362.947,288.699 362.817,287.284 362.286,285.749 C357.731,272.581 353.765,259.234 350.384,245.722 C368.553,240.502 386.723,235.283 404.892,230.063 C405.744,230.287 406.676,230.405 407.7,230.382 C418.296,230.143 428.82,229.053 439.268,227.299 C440.052,227.725 440.925,228.081 441.904,228.351 C445.217,229.261 448.62,228.683 451.565,227.145 C455.786,227.328 460.775,224.675 461.41,220.233 C462.313,213.915 463.823,207.381 464.136,201.012 C464.468,194.263 459.351,188.761 452.539,188.72 Z" id="Path" fill="#FFFFFF" fill-rule="nonzero"></path>
                        <path d="M456.693,166.192 C455.07,166.198 453.449,166.228 451.829,166.265 C450.764,162.305 447.668,159.016 442.927,159.277 C438,159.549 433.101,160.002 428.208,160.641 C427.946,160.675 427.687,160.721 427.429,160.768 C425.902,159.545 423.981,158.799 421.752,158.799 C416.939,158.799 411.828,163.157 412.252,168.299 C412.303,168.924 412.355,169.549 412.406,170.173 C412.156,170.216 411.904,170.253 411.654,170.297 C406.597,171.182 403.753,177.376 405.019,181.983 C406.218,186.347 409.875,188.6 413.94,188.794 C414.995,201.606 416.05,214.419 417.105,227.231 C417.521,232.278 421.12,236.83 426.605,236.731 C430.578,236.659 434.45,236.213 438.383,235.653 C442.308,235.095 445.512,230.256 445.358,226.492 C444.789,212.634 447.071,198.949 449.558,185.325 C451.934,185.251 454.312,185.198 456.693,185.19 C468.917,185.148 468.941,166.148 456.693,166.192 Z" id="Path" fill="#8FFFE9" fill-rule="nonzero"></path>
                        <path d="M297.26,7.32 C282.142,-7.716 250.412,3.251 248.088,22.636 C233.962,22.955 224.626,37.735 226.609,51.887 C226.849,53.6 227.15,55.256 227.643,56.916 C227.659,56.968 227.734,57.256 227.83,57.597 C226.941,58.679 225.856,60.54 225.526,61.048 C224.221,63.055 223.191,65.309 222.419,67.569 C219.872,75.025 220.534,83.715 224.697,90.474 C229.045,97.534 235.974,101.768 244.123,102.798 C246.552,103.105 249.146,103.019 251.151,104.432 C253.374,105.999 255.09,108.786 257.088,110.705 C262.126,115.544 268.803,118.572 275.847,116.507 C282.85,114.454 287.024,108.363 289.289,101.778 C292.051,93.747 292.225,84.314 292.751,75.904 C293.183,68.995 293.285,62.078 293.108,55.165 C299.67,52.753 305.131,46.489 306.46,39.431 C308.491,28.651 305.163,15.18 297.26,7.32 Z" id="Path" fill="#FFFFFF" fill-rule="nonzero"></path>
                        <g transform="translate(3.000000, 4.000000)" id="Path">
                            <line x1="240.07" y1="116.18" x2="275.541" y2="133.638" stroke="#0086FF" stroke-width="3.1988" stroke-linecap="round" stroke-linejoin="round"></line>
                            <line x1="290.875" y1="110.964" x2="279.732" y2="128.857" stroke="#0086FF" stroke-width="3.1988" stroke-linecap="round" stroke-linejoin="round"></line>
                            <path d="M177.93,214.71 C177.008,218.28 143.365,308.726 143.365,308.726" stroke="#0086FF" stroke-width="3.1988" stroke-linecap="round" stroke-linejoin="round"></path>
                            <line x1="160.887" y1="313.716" x2="204.941" y2="231.527" stroke="#0086FF" stroke-width="3.1988" stroke-linecap="round" stroke-linejoin="round"></line>
                            <path d="M310.16,136.857 C310.16,136.857 340.819,221.028 352.756,290.19 C353.506,294.534 260.28,316.064 208.897,291.179 C211.342,274.455 213.788,257.731 216.233,241.007" stroke="#0086FF" stroke-width="3.1988" stroke-linecap="round" stroke-linejoin="round"></path>
                            <line x1="348.819" y1="206.152" x2="407.591" y2="200.387" stroke="#0086FF" stroke-width="3.1988" stroke-linecap="round" stroke-linejoin="round"></line>
                            <line x1="408.021" y1="218.835" x2="347.084" y2="236.349" stroke="#0086FF" stroke-width="3.1988" stroke-linecap="round" stroke-linejoin="round"></line>
                            <path d="M408.021,199.911 C408.021,199.911 409.971,209.406 409.658,213.768" stroke="#0086FF" stroke-width="3.1988" stroke-linecap="round" stroke-linejoin="round"></path>
                            <line x1="156.988" y1="317.181" x2="142.79" y2="314.949" stroke="#0086FF" stroke-width="3.1988" stroke-linecap="round" stroke-linejoin="round"></line>
                            <path d="M280.756,329.357 C280.756,331.39 269.736,400.872 257.348,437.46" stroke="#0086FF" stroke-width="3.1988" stroke-linecap="round" stroke-linejoin="round"></path>
                            <polyline stroke="#0086FF" stroke-width="3.1988" stroke-linecap="round" stroke-linejoin="round" points="252.132 442.203 177.681 549.255 163.58 540.231 218.228 427.974"></polyline>
                            <path d="M218.228,414.423 C219.532,412.39 212.115,315.501 214.194,308.726" stroke="#0086FF" stroke-width="3.1988" stroke-linecap="round" stroke-linejoin="round"></path>
                            <path d="M278.212,343.959 C278.212,343.959 301.032,418.489 310.16,431.363" stroke="#0086FF" stroke-width="3.1988" stroke-linecap="round" stroke-linejoin="round"></path>
                            <polyline stroke="#0086FF" stroke-width="3.1988" stroke-linecap="round" stroke-linejoin="round" points="310.16 437.46 331.025 568.227 343.793 570.466 347.977 434.149"></polyline>
                            <path d="M324.102,303.306 C324.102,303.306 344.445,381.3 347.977,420.598" stroke="#0086FF" stroke-width="3.1988" stroke-linecap="round" stroke-linejoin="round"></path>
                            <path d="M441.368,192.36 C441.368,192.36 447.402,191.545 451.939,191.692 C456.477,191.839 454.603,205.528 450.556,214.691 C446.51,223.854 436.981,214.965 436.981,214.965 C436.981,214.965 436.423,199.14 441.368,192.36 Z" stroke="#0086FF" stroke-width="3.1988" stroke-linecap="round" stroke-linejoin="round"></path>
                            <path d="M326.977,574.135 C333.812,574.729 339.551,575.322 347.597,576.87 L369.656,593.515 L329.535,593.319 L326.977,574.135 Z" fill="#0086FF" fill-rule="nonzero"></path>
                            <path d="M159.938,544.387 C165.712,548.092 170.516,551.287 176.919,556.4 L188.703,581.396 L153.279,562.558 L159.938,544.387 Z" fill="#0086FF" fill-rule="nonzero"></path>
                            <path d="M283.687,46.86 C284.29,51.053 283.606,105.928 270.472,108.897 C262.005,110.811 254.405,101.324 249.935,94.027 L249.932,94.027 C247.298,89.729 245.751,86.191 245.751,86.191 C245.751,86.191 235.759,86.877 233.215,74.943 C230.673,63.021 244.248,62.216 249.368,72.424 C248.997,71.626 241.513,55.185 249.921,46.618 C258.539,37.836 260.621,50.102 262.509,50.539 C262.509,50.539 262.72,49.387 262.725,49.389 C263.151,49.483 264.428,49.448 266.162,49.331 C270.206,49.213 276.697,47.963 283.687,46.86 Z" stroke="#0086FF" stroke-width="3.1988" stroke-linecap="round" stroke-linejoin="round"></path>
                            <path d="M294.856,47.149 C291.508,48.328 287.599,49.181 283.674,49.804 C276.684,50.907 269.638,51.265 265.594,51.381 C263.549,51.443 262.27,51.438 262.157,51.439 C262.152,51.437 262.149,51.438 262.149,51.438 C260.261,51.001 258.179,38.736 249.561,47.517 C241.153,56.084 248.637,72.525 249.008,73.323 C243.888,63.115 230.314,63.92 232.855,75.842 C235.399,87.777 245.391,87.09 245.391,87.09 C245.391,87.09 246.938,90.628 249.572,94.926 C232.811,98.49 219.159,83.718 221.444,71.217 C223.717,58.783 234.951,54.756 235.115,54.761 C234.927,54.583 223.426,44.998 233.261,31.607 C239.591,22.989 254.159,25.979 254.159,25.979 C254.159,25.979 251.22,2.312 279.725,0.755 C308.231,-0.801 298.329,45.926 294.856,47.149 Z" fill="#0086FF" fill-rule="nonzero"></path>
                            <path d="M278.934,70.415 C278.892,73.158 277.772,75.365 276.431,75.345 C275.09,75.325 274.037,73.085 274.079,70.342 C274.121,67.599 275.241,65.392 276.581,65.412 C277.923,65.432 278.976,67.673 278.934,70.415 Z" fill="#0086FF" fill-rule="nonzero"></path>
                            <path d="M266.99,71.224 C266.948,73.967 265.828,76.174 264.487,76.154 C263.146,76.134 262.093,73.894 262.135,71.151 C262.177,68.408 263.297,66.201 264.638,66.221 C265.979,66.241 267.032,68.481 266.99,71.224 Z" fill="#0086FF" fill-rule="nonzero"></path>
                            <path d="M210.481,223.367 C224.292,203.447 222.828,204.403 235.943,184.357" stroke="#0086FF" stroke-width="3.1988" stroke-linecap="round" stroke-linejoin="round"></path>
                            <path d="M53.626,554.268 C55.566,554.929 111.577,420.739 111.577,420.739 C105.48,416.988 86.827,411.24 80.018,408.735 C70.416,405.202 65.259,401.073 57.349,409.357 C51.624,415.353 48.118,423.274 44.847,430.775 C41.246,439.035 37.644,447.294 34.043,455.554 C23.202,480.419 12.361,505.283 1.519,530.148 C1.091,531.129 0.654,532.195 0.892,533.239 C1.226,534.702 2.726,535.544 4.088,536.174 C16.558,541.936 40.583,549.827 53.626,554.268 Z" stroke="#0086FF" stroke-width="3.1988" stroke-linecap="round" stroke-linejoin="round"></path>
                            <path d="M139.097,321.689 C134.631,320.724 130.24,323.78 127.411,327.368 C124.452,331.122 122.432,335.942 123.257,340.65 C123.848,344.023 125.86,347.04 128.445,349.285 C131.733,352.141 136.031,353.812 139.783,355.982 C139.904,356.052 140.05,356.125 140.179,356.068 C140.266,356.029 140.319,355.941 140.366,355.858 C141.785,353.337 144.39,349.356 144.549,346.408 C144.705,343.525 143.019,341.167 143.884,337.865 C144.53,335.397 146.084,333.281 147.619,331.243 C147.809,333.659 152.466,335.084 154.786,334.381 C157.105,333.677 158.635,331.331 159.027,328.939 C159.121,328.368 159.029,326.251 158.894,325.688" stroke="#0086FF" stroke-width="3.1988" stroke-linecap="round" stroke-linejoin="round"></path>
                            <line x1="145.112" y1="345.32" x2="111.577" y2="420.598" stroke="#0086FF" stroke-width="3.1988" stroke-linecap="round" stroke-linejoin="round"></line>
                            <path d="M18.609,542.759 C18.058,547.72 17.507,552.681 16.956,557.642 C16.882,558.305 16.82,559.022 17.163,559.594 C17.497,560.15 18.135,560.434 18.734,560.684 C22.286,562.17 25.812,563.801 29.417,565.151 C33.534,566.693 34.405,565.847 37.989,565.987 C42.768,566.174 46.447,566.163 48.137,571.826 C48.857,574.237 48.823,576.948 47.636,579.167 C45.727,582.735 40.845,584.269 37.159,582.6 C33.473,580.931 31.402,576.424 32.351,572.49 C32.846,570.44 33.839,568.831 35.103,567.683" stroke="#0086FF" stroke-width="3.1988" stroke-linecap="round" stroke-linejoin="round"></path>
                            <path d="M46.146,568.662 C48.636,564.436 50.71,559.966 52.329,555.337" stroke="#0086FF" stroke-width="3.1988" stroke-linecap="round" stroke-linejoin="round"></path>
                            <path d="M298.353,108.76 C304.818,109.529 310.658,113.26 315.073,118.045 C319.488,122.83 323.136,129.631 325.992,135.482 C333.71,151.294 344.481,178.786 348.482,195.92 C348.539,196.166 349.156,196.241 349.156,196.494" stroke="#0086FF" stroke-width="3.1988" stroke-linecap="round" stroke-linejoin="round"></path>
                            <path d="M442.996,224.555 C442.78,226.598 442.564,228.641 442.348,230.684 C442.326,230.894 442.295,231.121 442.146,231.27 C441.992,231.422 441.758,231.447 441.542,231.463 C435.51,231.908 423.279,231.361 417.342,230.204 C416.595,214.165 415.669,198.134 414.566,182.115 C423.671,181.562 437.244,180.374 446.357,180.762 C446.367,182.785 446.377,184.808 446.387,186.83" stroke="#0086FF" stroke-width="3.1988" stroke-linecap="round" stroke-linejoin="round"></path>
                            <path d="M407.026,180.09 C406.656,176.528 406.448,172.949 406.402,169.368 C422.848,168.114 439.337,167.434 455.83,167.329 C456.033,171.129 455.945,174.945 455.567,178.732 C454.148,178.752 452.476,178.742 451.083,179.013" stroke="#0086FF" stroke-width="3.1988" stroke-linecap="round" stroke-linejoin="round"></path>
                            <path d="M414.315,167.779 C414.398,165.992 414.48,164.204 414.563,162.417 C414.579,162.072 414.61,161.691 414.857,161.449 C415.075,161.236 415.401,161.191 415.704,161.157 C426.223,159.977 436.803,159.339 447.388,159.248" stroke="#0086FF" stroke-width="3.1988" stroke-linecap="round" stroke-linejoin="round"></path>
                            <path d="M447.716,159.46 C447.716,162.02 447.716,164.581 447.716,167.141" stroke="#0086FF" stroke-width="3.1988" stroke-linecap="round" stroke-linejoin="round"></path>
                            <path d="M180.09,206.152 C191.52,181.799 198.418,150.127 226.47,116.181" stroke="#0086FF" stroke-width="3.1988" stroke-linecap="round" stroke-linejoin="round"></path>
                        </g>
                    </g>
                    <path d="M696.959,215.803 L677.125,219.059 C677.125,219.059 665.424,211.436 650.191,203.842 L686.82,196.788 L680.588,189.456 L632.088,195.755 C626.018,193.395 619.883,191.409 614.071,190.173 C586.244,184.252 593.052,190.641 593.052,190.641 C609.038,204.851 676.533,228.533 676.533,228.533 L701.104,219.356 L696.959,215.803 Z" id="Path" fill="#0086FF" fill-rule="nonzero" opacity="0.13"></path>
                    <g id="Group" transform="translate(566.000000, 511.000000)">
                        <g opacity="0.13" transform="translate(93.000000, 76.000000)" fill="#0086FF" fill-rule="nonzero" id="Path">
                            <path d="M109.303337,13.342 C109.292,11.064 108.987,8.734 108.054,6.753 C106.293,3.012 102.619,1.167 99.084,0.594 C81.942,-2.186 68.482,17.827 52.033,24.273 C43.73,27.527 32.905,28.875 30.019,38.81 C28.179,45.145 30.462,53.325 26.551,58.102 C24.799,60.242 22.245,61.019 19.921,62.11 C8.552,67.448 1.357,81.987 0.209,96.632 C-0.939,111.278 3.113,125.891 8.907,138.837 L24.939,168.076 C28.178,150.619 37.401,134.893 49.971,125.391 C60.538,117.404 74.979,110.984 76.415,96.046 C76.994,90.024 75.09,84.035 75.131,77.972 C75.308,51.592 109.427,39.722 109.303337,13.342 Z"></path>
                        </g>
                        <g opacity="0.13" transform="translate(62.000000, 0.000000)" fill="#0086FF" fill-rule="nonzero" id="Path">
                            <path d="M64.949,107.765 C56.496,76.488 83.981,41.637 75.252,10.542 C74.498,7.857 73.457,5.29 71.952,3.518 C69.112,0.172 65.132,0.235 61.695,1.715 C45.03,8.892 39.194,40.755 26.179,58.412 C19.61,67.324 10.099,75.524 10.691,89.025 C11.069,97.633 15.839,105.905 13.804,113.937 C12.893,117.535 10.798,120.011 9.019,122.719 C0.312,135.965 -1.553,157.535 2.174,175.541 C5.901,193.547 14.399,208.341 23.953,220.102 L48.239,244.866 C45.515,222.262 48.857,198.05 57.308,179.151 C64.412,163.264 75.59,146.864 72.031,128.338 C70.598,120.868 66.892,114.954 64.949,107.765 Z"></path>
                        </g>
                        <g opacity="0.13" transform="translate(0.000000, 90.000000)" fill="#0086FF" fill-rule="nonzero" id="Path">
                            <path d="M75.026,29.501 C69.035,26.317 62.494,24.728 56.686,21.084 C50.214,17.023 44.963,10.604 38.688,6.117 C27.156,-2.129 9.599,-1.423 3.053,12.685 C0.181,18.875 -0.007,26.431 1.119,33.393 C4.049,51.511 15.974,67.071 30.723,72.02 C39.268,74.887 48.638,74.489 56.516,79.405 C64.936,84.659 70.218,95.144 73.776,105.74 C77.334,116.336 79.631,127.602 84.269,137.573 L98.535,154.867 C91.877,140.708 98.978,123.455 102.374,107.702 C108.795,77.908 98.386,41.919 75.026,29.501 Z"></path>
                        </g>
                        <path d="M117.948,269.515 L88.238,269.515 C87.424,269.515 86.728,269.094 86.586,268.517 L74.62,219.823 C74.438,219.082 75.228,218.403 76.272,218.403 L121.364,218.403 C127.223,218.403 131.641,222.239 130.561,226.389 L119.596,268.529 C119.448,269.101 118.755,269.515 117.948,269.515 Z" id="Path" fill="#0086FF" fill-rule="nonzero"></path>
                        <path d="M95.458,224.739 C92.241,218.22 90.845,204.619 90.457,197.049 C89.521,178.805 82.331,161.43 71.785,148.299 C61.239,135.168 47.507,126.118 33.011,120.77" id="Path" stroke="#0086FF" stroke-width="3.1988" stroke-linecap="round" stroke-linejoin="round"></path>
                        <path d="M100.132,222.099 C93.937,160.808 98.585,97.956 113.678,38.954" id="Path" stroke="#0086FF" stroke-width="3.1988" stroke-linecap="round" stroke-linejoin="round"></path>
                        <path d="M103.575,233.01 C109.131,187.569 131.948,145.621 164.3,121.371" id="Path" stroke="#0086FF" stroke-width="3.1988" stroke-linecap="round" stroke-linejoin="round"></path>
                    </g>
                </g>
            </g>
        </g>
    </g>
</svg>