<?xml version="1.0" encoding="UTF-8"?>
<svg width="132px" height="22px" viewBox="0 0 132 22" version="1.1" xmlns="http://www.w3.org/2000/svg" xmlns:xlink="http://www.w3.org/1999/xlink">
    <!-- Generator: sketchtool 61 (101010) - https://sketch.com -->
    <title>2B5B87BB-86B9-47B4-A41B-B5D226D67C74</title>
    <desc>Created with sketchtool.</desc>
    <defs>
        <polygon id="path-1" points="0 0 132 0 132 22 0 22"></polygon>
    </defs>
    <g id="Landing---Design" stroke="none" stroke-width="1" fill="none" fill-rule="evenodd">
        <g id="01-Home" transform="translate(-135.000000, -64.000000)">
            <g id="Hero" transform="translate(135.000000, 50.000000)">
                <g id="Nav">
                    <g id="logo" transform="translate(0.000000, 14.000000)">
                        <mask id="mask-2" fill="white">
                            <use xlink:href="#path-1"></use>
                        </mask>
                        <g id="Clip-2"></g>
                        <path d="M130.139884,4.62446929 C131.051057,5.38770954 131.618962,6.40561128 131.843102,7.67743027 L128.884823,7.67743027 C128.765075,7.07904396 128.496231,6.5999876 128.078042,6.24075734 C127.659606,5.88165113 127.114363,5.70203601 126.442066,5.70203601 C125.90413,5.70203601 125.485693,5.82930474 125.187005,6.08371815 C124.887945,6.33825561 124.738848,6.68235254 124.738848,7.11625704 C124.738848,7.46072611 124.858225,7.73746737 125.097349,7.94685296 C125.336225,8.15673472 125.635285,8.32121653 125.993786,8.44079456 C126.35241,8.56062067 126.867809,8.70277463 127.540229,8.86725644 C128.481494,9.0771382 129.246914,9.29768771 129.837357,9.52952519 C130.427427,9.76173481 130.93552,10.1282836 131.361262,10.6295438 C131.787129,11.1311761 132,11.808082 132,12.6611298 C132,13.7239353 131.585403,14.5844258 130.756208,15.2428492 C129.927013,15.9015207 128.809903,16.2304843 127.405745,16.2304843 C125.792183,16.2304843 124.4996,15.8679048 123.528615,15.1417536 C122.557258,14.4160986 121.967188,13.3795903 121.758155,12.0326009 L124.783676,12.0326009 C124.858225,12.6464927 125.127193,13.1291463 125.590457,13.4806858 C126.05335,13.8323494 126.658405,14.0081192 127.405745,14.0081192 C127.943558,14.0081192 128.354316,13.8772532 128.638392,13.6151491 C128.921973,13.3535412 129.064135,13.0130415 129.064135,12.5937741 C129.064135,12.2346679 128.94092,11.9427933 128.694366,11.7182744 C128.447811,11.4938796 128.141445,11.3219552 127.775515,11.202005 C127.409213,11.082427 126.890223,10.940273 126.217926,10.7754191 C125.291397,10.5660335 124.54059,10.3528025 123.965627,10.1357262 C123.390292,9.91889804 122.897184,9.57095576 122.486549,9.09177535 C122.075419,8.61296707 121.870102,7.9546677 121.870102,7.11625704 C121.870102,6.03869033 122.280984,5.16319063 123.102749,4.48975795 C123.924266,3.81620122 125.059951,3.4795469 126.509308,3.4795469 C128.01823,3.4795469 129.228339,3.86122905 130.139884,4.62446929 L130.139884,4.62446929 Z M120.660116,3.63671014 L117.320922,16.0734451 L113.824707,16.0734451 L111.15781,7.02644948 L108.423671,16.0734451 L104.927579,16.0734451 L101.610676,3.63671014 L104.770681,3.63671014 L106.787695,13.244879 L109.544248,3.63671014 L112.883442,3.63671014 L115.662533,13.244879 L117.701837,3.63671014 L120.660116,3.63671014 Z M91.212057,7.2060646 C90.6143085,7.84972682 90.31562,8.73254509 90.31562,9.85501559 C90.31562,10.9774861 90.6143085,11.8569552 91.212057,12.4928027 C91.8094339,13.1291463 92.6016023,13.446946 93.5876954,13.446946 C94.5435728,13.446946 95.3319024,13.1213316 95.9520648,12.4703508 C96.5718558,11.81937 96.8820609,10.9477156 96.8820609,9.85501559 C96.8820609,8.74767841 96.5718558,7.86833336 95.9520648,7.21722853 C95.3319024,6.56624774 94.5435728,6.24075734 93.5876954,6.24075734 C92.6016023,6.24075734 91.8094339,6.56277452 91.212057,7.2060646 L91.212057,7.2060646 Z M95.2909132,4.22033526 C96.0377582,4.71427685 96.5682646,5.38039096 96.8820609,6.21830545 L96.8820609,3.63671014 L100.019652,3.63671014 L100.019652,16.0734451 L96.8820609,16.0734451 L96.8820609,13.4693979 C96.5682646,14.3076845 96.0377582,14.9772718 95.2909132,15.478532 C94.5435728,15.9801643 93.6471359,16.2304843 92.6016023,16.2304843 C91.5555735,16.2304843 90.6143085,15.9763189 89.7776835,15.467244 C88.9408109,14.9587893 88.2874608,14.2213502 87.8167664,13.2560429 C87.3461958,12.2908597 87.1107867,11.1571012 87.1107867,9.85501559 C87.1107867,8.55305401 87.3461958,7.41929555 87.8167664,6.45398828 C88.2874608,5.48880507 88.9408109,4.75173802 89.7776835,4.24278715 C90.6143085,3.7342084 91.5555735,3.4795469 92.6016023,3.4795469 C93.6471359,3.4795469 94.5435728,3.7265177 95.2909132,4.22033526 L95.2909132,4.22033526 Z M83.4355067,4.14169162 C84.1974595,3.68545927 85.0491923,3.45709501 85.9903334,3.45709501 L85.9903334,6.84683435 L85.0716063,6.84683435 C82.7555322,6.84683435 81.5978048,7.92452511 81.5978048,10.0796585 L81.5978048,16.0734451 L78.4377995,16.0734451 L78.4377995,3.63671014 L81.5978048,3.63671014 L81.5978048,6.01636248 C82.0608214,5.22322773 82.6735539,4.59842014 83.4355067,4.14169162 L83.4355067,4.14169162 Z M71.4570088,11.8978896 C72.3905961,10.999938 72.8576993,9.74288018 72.8576993,8.12646808 C72.8576993,6.49541884 72.3905961,5.2305463 71.4570088,4.33259471 C70.5230501,3.43464312 69.2047095,2.9856053 67.5014916,2.9856053 L65.3051654,2.9856053 L65.3051654,13.244879 L67.5014916,13.244879 C69.2047095,13.244879 70.5230501,12.7958412 71.4570088,11.8978896 L71.4570088,11.8978896 Z M75.0764396,12.2795717 C74.4187553,13.4770886 73.4663452,14.408656 72.2189617,15.074398 C70.9713305,15.7405121 69.4882901,16.0734451 67.770336,16.0734451 L62.1451601,16.0734451 L62.1451601,0.224394865 L67.770336,0.224394865 C69.4882901,0.224394865 70.9713305,0.54988526 72.2189617,1.20086605 C73.4663452,1.85197088 74.4187553,2.77237436 75.0764396,3.96220053 C75.7337524,5.1520267 76.0625326,6.54032263 76.0625326,8.12646808 C76.0625326,9.69785235 75.7337524,11.082427 75.0764396,12.2795717 L75.0764396,12.2795717 Z M58.0890894,4.87131605 C58.9406984,5.81429546 59.3665647,7.13883298 59.3665647,8.84480455 L59.3665647,16.0734451 L56.2289735,16.0734451 L56.2289735,9.2040348 C56.2289735,8.21627565 55.9747415,7.44943814 55.4670207,6.9030261 C54.9589283,6.35686215 54.2642175,6.08371815 53.3827645,6.08371815 C52.4863276,6.08371815 51.7692028,6.37546869 51.2312663,6.95909381 C50.6934537,7.54271892 50.4244854,8.38112959 50.4244854,9.47345749 L50.4244854,16.0734451 L47.2644802,16.0734451 L47.2644802,3.63671014 L50.4244854,3.63671014 L50.4244854,6.12849789 C50.753018,5.2905834 51.2946695,4.63563321 52.0493161,4.16426755 C52.8035912,3.69277784 53.6741468,3.45709501 54.6602398,3.45709501 C56.0944894,3.45709501 57.2374805,3.92858472 58.0890894,4.87131605 L58.0890894,4.87131605 Z M41.0457662,6.75702679 C40.4704317,6.23343877 39.764452,5.97133465 38.9278271,5.97133465 C38.0762182,5.97133465 37.3590934,6.23343877 36.7764527,6.75702679 C36.1936882,7.28111098 35.8722142,8.05179384 35.8127737,9.06932345 L41.8412781,9.06932345 C41.8861062,8.05179384 41.6207291,7.28111098 41.0457662,6.75702679 L41.0457662,6.75702679 Z M44.9116273,10.4612166 L35.8127737,10.4612166 C35.8574779,11.5688019 36.1561664,12.3845126 36.7092106,12.9081006 C37.2617596,13.4321848 37.9491641,13.6937927 38.7709289,13.6937927 C39.50279,13.6937927 40.1118074,13.5143017 40.5974858,13.1550714 C41.0827927,12.7958412 41.3931216,12.3097143 41.5274818,11.6959466 L44.8667993,11.6959466 C44.7022234,12.5640037 44.3514006,13.3423772 43.8134642,14.0305711 C43.2756515,14.7191371 42.5844081,15.2579825 41.7404769,15.6468592 C40.8961743,16.036232 39.9587481,16.2304843 38.9278271,16.2304843 C37.7177177,16.2304843 36.6419686,15.9723496 35.7007036,15.4560801 C34.7594386,14.9396866 34.027206,14.2028677 33.5043774,13.244879 C32.9811772,12.2872624 32.7200105,11.1571012 32.7200105,9.85501559 C32.7200105,8.55305401 32.9811772,7.41929555 33.5043774,6.45398828 C34.027206,5.48880507 34.7594386,4.75173802 35.7007036,4.24278715 C36.6419686,3.7342084 37.7177177,3.4795469 38.9278271,3.4795469 C40.1527966,3.4795469 41.2249545,3.7342084 42.1438055,4.24278715 C43.0626564,4.75173802 43.7721035,5.45159199 44.2728897,6.34185287 C44.7733043,7.23236185 45.0236974,8.24641824 45.0236974,9.38364993 C45.0236974,9.69785235 44.9861756,10.0570826 44.9116273,10.4612166 L44.9116273,10.4612166 Z M22.2652945,7.21722853 C21.645132,7.86833336 21.3351746,8.74767841 21.3351746,9.85501559 C21.3351746,10.9477156 21.645132,11.81937 22.2652945,12.4703508 C22.8850855,13.1213316 23.6732912,13.446946 24.629664,13.446946 C25.615757,13.446946 26.4075539,13.1291463 27.0051785,12.4928027 C27.6026793,11.8569552 27.9017393,10.9774861 27.9017393,9.85501559 C27.9017393,8.73254509 27.6026793,7.84972682 27.0051785,7.2060646 C26.4075539,6.56277452 25.615757,6.24075734 24.629664,6.24075734 C23.6732912,6.24075734 22.8850855,6.56624774 22.2652945,7.21722853 L22.2652945,7.21722853 Z M28.4395519,4.24278715 C29.2761769,4.75173802 29.9298985,5.48880507 30.4004691,6.45398828 C30.8711635,7.41929555 31.1064488,8.55305401 31.1064488,9.85501559 C31.1064488,11.1571012 30.8711635,12.2908597 30.4004691,13.2560429 C29.9298985,14.2213502 29.2761769,14.9587893 28.4395519,15.467244 C27.6026793,15.9763189 26.6614143,16.2304843 25.615757,16.2304843 C24.569852,16.2304843 23.67713,15.9801643 22.9375912,15.478532 C22.1980524,14.9772718 21.6713849,14.3076845 21.3575886,13.4693979 L21.3575886,22 L18.1977072,22 L18.1977072,3.63671014 L21.3575886,3.63671014 L21.3575886,6.21830545 C21.6713849,5.38039096 22.1980524,4.71427685 22.9375912,4.22033526 C23.67713,3.7265177 24.569852,3.4795469 25.615757,3.4795469 C26.6614143,3.4795469 27.6026793,3.7342084 28.4395519,4.24278715 L28.4395519,4.24278715 Z M5.46827776,3.54677853 C4.76588926,3.96604588 4.2168077,4.56827754 3.82115691,5.35409372 C3.42501079,6.13978586 3.22724731,7.05659207 3.22724731,8.10401619 C3.22724731,9.15181245 3.42501079,10.0683706 3.82115691,10.8540627 C4.2168077,11.6397548 4.76588926,12.2423586 5.46827776,12.6611298 C6.1704186,13.0803972 6.98450569,13.2896587 7.91115823,13.2896587 C8.83731542,13.2896587 9.65152635,13.0803972 10.3539149,12.6611298 C11.0560557,12.2423586 11.6051372,11.6397548 12.0011595,10.8540627 C12.3968103,10.0683706 12.5950691,9.15181245 12.5950691,8.10401619 C12.5950691,7.05659207 12.3968103,6.13978586 12.0011595,5.35409372 C11.6051372,4.56827754 11.0560557,3.96604588 10.3539149,3.54677853 C9.65152635,3.1281314 8.83731542,2.91824963 7.91115823,2.91824963 C6.98450569,2.91824963 6.1704186,3.1281314 5.46827776,3.54677853 L5.46827776,3.54677853 Z M11.9339175,1.03266293 C13.136473,1.72122893 14.0854157,2.68269084 14.7801265,3.91729675 C15.4748372,5.1520267 15.8223165,6.5476412 15.8223165,8.10401619 C15.8223165,9.66076332 15.4748372,11.0599751 14.7801265,12.3020236 C14.0854157,13.5444443 13.136473,14.5096275 11.9339175,15.1979454 C10.7311143,15.8865114 9.39023585,16.2304843 7.91115823,16.2304843 C6.43195677,16.2304843 5.09083063,15.8865114 3.88827514,15.1979454 C2.68547198,14.5096275 1.73690076,13.5444443 1.04206616,12.3020236 C0.347355386,11.0599751 0,9.66076332 0,8.10401619 C0,6.5476412 0.347355386,5.1520267 1.04206616,3.91729675 C1.73690076,2.68269084 2.68547198,1.72122893 3.88827514,1.03266293 C5.09083063,0.344345022 6.43195677,0 7.91115823,0 C9.39023585,0 10.7311143,0.344345022 11.9339175,1.03266293 L11.9339175,1.03266293 Z" id="Fill-1" fill="#0086FF" mask="url(#mask-2)"></path>
                    </g>
                </g>
            </g>
        </g>
    </g>
</svg>