<?xml version="1.0" encoding="UTF-8"?>
<svg width="955px" height="594px" viewBox="0 0 955 594" version="1.1" xmlns="http://www.w3.org/2000/svg" xmlns:xlink="http://www.w3.org/1999/xlink">
    <!-- Generator: sketchtool 61 (101010) - https://sketch.com -->
    <title>8CFDC216-3007-4430-B695-C73536E193E0</title>
    <desc>Created with sketchtool.</desc>
    <g id="Landing---Design" stroke="none" stroke-width="1" fill="none" fill-rule="evenodd">
        <g id="11-404" transform="translate(-485.000000, -221.000000)">
            <g id="Hero" transform="translate(135.000000, 50.000000)">
                <g id="404_Empty-Box" transform="translate(350.000000, 171.000000)">
                    <path d="M0,544.931 L955,544.931 C955,544.931 925.9107,414.845914 765.19375,386.375587 C553.971625,348.95874 509.003062,187.68857 416.081563,185.9623 C272.838725,183.300071 237.0692,351.364296 129.636475,346.830151 C22.20375,342.296005 0,449.305658 0,449.305658 L0,544.931 Z" id="Path" fill="#0086FF" fill-rule="nonzero" opacity="0.13" transform="translate(477.500000, 365.431000) scale(-1, 1) translate(-477.500000, -365.431000) "></path>
                    <g id="Group" transform="translate(433.000000, 0.000000)">
                        <path d="M18.471,275.061 C22.682,267.511 29.047,261.45 35.818,256.242 C39.888,253.112 46.457,255.617 48.816,259.65 C49.167,260.25 49.44,260.851 49.645,261.449 L136.403,258.572 C148.541,258.465 160.679,258.358 172.817,258.251 C184.6,258.147 196.505,257.543 208.06,260.323 C212.824,261.469 204.068,268.902 202.429,273.646 C196.375,291.173 187.446,287.28 172.501,287.754 C152.743,288.381 132.984,289.008 113.226,289.634 C93.507,290.259 51.117,293.448 31.392,293.824 C26.891,293.91 22.687,293.519 19.366,290.01 C15.384,285.801 15.819,279.815 18.471,275.061 Z" id="Path" fill="#FFFFFF" fill-rule="nonzero"></path>
                        <path d="M0.868,174.684 C0.925,175.291 1.053,175.897 1.264,176.491 C11.982,206.67 9.952,239.284 15.537,270.481 C16.446,275.558 22.625,278.379 27.223,277.116 C29.999,276.353 31.934,274.545 33.019,272.27 C33.547,271.91 34.03,271.487 34.448,270.992 C34.448,270.992 41.801,262.288 41.802,262.288 C42.19,261.829 60.989,278.724 64.595,278.593 C67.038,279.119 92.15,276.241 94.193,275.002 C137.627,266.05 181.839,261.835 226.191,262.277 C230.398,264.167 235.806,262.198 238.095,258.283 C240.779,253.695 238.975,248.093 234.687,245.285 C230.768,242.719 227.021,239.196 224.008,235.336 C226.171,195.616 211.352,157.157 213.977,117.428 C214.061,116.153 213.818,114.927 213.334,113.803 C214.293,111.919 214.595,109.705 213.935,107.301 C212.675,102.715 207.031,98.803 202.249,100.666 C178.55,109.896 149.819,109.226 124.784,111.702 C98.663,114.285 47.487,124.016 21.315,122.006 C19.683,121.881 18.032,122.121 16.541,122.783 C12.687,124.055 9.778,127.174 9.778,131.707 C9.778,132.424 9.888,133.15 10.073,133.866 C6.71,145.365 3.498,156.906 0.455,168.495 C-0.166,170.859 0.075,172.944 0.868,174.684 Z" id="Path" fill="#8FFFE9" fill-rule="nonzero"></path>
                        <path d="M147.305,190.491 C150.359,187.285 155.077,187.144 158.817,189.006 C160.427,189.807 162.034,190.524 163.689,191.162 C164.733,189.095 166.631,187.497 169.495,187.018 C172.593,186.499 175.496,186.762 177.964,187.973 C202.212,194.743 226.819,200.225 251.666,204.265 C250.238,203.389 248.834,202.481 247.441,201.63 C235.226,194.166 223.994,185.67 215.703,173.852 C210.362,166.238 221.071,155.355 228.701,160.854 C235.385,165.671 242.522,169.955 250.117,173.185 C253.004,174.413 256.001,175.609 259.049,176.376 C262.642,177.281 262.217,177.16 264.884,174.243 C270.698,167.884 276.334,161.352 282.056,154.91 C286.11,150.346 293.845,144.079 294.41,137.506 C295.066,129.886 302.242,126.963 307.587,128.953 C308.559,128.177 309.495,127.343 310.331,126.735 L319.13,120.338 L335.927,108.126 C340.079,105.107 346.517,107.418 348.925,111.534 C350.02,113.407 350.368,115.334 350.148,117.169 C354.622,119.038 357.823,124.257 356.077,129.138 C366.297,150.046 377.519,170.367 389.091,190.572 C401.306,211.899 413.062,233.794 419.373,257.696 C420.274,261.109 419.382,263.947 417.595,265.987 C417.592,266.014 417.593,266.04 417.59,266.066 C411.905,315.754 403.836,365.139 393.263,414.021 C392.926,415.581 392.315,416.844 391.523,417.846 C398.922,459.797 405.013,501.973 409.83,544.299 C411.699,545.351 413.245,547.117 414.056,549.719 C415.605,554.687 417.154,559.654 418.703,564.622 C420.267,569.637 421.486,574.598 417.84,579.036 C414.778,582.763 410.09,583.566 405.663,584.801 C400.852,586.143 396.042,587.485 391.232,588.827 C383.467,590.993 374.928,595.009 379.435,587.924 C383.319,581.82 388.758,569.242 391.185,562.424 C391.365,561.917 390.472,554.601 390.716,554.133 C376.16,527.87 364.204,500.166 351.593,472.948 C344.904,458.512 337.346,444.103 332.825,428.797 C329.994,419.212 328.553,409.233 328.14,399.221 C321.7,409.88 315.551,420.714 309.721,431.728 C308.769,433.525 307.519,434.748 306.128,435.506 C300.337,458.901 299.558,483.004 298.816,507.038 C298.421,519.838 298.027,532.648 296.896,545.409 C296.523,549.618 296.186,553.862 294.844,557.79 C296.051,559.941 296.416,562.6 295.99,565.255 C295.207,570.13 294.467,584.956 293.684,589.831 C293.018,593.976 241.011,595.011 245.434,588.174 C250.575,580.228 262.057,570.971 267.943,563.566 C267.598,562.415 267.439,561.215 267.503,560.056 C262.243,510.925 259.837,461.531 260.3,412.121 C260.329,408.987 261.605,406.661 263.477,405.132 C263.376,404.062 263.452,402.913 263.767,401.686 C272.615,367.276 280.864,332.717 288.523,298.024 C286.248,298.132 283.973,298.237 281.696,298.305 C279.746,299.006 277.611,299.174 275.792,298.674 C275.389,298.563 275.012,298.427 274.647,298.279 C267.033,297.002 265.424,287.351 269.822,282.373 C271.424,271.264 273.026,260.155 274.628,249.046 C241.83,237.289 209.032,225.531 176.234,213.773 C168.073,215.14 160.341,214.465 152.796,210.858 C144.89,207.079 140.518,197.616 147.305,190.491 Z" id="Path" fill="#FFFFFF" fill-rule="nonzero"></path>
                        <path d="M280.243,46.443 C281.603,49.223 283.552,51.528 286.193,53.214 C287.856,54.275 290.221,54.564 291.744,55.617 C293.419,56.775 293.634,59.226 293.781,61.379 C294.514,72.124 291.74,92.579 291.333,103.292 C290.855,115.846 303.014,121.044 313.455,116.512 C318.419,114.357 322.648,110.786 326.513,107.059 C327.019,106.571 327.634,105.787 328.235,105.325 C328.289,105.352 328.847,105.144 328.955,105.114 C331.17,104.497 334.343,105.296 336.65,105.23 C347.606,104.915 357.522,97.96 360.387,87.12 C361.68,82.226 361.166,76.933 359.325,72.276 C358.406,69.95 357.302,67.987 355.801,66.07 C356.045,65.695 356.277,65.315 356.489,64.926 C358.057,62.046 358.81,58.774 358.88,55.506 C359.008,49.531 357.18,43.018 354.06,37.922 C349.763,30.904 342.03,27.697 334.006,29.294 C333.622,29.37 333.247,29.462 332.874,29.559 C334.077,22.927 333.571,16.231 329.373,10.228 C323.558,1.914 312.164,-1.755 302.498,1.309 C292.027,4.629 287.794,14.187 284.554,23.831 C281.455,33.058 275.629,37.011 280.243,46.443 Z" id="Path" fill="#FFFFFF" fill-rule="nonzero"></path>
                        <path d="M9.929,313.856 C11.345,304.559 18.301,294.049 25.634,289.897 C33.435,285.48 43.077,287.432 52.034,287.785 C69.133,288.46 108.511,280.499 125.586,279.383 C138.279,278.553 150.919,280.276 163.598,280.565 C173.292,280.785 182.791,276.394 192.539,277.491 C199.491,278.274 206.183,284.284 204.271,291.752 C200.602,306.079 172.147,304.713 160.741,306.21 C135.941,309.465 88.336,313.835 63.442,316.16 C50.018,317.426 36.083,318.782 24.481,325.65 C22.928,326.569 21.383,327.601 19.612,327.946 C14.852,328.876 10.447,324.245 9.812,319.433 C9.58,317.672 9.634,315.79 9.929,313.856 Z" id="Path" fill="#8FFFE9" fill-rule="nonzero"></path>
                        <g transform="translate(0.000000, 5.000000)" id="Path">
                            <path d="M290.336,562.751 C283.553,563.782 277.864,564.742 269.934,566.803 L248.988,584.829 L289.013,582.06 L290.336,562.751 Z" fill="#0086FF" fill-rule="nonzero"></path>
                            <path d="M416.034,553.152 C409.721,555.84 404.45,558.186 397.283,562.156 L381.484,584.829 L419.56,572.182 L416.034,553.152 Z" fill="#0086FF" fill-rule="nonzero"></path>
                            <path d="M299.977,44.841 C298.816,48.832 291.951,102.241 304.305,106.928 C312.268,109.949 320.954,101.775 326.298,95.298 L326.3,95.299 C329.449,91.485 331.437,88.26 331.437,88.26 C331.437,88.26 341.051,90.298 345.16,79.051 C349.265,67.816 336.187,65.172 329.812,74.387 C330.282,73.663 339.809,58.716 332.816,49.239 C325.648,39.525 321.943,51.156 320.048,51.321 C320.048,51.321 320.001,50.173 319.996,50.174 C319.57,50.207 318.334,49.998 316.665,49.646 C312.752,48.977 306.617,46.872 299.977,44.841 Z" stroke="#0086FF" stroke-width="3.1988" stroke-linecap="round" stroke-linejoin="round"></path>
                            <path d="M289.086,43.589 C292.177,45.194 295.858,46.559 299.586,47.702 C306.226,49.733 313.022,51.047 316.936,51.715 C318.914,52.056 320.157,52.226 320.268,52.243 C320.274,52.242 320.276,52.243 320.276,52.243 C322.171,52.078 325.876,40.447 333.044,50.161 C340.038,59.638 330.51,74.585 330.04,75.309 C336.415,66.094 349.493,68.738 345.388,79.973 C341.279,91.219 331.665,89.182 331.665,89.182 C331.665,89.182 329.677,92.407 326.528,96.221 C342.323,101.983 357.614,89.505 357.11,77.045 C356.608,64.652 346.246,59.199 346.086,59.181 C346.293,59.034 358.782,51.299 351.064,36.939 C346.097,27.697 331.533,28.604 331.533,28.604 C331.533,28.604 337.636,6.013 310.154,0.589 C282.67,-4.833 285.879,41.925 289.086,43.589 Z" fill="#0086FF" fill-rule="nonzero"></path>
                            <path d="M301.363,68.379 C301.027,71.05 301.813,73.348 303.118,73.512 C304.423,73.676 305.754,71.644 306.09,68.974 C306.426,66.303 305.64,64.005 304.335,63.841 C303.03,63.677 301.699,65.708 301.363,68.379 Z" fill="#0086FF" fill-rule="nonzero"></path>
                            <path d="M312.857,70.803 C312.521,73.474 313.307,75.772 314.612,75.936 C315.917,76.1 317.248,74.068 317.584,71.398 C317.92,68.727 317.134,66.429 315.829,66.265 C314.523,66.101 313.193,68.133 312.857,70.803 Z" fill="#0086FF" fill-rule="nonzero"></path>
                            <polyline stroke="#0086FF" stroke-width="3.1988" stroke-linecap="round" stroke-linejoin="round" points="329.296 117.16 304.799 136.617 299.503 128.288"></polyline>
                            <path d="M319.564,150.985 C319.564,150.985 281.831,192.886 267.15,204.172" stroke="#0086FF" stroke-width="3.1988" stroke-linecap="round" stroke-linejoin="round"></path>
                            <path d="M355.258,176.563 C351.395,180.237 285.202,234.079 278.967,236.665" stroke="#0086FF" stroke-width="3.1988" stroke-linecap="round" stroke-linejoin="round"></path>
                            <line x1="262.671" y1="205.088" x2="185.012" y2="191.663" stroke="#0086FF" stroke-width="3.1988" stroke-linecap="round" stroke-linejoin="round"></line>
                            <path d="M271.01,239.55 C271.403,237.848 182.295,206.678 182.295,206.678" stroke="#0086FF" stroke-width="3.1988" stroke-linecap="round" stroke-linejoin="round"></path>
                            <line x1="299.503" y1="128.288" x2="288.815" y2="183.788" stroke="#0086FF" stroke-width="3.1988" stroke-linecap="round" stroke-linejoin="round"></line>
                            <path d="M276.878,252.471 L271.768,287.978 C271.768,287.978 366.121,283.207 416.079,259.776" stroke="#0086FF" stroke-width="3.1988" stroke-linecap="round" stroke-linejoin="round"></path>
                            <path d="M344.372,116.2 C344.372,116.2 377.079,165.722 404.153,236.246" stroke="#0086FF" stroke-width="3.1988" stroke-linecap="round" stroke-linejoin="round"></path>
                            <path d="M407.579,283.305 C407.579,283.305 405.993,317.851 382.539,398.767" stroke="#0086FF" stroke-width="3.1988" stroke-linecap="round" stroke-linejoin="round"></path>
                            <polyline stroke="#0086FF" stroke-width="3.1988" stroke-linecap="round" stroke-linejoin="round" points="377.913 409.529 411.301 547.712 397.932 556.12 333.327 404.939 344.888 309.646"></polyline>
                            <polyline stroke="#0086FF" stroke-width="3.1988" stroke-linecap="round" stroke-linejoin="round" points="265.215 415.981 271.833 561.231 287.925 557.98 299.174 422.483"></polyline>
                            <line x1="303.264" y1="412.068" x2="326.025" y2="372.682" stroke="#0086FF" stroke-width="3.1988" stroke-linecap="round" stroke-linejoin="round"></line>
                            <line x1="179.4" y1="190.084" x2="176.437" y2="204.147" stroke="#0086FF" stroke-width="3.1988" stroke-linecap="round" stroke-linejoin="round"></line>
                            <path d="M173.027,205.925 C156.605,205.357 146.113,198.558 145.692,198.022 C145.165,197.351 148.609,185.965 149.956,183.071 C149.956,183.071 162.076,188.622 170.727,188.972 C172.461,189.042 168.085,186.72 166.764,185.593 C168.02,182.198 170.618,182.45 173.827,185.464" stroke="#0086FF" stroke-width="3.1988" stroke-linecap="round" stroke-linejoin="round"></path>
                            <line x1="298.488" y1="135.143" x2="266.302" y2="177.622" stroke="#0086FF" stroke-width="3.1988" stroke-linecap="round" stroke-linejoin="round"></line>
                            <line x1="261.046" y1="178.854" x2="215.906" y2="152.589" stroke="#0086FF" stroke-width="3.1988" stroke-linecap="round" stroke-linejoin="round"></line>
                            <path d="M222.26,177.373 C222.26,177.373 242.731,195.629 258.983,204.198" stroke="#0086FF" stroke-width="3.1988" stroke-linecap="round" stroke-linejoin="round"></path>
                            <path d="M290.523,292.408 C284.589,309.048 268.501,379.506 266.983,398.767" stroke="#0086FF" stroke-width="3.1988" stroke-linecap="round" stroke-linejoin="round"></path>
                            <path d="M223.842,193.176 C216.373,146.912 214.175,142.495 206.706,96.232 C150.205,99.937 69.694,107.959 14.127,118.842 C18.707,162.162 28.801,212.115 36.186,255.047" stroke="#0086FF" stroke-width="3.1988" stroke-linecap="round" stroke-linejoin="round"></path>
                            <path d="M35.526,255.37 C90.034,250.643 171.871,243.474 226.378,238.747" stroke="#0086FF" stroke-width="3.1988" stroke-linecap="round" stroke-linejoin="round"></path>
                            <path d="M13.336,119.287 C7.952,135.277 5.446,143.955 0.063,159.945" stroke="#0086FF" stroke-width="3.1988" stroke-linecap="round" stroke-linejoin="round"></path>
                            <line x1="35.526" y1="255.37" x2="20.972" y2="279.918" stroke="#0086FF" stroke-width="3.1988" stroke-linecap="round" stroke-linejoin="round"></line>
                            <line x1="210.915" y1="259.776" x2="201.81" y2="268.38" stroke="#0086FF" stroke-width="3.1988" stroke-linecap="round" stroke-linejoin="round"></line>
                            <path d="M23.299,286.248 C66.572,281.173 158.387,271.958 201.81,268.38" stroke="#0086FF" stroke-width="3.1988" stroke-linecap="round" stroke-linejoin="round"></path>
                            <path d="M225.629,229.09 C226.223,232.324 226.816,235.557 227.409,238.791" stroke="#0086FF" stroke-width="3.1988" stroke-linecap="round" stroke-linejoin="round"></path>
                            <polyline stroke="#0086FF" stroke-width="3.1988" stroke-linecap="round" stroke-linejoin="round" points="226.432 239.075 247.516 256.139 60.802 274.752"></polyline>
                            <path d="M54.445,274.752 C49.341,269.753 44.236,264.754 39.132,259.755" stroke="#0086FF" stroke-width="3.1988" stroke-linecap="round" stroke-linejoin="round"></path>
                            <path d="M0.062,159.945 C0.062,163.205 20.971,279.918 20.971,279.918" stroke="#0086FF" stroke-width="3.1988" stroke-linecap="round" stroke-linejoin="round"></path>
                            <path d="M202.39,269.035 C202.582,269.234 202.705,268.649 202.428,268.646979 C202.151,268.644 202.006,268.969 201.933,269.236 C199.5,278.076 197.067,286.917 194.634,295.757 L14.127,314.402 C16.075,305.987 20.269,294.647 22.217,286.232" stroke="#0086FF" stroke-width="3.1988" stroke-linecap="round" stroke-linejoin="round"></path>
                        </g>
                    </g>
                    <path d="M529.655,328.601 C529.655,328.601 540.016,362.415 532.036,375.399 C520.517,394.14 503.153,375.085 509.146,365.073 C515.25,354.876 524.93,362.847 521.263,368.541" id="Path" stroke="#FFFFFF" stroke-width="3.1988" stroke-linecap="round" stroke-linejoin="round"></path>
                    <path d="M573.643,314.554 C573.643,314.554 566.596,368.057 580.193,386.818 C599.82,413.898 619.505,382.029 609.239,367.539 C598.783,352.781 587.255,366.472 593.445,374.674" id="Path" stroke="#FFFFFF" stroke-width="3.1988" stroke-linecap="round" stroke-linejoin="round"></path>
                </g>
            </g>
        </g>
    </g>
</svg>