<?xml version="1.0" encoding="UTF-8"?>
<svg width="422px" height="602px" viewBox="0 0 422 602" version="1.1" xmlns="http://www.w3.org/2000/svg" xmlns:xlink="http://www.w3.org/1999/xlink">
    <!-- Generator: sketchtool 61 (101010) - https://sketch.com -->
    <title>68073C5C-0006-4F42-8C6E-4E6797F0AED5</title>
    <desc>Created with sketchtool.</desc>
    <g id="Landing---Design" stroke="none" stroke-width="1" fill="none" fill-rule="evenodd">
        <g id="01-Home" transform="translate(-63.000000, -3745.000000)">
            <g id="Subscribe" transform="translate(-122.000000, 3745.000000)">
                <g id="subs-Illustration" transform="translate(185.000000, 0.000000)">
                    <ellipse id="Oval" fill="#D1E9FF" cx="206" cy="588.5" rx="206" ry="13.5"></ellipse>
                    <path d="M415.774015,155.012049 C413.924284,148.27878 387.561293,121.844911 380.422877,124.728417 C369.073788,129.313235 365.958021,137.053363 363.712074,151.373091 C361.682492,151.507233 358.021922,168.426169 355.862631,169.709787 C344.964802,176.187859 331.971249,181.421395 321.073421,187.899468 C319.599739,188.775207 312.407914,190.763005 310.867743,191.715085 C316.341727,182.310974 325.799664,170.974657 331.824099,161.907537 C337.362393,153.572199 343.126318,145.387361 349.108243,137.365021 C355.339777,129.007871 363.385074,120.571108 362.234033,109.28792 C361.456862,101.671277 356.277178,95.1103202 348.064022,95.1103202 C341.004086,95.1103202 333.11248,101.623291 333.894011,109.28792 C334.120731,111.509441 327.958793,108.804826 325.920491,111.468033 C323.082129,115.176021 323.824583,124.113327 321.073421,127.88675 C315.572186,135.434686 310.261702,143.122217 305.149598,150.939527 C295.616451,165.515191 286.812514,180.547809 278.675657,195.943592 C275.222535,193.392715 272.084422,189.987909 268.689069,186.840482 C261.521224,180.196641 254.353378,173.552799 247.184442,166.908958 C241.706098,159.717643 235.984684,152.723724 229.586379,146.344895 C225.324475,142.095977 220.707232,137.888501 215.552618,134.63965 C220.533922,135.537201 227.546987,138.872209 232.398581,137.365021 C237.697075,135.719329 242.474836,132.232259 244.413948,127.042166 C246.530729,121.376579 248.206863,110.524541 247.184442,104.767345 C244.02562,86.964642 237.429402,75.7895091 238.994739,57.5113081 C244.02562,-1.23351728 200.898747,-1.23351728 198.187915,1 C192.085,-2.41789217 167.065523,29.8575407 162.301129,37.4796365 C153.222512,52.0018612 158.459966,69.6049126 162.301129,86.8459647 C165.146031,99.6167105 160.013782,122.319316 171.090371,127.88675 C182.16696,133.454184 191.237969,129.474641 188.249186,130.520512 C184.497403,130.411453 180.7805,131.639452 178.427188,134.627653 C177.418938,135.908 176.443387,137.206886 175.480916,138.515588 C175.286896,138.702078 175.085246,138.879843 174.894496,139.070695 C163.732887,150.207745 151.047919,162.877528 145.268734,177.821809 C128.552481,212.251565 119.621642,250.407387 110.063425,287.476358 C109.341844,290.275889 109.387624,292.808226 109.994755,295.022113 C107.879063,302.992106 106.476232,311.102783 106.000992,319.189468 C105.258701,331.799898 111.551276,344.027533 124.076476,347.961271 C124.079746,347.962362 124.083016,347.963452 124.086286,347.963452 C124.856916,355.408874 126.052647,362.854295 127.379178,370.324799 C130.771261,389.42857 134.829334,408.414557 139.527238,427.239138 C144.226232,446.068082 149.613016,464.710535 155.55679,483.182857 C155.969901,484.466475 156.232591,486.21141 156.682761,487.716417 C154.47224,488.42966 152.214848,489.031662 149.992336,489.692557 C140.405779,492.543345 130.818131,495.393042 121.231573,498.24383 C99.3192863,504.758983 77.405909,511.275226 55.4936218,517.790378 C49.6348672,519.532042 46.5937648,523.779869 45.7882542,528.451934 C42.5978217,532.096667 41.2157006,537.572493 42.4452215,542.048252 C44.6361233,550.023697 52.3097293,553.267096 59.8765152,551.95076 C102.991499,544.447538 146.105393,536.943225 189.220377,529.440003 C200.080055,527.55002 215.538448,534.789467 221.577052,523.961052 C224.492805,518.731699 224.62204,507.394141 224.48143,501.616224 C224.34954,496.191656 224.6373,490.619909 224.48143,485.195342 C223.88193,464.379353 222.639209,446.012462 221.681098,425.20956 C224.15213,426.825807 226.596506,427.090314 229.586379,428.308497 C238.467706,431.925966 245.359781,432.11187 254.414418,435.265841 C263.216175,438.331474 272.081152,441.21389 281.002809,443.908724 C285.628773,445.305763 290.269996,446.653726 294.92539,447.94934 C296.921182,448.504448 298.919153,449.047559 300.918215,449.588489 C301.062095,449.62775 301.188535,449.661558 301.321515,449.696457 C301.544965,452.982388 302.414786,458.206288 302.528146,459.669853 C302.914006,464.685451 303.275887,469.703231 303.610517,474.722102 C304.280867,484.760933 304.848758,494.806308 305.315278,504.856045 C305.764359,514.54698 306.118609,524.243368 306.376939,533.940846 C306.663609,544.663474 308.361831,554.466739 318.051938,560.73651 C325.043204,565.260255 336.671333,567.310554 344.792929,565.115207 C358.21956,561.485741 358.53457,548.952743 358.92915,537.432898 C359.622391,517.203644 360.315631,496.97439 361.007782,476.745136 C361.342412,466.992038 361.681402,457.23894 362.010583,447.484751 C362.350663,437.375032 361.994233,427.55977 357.768299,418.199282 C353.538006,408.82898 345.32812,402.409799 337.274103,396.471565 C328.513766,390.012033 319.669499,383.66374 310.867743,377.262008 C298.388323,368.185072 285.908903,359.108137 273.428393,350.031201 C278.073977,350.065009 282.72065,350.098817 287.366234,350.132625 C296.631241,350.200241 303.396877,341.022972 301.030485,332.185965 C295.720001,312.356956 288.987065,292.973995 281.382129,273.928026 C289.196346,273.540868 295.36575,267.94835 301.212515,262.53796 C323.329722,242.069868 344.162909,220.253814 363.712074,197.322091 C366.017426,196.724451 368.152738,195.537895 369.805179,193.687172 C377.268415,185.32566 386.425512,178.212867 396.54399,174.125356 C403.635535,171.262572 417.968187,163.002763 415.774015,155.012049 Z" id="Path" fill="#FFFFFF" fill-rule="nonzero"></path>
                    <g id="Group" transform="translate(22.000000, 10.000000)" fill-rule="nonzero">
                        <path d="M21.3987129,522.149015 C21.789703,529.984964 22.0118812,536.578721 21.5119802,545.934964 L6.1119802,573.518376 L0.0924752475,528.036065 L21.3987129,522.149015 Z" id="Path" fill="#0086FF"></path>
                        <path d="M293.785941,557.635993 C301.595941,558.26745 308.153465,558.90654 317.352079,560.620961 L342.657525,579.502489 L296.839802,579.555928 L293.785941,557.635993 Z" id="Path" fill="#0086FF"></path>
                        <path d="M209.803663,123.399015 C204.641287,123.399015 197.606733,121.077132 188.17505,113.935894 C188.147822,113.917354 188.121683,113.898814 188.094455,113.878092 C184.880495,111.440605 182.40495,109.193973 181.18297,108.04012 C177.971188,109.016205 169.142871,110.495056 162.441584,100.309959 C159.767822,96.2474803 158.481584,90.5556479 162.885941,86.7636376 C165.007525,84.9368855 168.097327,84.0513197 171.365743,84.3348752 C171.840594,84.3763179 172.315446,84.4406632 172.788119,84.5300923 C168.785644,78.7608274 164.738515,70.201812 168.165941,62.1608308 C169.851881,58.2041402 171.909208,55.9804103 174.453366,55.3642222 C177.971188,54.5113744 181.108911,57.1179043 183.185842,58.8421402 C183.244653,58.8912171 183.306733,58.9424752 183.369901,58.9948239 C183.577921,58.8639521 183.812079,58.7756137 184.059307,58.7374427 C184.088713,58.7298085 184.673564,58.5814872 187.125149,57.425453 C187.146931,57.4156376 187.168713,57.4058222 187.190495,57.3960068 C190.248713,56.0971043 194.510396,53.5571009 199.446238,50.6157573 C201.004752,49.6865675 202.617723,48.7257504 204.264455,47.7616615 C204.685941,47.5140957 205.189109,47.4464786 205.661782,47.5751692 C206.133366,47.7027692 206.535248,48.0135897 206.775941,48.4400137 C208.014257,50.6288444 214.064257,66.1502393 218.274752,82.3728889 C223.969703,104.313545 223.79,116.977573 217.723663,121.086947 C215.798119,122.389121 213.207129,123.399015 209.803663,123.399015 Z M190.223663,110.904031 C190.250891,110.922571 190.27703,110.941111 190.303168,110.960742 C196.617822,115.752831 208.309406,123.046752 215.67505,118.055084 C220.044554,115.094109 219.703663,102.422448 214.737327,83.2900821 C211.267426,69.9204376 206.428515,56.7492821 204.379901,51.9342906 C203.338713,52.5504786 202.313861,53.1612137 201.31297,53.7577709 C196.280198,56.7569162 191.931386,59.3481778 188.649901,60.7474154 C187.689307,61.2000137 186.96505,61.5239214 186.408515,61.7562188 C186.425941,62.1586496 186.309406,62.5588991 186.074158,62.8915316 C185.785545,63.2994154 185.342277,63.5709744 184.848911,63.6429538 C183.490792,63.8447145 182.383168,62.9253402 180.855149,61.6558838 C179.249802,60.3231726 177.05198,58.4942393 175.313762,58.9184821 C174.005743,59.2358462 172.695545,60.8532034 171.526931,63.5960581 C169.567624,68.1929299 170.448713,73.6884547 174.146238,79.9321299 C177.122772,84.9586974 180.899802,88.5980239 181.058812,88.7507077 C181.780891,89.4410564 181.814653,90.5840034 181.136139,91.3168855 C180.457624,92.0497675 179.316238,92.1010256 178.574554,91.4313983 C174.932574,88.1465162 168.809604,86.4877162 165.267822,89.5370291 C163.019901,91.4717504 163.102673,94.6650222 165.492178,98.2967145 C172.012673,108.205891 180.507723,104.445508 180.867129,104.279737 C181.56198,103.960191 182.390792,104.10415 182.93099,104.645087 C182.959307,104.675624 185.927129,107.636598 190.223663,110.904031 Z" id="Shape" fill="#0086FF"></path>
                        <path d="M216.959109,45.0787897 C213.945545,47.6787761 210.214257,50.1664308 206.37297,52.4206974 C199.527921,56.4286462 192.320198,59.6808103 188.146733,61.4541231 C186.038218,62.3538667 184.701881,62.8708103 184.583168,62.9187966 C184.576634,62.9198872 184.574455,62.9209778 184.574455,62.9209778 C182.425644,63.2361607 175.249505,51.267935 169.837723,63.9657709 C164.557723,76.3527863 179.074455,90.4782154 179.787822,91.1609299 C170.279901,82.584465 156.441683,88.9699179 163.957624,100.391754 C171.481188,111.825586 181.628416,107.026954 181.628416,107.026954 C181.628416,107.026954 184.685545,110.092626 189.187921,113.508379 C173.149703,124.079549 152.875941,114.218359 150.160792,100.22053 C147.460891,86.2979521 157.541683,77.5011863 157.715941,77.4390222 C157.446931,77.3299624 141.53396,72.0111145 146.336931,53.9987932 C149.427822,42.4068239 165.850495,39.5810838 165.850495,39.5810838 C165.850495,39.5810838 153.128614,16.0481538 182.242673,2.77666325 C211.357822,-10.4948274 220.084851,42.3828308 216.959109,45.0787897 Z" id="Path" fill="#0086FF"></path>
                        <ellipse id="Oval" fill="#0086FF" transform="translate(207.291867, 76.845965) rotate(-20.480939) translate(-207.291867, -76.845965) " cx="207.291867" cy="76.8459647" rx="2.72108371" ry="5.5720932"></ellipse>
                        <ellipse id="Oval" fill="#0086FF" transform="translate(195.156852, 82.569438) rotate(-20.480939) translate(-195.156852, -82.569438) " cx="195.156852" cy="82.5694378" rx="2.72108371" ry="5.5720932"></ellipse>
                        <path d="M262.090693,184.734263 C261.780297,184.734263 261.464455,184.65465 261.176931,184.487788 C260.304554,183.98175 260.007228,182.861706 260.512574,181.988137 L295.775743,121.061863 C296.281089,120.188294 297.398515,119.88947 298.27198,120.396598 C299.145446,120.902636 299.442772,122.02268 298.936337,122.89625 L263.673168,183.822523 C263.333366,184.407084 262.720198,184.734263 262.090693,184.734263 Z" id="Path" fill="#0086FF"></path>
                        <path d="M302.340891,160.529525 C302.082772,160.529525 301.820297,160.474995 301.570891,160.358301 C300.65604,159.931877 300.260693,158.84346 300.686535,157.928448 L312.432574,132.66801 L301.993465,123.484082 C301.235446,122.817726 301.161386,121.661692 301.826832,120.902636 C302.493366,120.14467 303.646733,120.069419 304.404752,120.735774 L315.87198,130.824899 C316.480792,131.360383 316.664851,132.235043 316.321782,132.971197 L303.997426,159.473826 C303.688119,160.138 303.029208,160.529525 302.340891,160.529525 Z" id="Path" fill="#0086FF"></path>
                        <path d="M260.905743,259.061809 C260.666139,259.061809 260.422178,259.013822 260.18802,258.913487 C259.697921,258.704092 210.781683,237.539942 173.109406,204.960499 C172.345941,204.300687 172.262079,203.145744 172.92099,202.381234 C173.579901,201.616725 174.733267,201.531658 175.496733,202.192561 C212.745347,234.404472 261.14099,255.342868 261.625644,255.551173 C262.552475,255.949241 262.982673,257.02348 262.585149,257.95267 C262.29,258.646291 261.614752,259.061809 260.905743,259.061809 Z" id="Path" fill="#0086FF"></path>
                        <path d="M255.975347,198.70919 C255.521188,198.70919 255.06703,198.541238 254.713069,198.202062 C254.176139,197.68839 200.777129,146.697467 177.178317,134.523118 C176.28198,134.060704 175.929109,132.958109 176.390891,132.059456 C176.852673,131.160803 177.953762,130.80854 178.851188,131.270954 C188.982079,136.497101 205.262079,148.913562 227.239208,168.175709 C243.557327,182.477815 257.102574,195.427579 257.237624,195.557361 C257.966238,196.255344 257.992376,197.412468 257.295347,198.143169 C256.93703,198.519426 256.456733,198.70919 255.975347,198.70919 Z" id="Path" fill="#0086FF"></path>
                        <path d="M351.967228,173.147747 C351.558812,173.147747 351.147129,173.011422 350.807327,172.731138 L338.387129,162.48933 C337.608416,161.846968 337.497327,160.694205 338.138812,159.914427 C338.780297,159.13465 339.931485,159.023409 340.710198,159.665771 L353.130396,169.907579 C353.909109,170.549942 354.020198,171.702704 353.378713,172.482482 C353.017129,172.920903 352.494356,173.147747 351.967228,173.147747 Z" id="Path" fill="#0086FF"></path>
                        <path d="M271.317624,255.769292 C270.825347,255.769292 270.335248,255.571894 269.974752,255.18146 C269.290792,254.438762 269.336535,253.281638 270.078218,252.596742 C279.452178,243.933029 346.846238,178.611644 347.525842,177.952923 C348.250099,177.250578 349.406733,177.269118 350.108119,177.995456 C350.809505,178.721795 350.79099,179.87892 350.065644,180.581265 C349.38604,181.239986 281.959307,246.591908 272.554851,255.285067 C272.205248,255.608974 271.760891,255.769292 271.317624,255.769292 Z" id="Path" fill="#0086FF"></path>
                        <path d="M265.292673,206.390274 C264.658812,206.390274 264.043465,206.059822 263.705842,205.469809 C263.204851,204.592968 263.508713,203.475104 264.384356,202.973429 L331.337327,164.610544 C332.21297,164.108868 333.328218,164.413145 333.830297,165.289986 C334.331287,166.166827 334.027426,167.284691 333.151782,167.786366 L266.198812,206.149251 C265.911287,206.312841 265.599802,206.390274 265.292673,206.390274 Z" id="Path" fill="#0086FF"></path>
                        <path d="M208.796238,341.287467 C194.99505,341.287467 178.944851,340.762889 160.317822,339.483617 C124.737723,337.038496 96.1987129,332.92585 95.9155446,332.884407 C95.0311881,332.755716 94.370099,332.006475 94.3515842,331.112185 C93.3212871,281.422345 101.001683,235.762267 117.180396,195.400315 C129.950198,163.541757 144.117327,145.009221 148.772178,138.92041 C149.348317,138.165716 149.89505,137.451374 150.051881,137.204899 C150.430891,136.36841 151.38604,135.933262 152.279109,136.223361 C153.238614,136.535272 153.763564,137.568068 153.452079,138.527795 C153.289802,139.028379 152.979406,139.434082 151.672475,141.14305 C147.092772,147.134797 133.154356,165.367419 120.570792,196.762472 C104.74495,236.244311 97.1451485,280.887952 97.9750495,329.478468 C104.350693,330.3564 129.828218,333.720896 160.596634,335.834475 C217.49495,339.742089 250.088713,336.568448 267.771485,333.002191 L241.296337,257.953761 C240.959802,257.001668 241.458614,255.956875 242.410495,255.61988 C243.361287,255.282885 244.404653,255.782379 244.741188,256.735562 L271.911188,333.755795 C272.085446,334.250926 272.039703,334.797316 271.783762,335.256458 C271.528911,335.7156 271.088911,336.041689 270.575941,336.15293 C258.609901,338.751826 239.150792,341.287467 208.796238,341.287467 Z" id="Shape" fill="#0086FF"></path>
                        <path d="M321.258713,397.208985 C320.878614,397.208985 320.495248,397.0912 320.167426,396.845815 C284.238812,370.00401 237.948416,347.440622 237.484455,347.215959 C236.576139,346.775357 236.197129,345.681487 236.637129,344.773019 C237.077129,343.86346 238.169505,343.485022 239.076733,343.924533 C239.542871,344.150287 286.138218,366.860906 322.352178,393.914287 C323.160297,394.518479 323.326931,395.664697 322.723564,396.473921 C322.365248,396.955966 321.815248,397.208985 321.258713,397.208985 Z" id="Path" fill="#0086FF"></path>
                        <path d="M318.127525,555.11453 C318.044752,555.11453 317.96198,555.109077 317.878119,555.09708 L292.06297,551.537368 C291.181881,551.416311 290.516436,550.676885 290.48703,549.785867 L286.66099,434.378756 C286.627228,433.368862 287.417921,432.523648 288.425347,432.489839 C289.445842,432.447306 290.277921,433.247805 290.311683,434.256609 L294.086535,548.122704 L316.448119,551.205826 L326.744554,410.610256 C326.817525,409.602544 327.689901,408.838034 328.699505,408.919829 C329.705842,408.99399 330.461683,409.86974 330.387624,410.877453 L319.949604,553.41974 C319.912574,553.923597 319.669703,554.390373 319.277624,554.707737 C318.949802,554.972752 318.543564,555.11453 318.127525,555.11453 Z" id="Path" fill="#0086FF"></path>
                        <path d="M281.706634,433.252168 C281.433267,433.252168 281.156634,433.191094 280.895248,433.060222 C242.939802,414.167788 202.45,406.1508 202.044851,406.072277 C201.054851,405.879241 200.407921,404.919515 200.600693,403.928161 C200.793465,402.936807 201.75297,402.290082 202.741881,402.482027 C203.151386,402.561641 244.126931,410.674602 282.520198,429.785156 C283.423069,430.234482 283.791188,431.332715 283.342475,432.236821 C283.024455,432.879183 282.378614,433.252168 281.706634,433.252168 Z" id="Path" fill="#0086FF"></path>
                        <path d="M150.743465,478.7552 C150.088911,478.7552 149.456139,478.401846 149.128317,477.782386 C132.021683,445.478865 122.01604,409.646168 116.634752,385.274568 C110.805842,358.877726 108.991386,339.831518 108.972871,339.642844 C108.879208,338.637313 109.617624,337.745203 110.621782,337.651412 C111.628119,337.558711 112.516832,338.297046 112.610495,339.302578 C112.627921,339.490161 114.428218,358.35533 120.214653,384.542776 C125.546931,408.676626 135.451287,444.146154 152.356436,476.069056 C152.829109,476.962256 152.489307,478.069214 151.598416,478.541443 C151.32505,478.686492 151.032079,478.7552 150.743465,478.7552 Z" id="Path" fill="#0086FF"></path>
                        <path d="M194.238119,507.104212 C194.161881,507.104212 194.083465,507.098759 194.006139,507.088944 C193.005248,506.961344 192.297327,506.046332 192.423663,505.044072 C194.510396,488.572766 195.013564,459.210588 193.879802,420.13227 C193.021584,390.56506 191.518614,365.626349 191.503366,365.377692 C191.442376,364.368889 192.209109,363.501863 193.215446,363.44079 C194.218515,363.380807 195.087624,364.147497 195.149703,365.15521 C195.16495,365.403867 196.671188,390.40147 197.530495,420.025391 C198.68604,459.850769 198.187228,488.609846 196.047129,505.503214 C195.930594,506.429132 195.144257,507.104212 194.238119,507.104212 Z" id="Path" fill="#0086FF"></path>
                        <path d="M28.9571287,546.060383 C28.5389109,546.060383 28.1294059,545.916424 27.800495,545.647046 C27.3768317,545.300236 27.1306931,544.780021 27.1306931,544.23145 L27.1306931,519.997265 C27.1306931,519.136783 27.729703,518.392995 28.5683168,518.209774 C29.3012871,518.050547 102.308614,502.008937 144.823069,481.134885 C145.728119,480.689921 146.822673,481.065087 147.26703,481.971374 C147.711386,482.878752 147.336733,483.973713 146.431683,484.418677 C106.84802,503.853138 41.3010891,519.087706 30.7835644,521.461938 L30.7835644,541.994632 L185.108119,510.795887 C186.095941,510.597398 187.059802,511.236489 187.260198,512.226752 C187.459505,513.217015 186.820198,514.181104 185.831287,514.381774 L29.319802,546.023303 C29.1989109,546.048386 29.0780198,546.060383 28.9571287,546.060383 Z" id="Path" fill="#0086FF"></path>
                        <path d="M357.070792,167.817993 C356.546931,167.817993 356.027426,167.594421 355.666931,167.160362 C355.021089,166.384947 355.125644,165.231094 355.901089,164.584369 C356.836634,163.803501 365.16396,156.937094 369.529109,156.142048 C371.404554,155.800691 375.579109,154.827877 379.397525,153.546424 C384.492376,151.836366 385.97901,150.58654 386.377624,150.138304 C385.516139,148.985542 381.00505,146.895956 376.345842,145.504352 L353.771881,152.273696 C353.303564,152.414383 352.799307,152.360944 352.370198,152.125374 C351.942178,151.889805 351.625248,151.492827 351.491287,151.022779 C350.493663,147.535046 348.795743,144.920882 347.73604,144.463921 C346.681782,145.694116 345.440198,151.49828 345.011089,157.342797 C344.93703,158.349419 344.063564,159.109566 343.056139,159.033224 C342.049802,158.959063 341.29396,158.083313 341.36802,157.0756 C341.376733,156.949091 341.601089,153.931405 342.159802,150.587631 C343.247822,144.076759 344.612475,142.289268 345.544752,141.510581 C346.423663,140.775518 347.302574,140.695904 347.883069,140.759159 C351.284356,141.124509 353.43099,145.577422 354.424257,148.260294 L375.815446,141.845395 C376.149802,141.74506 376.505941,141.742879 376.841386,141.838851 C376.951386,141.870479 379.569604,142.624082 382.401287,143.762667 C387.979703,146.006027 389.293168,147.697545 389.796337,148.775056 C390.204752,149.651897 390.224356,150.598537 389.849703,151.44266 C387.633366,156.435419 370.355743,159.709395 370.182574,159.741022 C367.600297,160.21107 361.48604,164.684704 358.239406,167.39375 C357.897426,167.678397 357.483564,167.817993 357.070792,167.817993 Z" id="Path" fill="#0086FF"></path>
                        <path d="M320.579109,128.21946 C320.119505,128.21946 319.659901,128.047145 319.304851,127.700335 C318.582772,126.995809 318.567525,125.837593 319.271089,125.113436 C330.219901,113.859552 334.221287,102.113809 334.93901,98.8474667 C333.000396,97.3631624 326.275149,93.5078974 322.515545,91.6975043 C320.755545,95.7883385 316.039703,105.971255 310.398119,111.838674 C309.238218,113.043785 308.115347,112.574827 307.799505,112.402513 C306.27802,111.574749 306.660297,109.93667 307.35297,106.961518 C307.435743,106.603802 307.52396,106.227545 307.603465,105.868738 C307.34099,105.838202 307.090495,105.860014 306.897723,105.973436 C306.352079,106.296253 305.718218,107.580978 305.578812,110.222407 C305.525446,111.23121 304.666139,112.002263 303.658713,111.952096 C302.651287,111.898656 301.87802,111.038174 301.931386,110.029371 C302.125248,106.351874 303.17297,103.927474 305.04297,102.822697 C306.088515,102.205419 307.881188,101.73428 310.479802,103.000465 C311.09297,103.299289 311.482871,103.911115 311.506832,104.579651 C316.271683,97.5627419 319.80802,88.7027214 319.851584,88.5914803 C320.221881,87.655747 321.277228,87.1966051 322.212772,87.560865 C324.18297,88.3297368 328.336832,90.5556479 331.363465,92.2995145 C338.536337,96.4328821 338.603861,97.1155966 338.695347,98.0600547 C338.795545,99.0808547 337.65198,103.325463 335.322376,108.329128 C333.073366,113.161569 328.916238,120.438041 321.887129,127.664345 C321.529901,128.035149 321.05505,128.21946 320.579109,128.21946 Z" id="Path" fill="#0086FF"></path>
                        <g transform="translate(346.435644, 90.519658)">
                            <path d="M13.6062376,38.6191761 C17.6337624,37.2930085 26.1288119,34.4858085 29.1794059,33.4780957 C29.9047525,33.2381641 30.6943564,33.2479795 31.4131683,33.5042701 L45.4169307,38.4872137 C46.8033663,38.9801641 47.6517822,40.2888821 47.4753465,41.6608547 L46.659604,48.0135897 C46.5027723,49.2306974 45.5715842,50.2373197 44.3027723,50.5623179 L31.1506931,53.9235419 C30.5941584,54.0653197 30.0071287,54.0664103 29.449505,53.9268137 L13.8414851,49.9941162 C12.43,49.6385812 11.4508901,48.4465573 11.4508901,47.0844 L11.4508901,41.4601846 C11.449802,40.183094 12.3134653,39.0445094 13.6062376,38.6191761 Z" id="Path" fill="#8FFFE9"></path>
                            <path d="M26.0623762,59.445241 C25.8358416,59.445241 25.6082178,59.4027077 25.3914851,59.317641 L9.67891089,53.0990496 C8.98188119,52.8231282 8.52336634,52.1491385 8.52336634,51.3977162 L8.52336634,43.1669709 C8.52336634,42.6271248 8.76079208,42.1156342 9.17356436,41.7677333 C9.58633663,41.4198325 10.1287129,41.2726017 10.6612871,41.3653026 C11.0609901,41.4351009 20.5231683,43.1004444 26.9173267,46.4889333 C27.5152475,46.8062974 27.8888119,47.4279385 27.8888119,48.1052 L27.8888119,57.6163077 C27.8888119,58.2215897 27.5893069,58.7887009 27.0894059,59.1289675 C26.7822772,59.3372718 26.4228713,59.445241 26.0623762,59.445241 Z M12.1762376,50.1533436 L24.2359406,54.9258017 L24.2359406,49.2328786 C20.1942574,47.3047009 15.0307921,46.0177949 12.1762376,45.398335 L12.1762376,50.1533436 Z" id="Shape" fill="#0086FF"></path>
                            <path d="M31.7224752,59.445241 C30.9263366,59.445241 30.1944554,58.9195726 29.9668317,58.1147111 C29.6912871,57.142988 30.2554455,56.1320034 31.2258416,55.8560821 L43.4140594,52.3923419 L43.4140594,44.9271966 L29.5333663,49.3004957 C28.5684158,49.6047726 27.5457426,49.0681983 27.2429703,48.1052 C26.940198,47.1411111 27.4749505,46.1148581 28.4366337,45.8116718 L44.6926733,40.6902222 C45.2481188,40.5157265 45.8525743,40.6149709 46.3219802,40.9606906 C46.790297,41.3053197 47.0680198,41.8528 47.0680198,42.4351795 L47.0680198,53.7752205 C47.0680198,54.5931692 46.5256436,55.3118735 45.740396,55.5343556 L32.2245545,59.3754427 C32.0557426,59.4223385 31.8880198,59.445241 31.7224752,59.445241 Z" id="Path" fill="#0086FF"></path>
                            <path d="M26.0612871,49.9341333 C25.2782178,49.9341333 24.5550495,49.4270051 24.3154455,48.6385026 L20.0515842,34.6341299 L5.6350495,31.0711453 L11.200396,42.3566564 C11.6469307,43.2629436 11.2755446,44.3589949 10.3715842,44.8061402 C9.46653465,45.2532855 8.3719802,44.8813915 7.92544554,43.9761949 L0.61970297,29.1615077 C0.304950495,28.5235077 0.388811881,27.7600889 0.833168317,27.206065 C1.27861386,26.6509504 2.00613861,26.4055658 2.69445545,26.5756991 L21.9335644,31.3307077 C22.5576238,31.4855726 23.0553465,31.9567111 23.2426733,32.5728991 L27.8093069,47.5708068 C28.1033663,48.5370769 27.559901,49.5589675 26.5949505,49.8534291 C26.4174257,49.9090496 26.2377228,49.9341333 26.0612871,49.9341333 Z" id="Path" fill="#0086FF"></path>
                            <path d="M14.149703,18.8084581 C13.4559406,18.8084581 12.7926733,18.4103897 12.4866337,17.7364 C11.2657426,15.0502564 9.65386139,12.5691453 7.69346535,10.3639556 C7.02257426,9.60926154 7.09009901,8.45322735 7.84376238,7.7814188 C8.59742574,7.10961026 9.75188119,7.17722735 10.4227723,7.93192137 C12.6260396,10.4108513 14.4394059,13.2006017 15.8116832,16.2204684 C16.229901,17.1398427 15.8236634,18.2238974 14.9055446,18.6426872 C14.6594059,18.7561094 14.4023762,18.8084581 14.149703,18.8084581 Z" id="Path" fill="#8FFFE9"></path>
                            <path d="M26.7376238,17.103853 C26.699505,17.103853 26.6613861,17.1027624 26.6232673,17.1005812 C25.6169307,17.0384171 24.850198,16.1703009 24.9133663,15.162588 L25.7410891,1.75586325 C25.8031683,0.748150427 26.660297,-0.0196307692 27.6764356,0.0436239316 C28.6827723,0.105788034 29.449505,0.973904274 29.3863366,1.98161709 L28.5586139,15.3883419 C28.4987129,16.3578838 27.6949505,17.103853 26.7376238,17.103853 Z" id="Path" fill="#8FFFE9"></path>
                            <path d="M43.4467327,23.7466872 C43.1265347,23.7466872 42.8019802,23.6627111 42.5079208,23.4849436 C41.6431683,22.9647282 41.3632673,21.841412 41.8827723,20.9754769 C44.8843564,15.9729026 47.570099,10.7173094 49.8670297,5.35592821 C50.2645545,4.42782906 51.3373267,3.99813333 52.2652475,4.39620171 C53.1920792,4.79427009 53.6211881,5.8696 53.2236634,6.79769915 C50.8613861,12.3106735 48.0994059,17.714588 45.0139604,22.8589402 C44.6719802,23.4304137 44.0664356,23.7466872 43.4467327,23.7466872 Z" id="Path" fill="#8FFFE9"></path>
                        </g>
                    </g>
                </g>
            </g>
        </g>
    </g>
</svg>